  0
SECTION
  2
HEADER
  9
$ACADVER
  1
AC1009
  9
$DWGCODEPAGE
  3
ansi_1252
  9
$INSBASE
 10
0.0
 20
0.0
 30
0.0
  9
$EXTMIN
 10
-4.293159204688279
 20
-1.25078168432667
 30
0.0
  9
$EXTMAX
 10
4.210048765958687
 20
0.4536965564284094
 30
0.0
  9
$LIMMIN
 10
0.0
 20
0.0
  9
$LIMMAX
 10
12.0
 20
9.0
  9
$ORTHOMODE
 70
     0
  9
$REGENMODE
 70
     1
  9
$FILLMODE
 70
     1
  9
$QTEXTMODE
 70
     0
  9
$MIRRTEXT
 70
     1
  9
$DRAGMODE
 70
     2
  9
$LTSCALE
 40
1.0
  9
$OSMODE
 70
    37
  9
$ATTMODE
 70
     1
  9
$TEXTSIZE
 40
0.2
  9
$TRACEWID
 40
0.05
  9
$TEXTSTYLE
  7
STANDARD
  9
$CLAYER
  8
0
  9
$CELTYPE
  6
BYLAYER
  9
$CECOLOR
 62
   256
  9
$DIMSCALE
 40
1.0
  9
$DIMASZ
 40
0.18
  9
$DIMEXO
 40
0.0625
  9
$DIMDLI
 40
0.38
  9
$DIMRND
 40
0.0
  9
$DIMDLE
 40
0.0
  9
$DIMEXE
 40
0.18
  9
$DIMTP
 40
0.0
  9
$DIMTM
 40
0.0
  9
$DIMTXT
 40
0.18
  9
$DIMCEN
 40
0.09
  9
$DIMTSZ
 40
0.0
  9
$DIMTOL
 70
     0
  9
$DIMLIM
 70
     0
  9
$DIMTIH
 70
     1
  9
$DIMTOH
 70
     1
  9
$DIMSE1
 70
     0
  9
$DIMSE2
 70
     0
  9
$DIMTAD
 70
     0
  9
$DIMZIN
 70
     0
  9
$DIMBLK
  1

  9
$DIMASO
 70
     1
  9
$DIMSHO
 70
     1
  9
$DIMPOST
  1

  9
$DIMAPOST
  1

  9
$DIMALT
 70
     0
  9
$DIMALTD
 70
     2
  9
$DIMALTF
 40
25.4
  9
$DIMLFAC
 40
1.0
  9
$DIMTOFL
 70
     0
  9
$DIMTVP
 40
0.0
  9
$DIMTIX
 70
     0
  9
$DIMSOXD
 70
     0
  9
$DIMSAH
 70
     0
  9
$DIMBLK1
  1

  9
$DIMBLK2
  1

  9
$DIMSTYLE
  2
STANDARD
  9
$DIMCLRD
 70
     0
  9
$DIMCLRE
 70
     0
  9
$DIMCLRT
 70
     0
  9
$DIMTFAC
 40
1.0
  9
$DIMGAP
 40
0.09
  9
$LUNITS
 70
     2
  9
$LUPREC
 70
     4
  9
$SKETCHINC
 40
0.1
  9
$FILLETRAD
 40
0.0
  9
$AUNITS
 70
     0
  9
$AUPREC
 70
     0
  9
$MENU
  1
.
  9
$ELEVATION
 40
0.0
  9
$PELEVATION
 40
0.0
  9
$THICKNESS
 40
0.0
  9
$LIMCHECK
 70
     0
  9
$CHAMFERA
 40
0.0
  9
$CHAMFERB
 40
0.0
  9
$SKPOLY
 70
     0
  9
$TDCREATE
 40
2454910.5
  9
$TDUPDATE
 40
2461318.691588681
  9
$TDINDWG
 40
0.0000000116
  9
$TDUSRTIMER
 40
0.0000000116
  9
$USRTIMER
 70
     1
  9
$ANGBASE
 50
0.0
  9
$ANGDIR
 70
     0
  9
$PDMODE
 70
     0
  9
$PDSIZE
 40
0.0
  9
$PLINEWID
 40
0.0
  9
$COORDS
 70
     1
  9
$SPLFRAME
 70
     0
  9
$SPLINETYPE
 70
     6
  9
$SPLINESEGS
 70
     8
  9
$ATTDIA
 70
     0
  9
$ATTREQ
 70
     1
  9
$HANDLING
 70
     1
  9
$HANDSEED
  5
6A4
  9
$SURFTAB1
 70
     6
  9
$SURFTAB2
 70
     6
  9
$SURFTYPE
 70
     6
  9
$SURFU
 70
     6
  9
$SURFV
 70
     6
  9
$UCSNAME
  2

  9
$UCSORG
 10
0.0
 20
0.0
 30
0.0
  9
$UCSXDIR
 10
1.0
 20
0.0
 30
0.0
  9
$UCSYDIR
 10
0.0
 20
1.0
 30
0.0
  9
$PUCSNAME
  2

  9
$PUCSORG
 10
0.0
 20
0.0
 30
0.0
  9
$PUCSXDIR
 10
1.0
 20
0.0
 30
0.0
  9
$PUCSYDIR
 10
0.0
 20
1.0
 30
0.0
  9
$USERI1
 70
     0
  9
$USERI2
 70
     0
  9
$USERI3
 70
     0
  9
$USERI4
 70
     0
  9
$USERI5
 70
     0
  9
$USERR1
 40
0.0
  9
$USERR2
 40
0.0
  9
$USERR3
 40
0.0
  9
$USERR4
 40
0.0
  9
$USERR5
 40
0.0
  9
$WORLDVIEW
 70
     1
  9
$SHADEDGE
 70
     3
  9
$SHADEDIF
 70
    70
  9
$TILEMODE
 70
     1
  9
$MAXACTVP
 70
    64
  9
$PLIMCHECK
 70
     0
  9
$PEXTMIN
 10
1.000000000000000E+20
 20
1.000000000000000E+20
 30
1.000000000000000E+20
  9
$PEXTMAX
 10
-1.000000000000000E+20
 20
-1.000000000000000E+20
 30
-1.000000000000000E+20
  9
$PLIMMIN
 10
0.0
 20
0.0
  9
$PLIMMAX
 10
12.0
 20
9.0
  9
$UNITMODE
 70
     0
  9
$VISRETAIN
 70
     1
  9
$PLINEGEN
 70
     0
  9
$PSLTSCALE
 70
     1
  0
ENDSEC
  0
SECTION
  2
TABLES
  0
TABLE
  2
VPORT
 70
     1
  0
VPORT
  2
*ACTIVE
 70
     0
 10
0.0
 20
0.0
 11
1.0
 21
1.0
 12
10.42990654205607
 22
4.5
 13
0.0
 23
0.0
 14
0.5
 24
0.5
 15
0.5
 25
0.5
 16
0.0
 26
0.0
 36
1.0
 17
0.0
 27
0.0
 37
0.0
 40
9.0
 41
1.972972972850329
 42
50.0
 43
0.0
 44
0.0
 50
0.0
 51
0.0
 71
     0
 72
   100
 73
     1
 74
     3
 75
     0
 76
     0
 77
     0
 78
     0
  0
ENDTAB
  0
TABLE
  2
LTYPE
 70
     2
  0
LTYPE
  2
CONTINUOUS
 70
     0
  3
Solid line
 72
    65
 73
     0
 40
0.0
  0
LTYPE
  2
CONTINUOUS2
 70
     0
  3
Solid Line
 72
    65
 73
     0
 40
0.0
  0
ENDTAB
  0
TABLE
  2
LAYER
 70
     2
  0
LAYER
  2
0
 70
     0
 62
     7
  6
CONTINUOUS
  0
LAYER
  2
FRAME
 70
     0
 62
     7
  6
CONTINUOUS
  0
ENDTAB
  0
TABLE
  2
STYLE
 70
     1
  0
STYLE
  2
STANDARD
 70
     0
 40
0.0
 41
1.0
 50
0.0
 71
     0
 42
0.2
  3
txt
  4

  0
ENDTAB
  0
TABLE
  2
VIEW
 70
     0
  0
ENDTAB
  0
TABLE
  2
UCS
 70
     0
  0
ENDTAB
  0
TABLE
  2
APPID
 70
     1
  0
APPID
  2
ACAD
 70
     0
  0
ENDTAB
  0
TABLE
  2
DIMSTYLE
 70
     1
  0
DIMSTYLE
  2
STANDARD
 70
     0
  3

  4

  5

  6

  7

 40
1.0
 41
0.18
 42
0.0625
 43
0.38
 44
0.18
 45
0.0
 46
0.0
 47
0.0
 48
0.0
140
0.18
141
0.09
142
0.0
143
25.4
144
1.0
145
0.0
146
1.0
147
0.09
 71
     0
 72
     0
 73
     1
 74
     1
 75
     0
 76
     0
 77
     0
 78
     0
170
     0
171
     2
172
     0
173
     0
174
     0
175
     0
176
     0
177
     0
178
     0
  0
ENDTAB
  0
ENDSEC
  0
SECTION
  2
BLOCKS
  0
BLOCK
  8
0
  2
$MODEL_SPACE
 70
     0
 10
0.0
 20
0.0
 30
0.0
  3
$MODEL_SPACE
  1

  0
ENDBLK
  5
21
  8
0
  0
BLOCK
 67
     1
  8
0
  2
$PAPER_SPACE
 70
     0
 10
0.0
 20
0.0
 30
0.0
  3
$PAPER_SPACE
  1

  0
ENDBLK
  5
1D
 67
     1
  8
0
  0
ENDSEC
  0
SECTION
  2
ENTITIES
  0
POLYLINE
  5
60
  8
FRAME
 66
     1
 10
0.0
 20
0.0
 30
0.0
 70
     1
  0
VERTEX
  5
72
  8
FRAME
 10
-4.243215871142644
 20
-0.9217070299057362
 30
0.0
  0
VERTEX
  5
73
  8
FRAME
 10
-4.254485454835666
 20
-0.8917760010998128
 30
0.0
  0
VERTEX
  5
74
  8
FRAME
 10
-4.264316665890411
 20
-0.8624077566430466
 30
0.0
  0
VERTEX
  5
75
  8
FRAME
 10
-4.26869288167843
 20
-0.8479346785455976
 30
0.0
  0
VERTEX
  5
76
  8
FRAME
 10
-4.272709504306881
 20
-0.8336022965354379
 30
0.0
  0
VERTEX
  5
77
  8
FRAME
 10
-4.276366533775762
 20
-0.8194106106125676
 30
0.0
  0
VERTEX
  5
78
  8
FRAME
 10
-4.279663970085074
 20
-0.8053596207769866
 30
0.0
  0
VERTEX
  5
79
  8
FRAME
 10
-4.282601813234817
 20
-0.791449327028695
 30
0.0
  0
VERTEX
  5
7A
  8
FRAME
 10
-4.285180063224991
 20
-0.7776797293676927
 30
0.0
  0
VERTEX
  5
7B
  8
FRAME
 10
-4.287398720055597
 20
-0.7640508277939796
 30
0.0
  0
VERTEX
  5
7C
  8
FRAME
 10
-4.289257783726633
 20
-0.7505626223075559
 30
0.0
  0
VERTEX
  5
7D
  8
FRAME
 10
-4.2907572542381
 20
-0.7372151129084216
 30
0.0
  0
VERTEX
  5
7E
  8
FRAME
 10
-4.291897131589999
 20
-0.7240082995965766
 30
0.0
  0
VERTEX
  5
7F
  8
FRAME
 10
-4.292677415782328
 20
-0.710942182372021
 30
0.0
  0
VERTEX
  5
80
  8
FRAME
 10
-4.293098106815088
 20
-0.6980167612347548
 30
0.0
  0
VERTEX
  5
81
  8
FRAME
 10
-4.293159204688279
 20
-0.6852320361847778
 30
0.0
  0
VERTEX
  5
82
  8
FRAME
 10
-4.292860709401901
 20
-0.6725880072220902
 30
0.0
  0
VERTEX
  5
83
  8
FRAME
 10
-4.292202620955955
 20
-0.6600846743466918
 30
0.0
  0
VERTEX
  5
84
  8
FRAME
 10
-4.291184939350439
 20
-0.6477220375585828
 30
0.0
  0
VERTEX
  5
85
  8
FRAME
 10
-4.289807664585354
 20
-0.6355000968577632
 30
0.0
  0
VERTEX
  5
86
  8
FRAME
 10
-4.2880707966607
 20
-0.623418852244233
 30
0.0
  0
VERTEX
  5
87
  8
FRAME
 10
-4.285974335576478
 20
-0.6114783037179919
 30
0.0
  0
VERTEX
  5
88
  8
FRAME
 10
-4.283518281332686
 20
-0.5996784512790403
 30
0.0
  0
VERTEX
  5
89
  8
FRAME
 10
-4.280702633929325
 20
-0.588019294927378
 30
0.0
  0
VERTEX
  5
8A
  8
FRAME
 10
-4.277527393366396
 20
-0.5765008346630052
 30
0.0
  0
VERTEX
  5
8B
  8
FRAME
 10
-4.273992559643897
 20
-0.5651230704859215
 30
0.0
  0
VERTEX
  5
8C
  8
FRAME
 10
-4.270098132761829
 20
-0.5538860023961272
 30
0.0
  0
VERTEX
  5
8D
  8
FRAME
 10
-4.265844112720192
 20
-0.5427896303936223
 30
0.0
  0
VERTEX
  5
8E
  8
FRAME
 10
-4.261230499518986
 20
-0.5318339544784068
 30
0.0
  0
VERTEX
  5
8F
  8
FRAME
 10
-4.25625729315821
 20
-0.5210189746504805
 30
0.0
  0
VERTEX
  5
90
  8
FRAME
 10
-4.250924493637867
 20
-0.5103446909098436
 30
0.0
  0
VERTEX
  5
91
  8
FRAME
 10
-4.241347260784808
 20
-0.4929935118970561
 30
0.0
  0
VERTEX
  5
92
  8
FRAME
 10
-4.231086252482541
 20
-0.4762452437899827
 30
0.0
  0
VERTEX
  5
93
  8
FRAME
 10
-4.220141468731065
 20
-0.4600998865886231
 30
0.0
  0
VERTEX
  5
94
  8
FRAME
 10
-4.208512909530381
 20
-0.4445574402929775
 30
0.0
  0
VERTEX
  5
95
  8
FRAME
 10
-4.196200574880487
 20
-0.4296179049030457
 30
0.0
  0
VERTEX
  5
96
  8
FRAME
 10
-4.183204464781387
 20
-0.4152812804188279
 30
0.0
  0
VERTEX
  5
97
  8
FRAME
 10
-4.169524579233075
 20
-0.401547566840324
 30
0.0
  0
VERTEX
  5
98
  8
FRAME
 10
-4.155160918235556
 20
-0.388416764167534
 30
0.0
  0
VERTEX
  5
99
  8
FRAME
 10
-4.140113481788829
 20
-0.3758888724004579
 30
0.0
  0
VERTEX
  5
9A
  8
FRAME
 10
-4.124382269892893
 20
-0.3639638915390958
 30
0.0
  0
VERTEX
  5
9B
  8
FRAME
 10
-4.107967282547746
 20
-0.3526418215834475
 30
0.0
  0
VERTEX
  5
9C
  8
FRAME
 10
-4.090868519753393
 20
-0.3419226625335131
 30
0.0
  0
VERTEX
  5
9D
  8
FRAME
 10
-4.07308598150983
 20
-0.3318064143892927
 30
0.0
  0
VERTEX
  5
9E
  8
FRAME
 10
-4.054619667817059
 20
-0.3222930771507861
 30
0.0
  0
VERTEX
  5
9F
  8
FRAME
 10
-4.035469578675079
 20
-0.3133826508179935
 30
0.0
  0
VERTEX
  5
A0
  8
FRAME
 10
-4.015635714083891
 20
-0.3050751353909149
 30
0.0
  0
VERTEX
  5
A1
  8
FRAME
 10
-3.993280624989647
 20
-0.2967358646034638
 30
0.0
  0
VERTEX
  5
A2
  8
FRAME
 10
-3.971073121738983
 20
-0.2895183277167912
 30
0.0
  0
VERTEX
  5
A3
  8
FRAME
 10
-3.949013204331897
 20
-0.2834225247308972
 30
0.0
  0
VERTEX
  5
A4
  8
FRAME
 10
-3.927100872768392
 20
-0.2784484556457817
 30
0.0
  0
VERTEX
  5
A5
  8
FRAME
 10
-3.905336127048466
 20
-0.2745961204614449
 30
0.0
  0
VERTEX
  5
A6
  8
FRAME
 10
-3.88371896717212
 20
-0.2718655191778865
 30
0.0
  0
VERTEX
  5
A7
  8
FRAME
 10
-3.862249393139352
 20
-0.2702566517951068
 30
0.0
  0
VERTEX
  5
A8
  8
FRAME
 10
-3.840927404950166
 20
-0.2697695183131056
 30
0.0
  0
VERTEX
  5
A9
  8
FRAME
 10
-3.819753002604557
 20
-0.2704041187318829
 30
0.0
  0
VERTEX
  5
AA
  8
FRAME
 10
-3.798726186102529
 20
-0.2721604530514389
 30
0.0
  0
VERTEX
  5
AB
  8
FRAME
 10
-3.77784695544408
 20
-0.2750385212717733
 30
0.0
  0
VERTEX
  5
AC
  8
FRAME
 10
-3.757115310629211
 20
-0.2790383233928864
 30
0.0
  0
VERTEX
  5
AD
  8
FRAME
 10
-3.736531251657921
 20
-0.284159859414778
 30
0.0
  0
VERTEX
  5
AE
  8
FRAME
 10
-3.716094778530211
 20
-0.2904031293374482
 30
0.0
  0
VERTEX
  5
AF
  8
FRAME
 10
-3.69580589124608
 20
-0.297768133160897
 30
0.0
  0
VERTEX
  5
B0
  8
FRAME
 10
-3.675664589805528
 20
-0.3062548708851243
 30
0.0
  0
VERTEX
  5
B1
  8
FRAME
 10
-3.665707285657375
 20
-0.3109104184324181
 30
0.0
  0
VERTEX
  5
B2
  8
FRAME
 10
-3.655902881731677
 20
-0.3158294563996831
 30
0.0
  0
VERTEX
  5
B3
  8
FRAME
 10
-3.646251378028436
 20
-0.3210119847869192
 30
0.0
  0
VERTEX
  5
B4
  8
FRAME
 10
-3.636752774547649
 20
-0.3264580035941265
 30
0.0
  0
VERTEX
  5
B5
  8
FRAME
 10
-3.627407071289317
 20
-0.3321675128213049
 30
0.0
  0
VERTEX
  5
B6
  8
FRAME
 10
-3.618214268253441
 20
-0.3381405124684544
 30
0.0
  0
VERTEX
  5
B7
  8
FRAME
 10
-3.609174365440021
 20
-0.3443770025355751
 30
0.0
  0
VERTEX
  5
B8
  8
FRAME
 10
-3.600287362849055
 20
-0.3508769830226669
 30
0.0
  0
VERTEX
  5
B9
  8
FRAME
 10
-3.591553260480546
 20
-0.3576404539297299
 30
0.0
  0
VERTEX
  5
BA
  8
FRAME
 10
-3.582972058334492
 20
-0.3646674152567639
 30
0.0
  0
VERTEX
  5
BB
  8
FRAME
 10
-3.56626835470975
 20
-0.3795118091707456
 30
0.0
  0
VERTEX
  5
BC
  8
FRAME
 10
-3.550176251974828
 20
-0.3954101647646118
 30
0.0
  0
VERTEX
  5
BD
  8
FRAME
 10
-3.53469575012973
 20
-0.4123624820383626
 30
0.0
  0
VERTEX
  5
BE
  8
FRAME
 10
-3.519826849174452
 20
-0.4303687609919978
 30
0.0
  0
VERTEX
  5
BF
  8
FRAME
 10
-3.505569549108997
 20
-0.4494290016255177
 30
0.0
  0
VERTEX
  5
C0
  8
FRAME
 10
-3.491923849933363
 20
-0.4695432039389222
 30
0.0
  0
VERTEX
  5
C1
  8
FRAME
 10
-3.478889751647551
 20
-0.4907113679322113
 30
0.0
  0
VERTEX
  5
C2
  8
FRAME
 10
-3.46646725425156
 20
-0.5129334936053849
 30
0.0
  0
VERTEX
  5
C3
  8
FRAME
 10
-3.454656357745391
 20
-0.536209580958443
 30
0.0
  0
VERTEX
  5
C4
  8
FRAME
 10
-3.443457062129044
 20
-0.5605396299913856
 30
0.0
  0
VERTEX
  5
C5
  8
FRAME
 10
-3.432869367402518
 20
-0.5859236407042129
 30
0.0
  0
VERTEX
  5
C6
  8
FRAME
 10
-3.424846141765506
 20
-0.6067167767372689
 30
0.0
  0
VERTEX
  5
C7
  8
FRAME
 10
-3.417438823176451
 20
-0.6271060404228573
 30
0.0
  0
VERTEX
  5
C8
  8
FRAME
 10
-3.410647411635356
 20
-0.6470914317609784
 30
0.0
  0
VERTEX
  5
C9
  8
FRAME
 10
-3.404471907142219
 20
-0.666672950751632
 30
0.0
  0
VERTEX
  5
CA
  8
FRAME
 10
-3.398912309697041
 20
-0.6858505973948182
 30
0.0
  0
VERTEX
  5
CB
  8
FRAME
 10
-3.393968619299821
 20
-0.7046243716905372
 30
0.0
  0
VERTEX
  5
CC
  8
FRAME
 10
-3.389640835950561
 20
-0.7229942736387885
 30
0.0
  0
VERTEX
  5
CD
  8
FRAME
 10
-3.385928959649258
 20
-0.7409603032395726
 30
0.0
  0
VERTEX
  5
CE
  8
FRAME
 10
-3.382832990395915
 20
-0.7585224604928893
 30
0.0
  0
VERTEX
  5
CF
  8
FRAME
 10
-3.38035292819053
 20
-0.7756807453987387
 30
0.0
  0
VERTEX
  5
D0
  8
FRAME
 10
-3.378488773033103
 20
-0.7924351579571205
 30
0.0
  0
VERTEX
  5
D1
  8
FRAME
 10
-3.377240524923636
 20
-0.8087856981680349
 30
0.0
  0
VERTEX
  5
D2
  8
FRAME
 10
-3.376608183862126
 20
-0.824732366031482
 30
0.0
  0
VERTEX
  5
D3
  8
FRAME
 10
-3.376591749848576
 20
-0.8402751615474617
 30
0.0
  0
VERTEX
  5
D4
  8
FRAME
 10
-3.377191222882985
 20
-0.8554140847159739
 30
0.0
  0
VERTEX
  5
D5
  8
FRAME
 10
-3.378406602965351
 20
-0.8701491355370188
 30
0.0
  0
VERTEX
  5
D6
  8
FRAME
 10
-3.380175837631077
 20
-0.8845853454194151
 30
0.0
  0
VERTEX
  5
D7
  8
FRAME
 10
-3.382436874415563
 20
-0.898827745771982
 30
0.0
  0
VERTEX
  5
D8
  8
FRAME
 10
-3.385189713318809
 20
-0.9128763365947193
 30
0.0
  0
VERTEX
  5
D9
  8
FRAME
 10
-3.388434354340815
 20
-0.9267311178876271
 30
0.0
  0
VERTEX
  5
DA
  8
FRAME
 10
-3.39217079748158
 20
-0.9403920896507053
 30
0.0
  0
VERTEX
  5
DB
  8
FRAME
 10
-3.396399042741105
 20
-0.9538592518839539
 30
0.0
  0
VERTEX
  5
DC
  8
FRAME
 10
-3.401119090119391
 20
-0.9671326045873732
 30
0.0
  0
VERTEX
  5
DD
  8
FRAME
 10
-3.406330939616436
 20
-0.9802121477609628
 30
0.0
  0
VERTEX
  5
DE
  8
FRAME
 10
-3.412034591232241
 20
-0.9930978814047229
 30
0.0
  0
VERTEX
  5
DF
  8
FRAME
 10
-3.418230044966806
 20
-1.005789805518654
 30
0.0
  0
VERTEX
  5
E0
  8
FRAME
 10
-3.42491730082013
 20
-1.018287920102754
 30
0.0
  0
VERTEX
  5
E1
  8
FRAME
 10
-3.432096358792215
 20
-1.030592225157026
 30
0.0
  0
VERTEX
  5
E2
  8
FRAME
 10
-3.439767218883059
 20
-1.042702720681468
 30
0.0
  0
VERTEX
  5
E3
  8
FRAME
 10
-3.447929881092664
 20
-1.05461940667608
 30
0.0
  0
VERTEX
  5
E4
  8
FRAME
 10
-3.456584345421028
 20
-1.066342283140863
 30
0.0
  0
VERTEX
  5
E5
  8
FRAME
 10
-3.465730611868151
 20
-1.077871350075816
 30
0.0
  0
VERTEX
  5
E6
  8
FRAME
 10
-3.475274139237142
 20
-1.089122786736483
 30
0.0
  0
VERTEX
  5
E7
  8
FRAME
 10
-3.485120386331104
 20
-1.100012772378406
 30
0.0
  0
VERTEX
  5
E8
  8
FRAME
 10
-3.49526935315004
 20
-1.110541307001585
 30
0.0
  0
VERTEX
  5
E9
  8
FRAME
 10
-3.505721039693948
 20
-1.12070839060602
 30
0.0
  0
VERTEX
  5
EA
  8
FRAME
 10
-3.516475445962829
 20
-1.13051402319171
 30
0.0
  0
VERTEX
  5
EB
  8
FRAME
 10
-3.527532571956683
 20
-1.139958204758657
 30
0.0
  0
VERTEX
  5
EC
  8
FRAME
 10
-3.538892417675509
 20
-1.14904093530686
 30
0.0
  0
VERTEX
  5
ED
  8
FRAME
 10
-3.550554983119309
 20
-1.15776221483632
 30
0.0
  0
VERTEX
  5
EE
  8
FRAME
 10
-3.56252026828808
 20
-1.166122043347035
 30
0.0
  0
VERTEX
  5
EF
  8
FRAME
 10
-3.574788273181825
 20
-1.174120420839007
 30
0.0
  0
VERTEX
  5
F0
  8
FRAME
 10
-3.587358997800542
 20
-1.181757347312234
 30
0.0
  0
VERTEX
  5
F1
  8
FRAME
 10
-3.600232442144232
 20
-1.189032822766718
 30
0.0
  0
VERTEX
  5
F2
  8
FRAME
 10
-3.613408606212895
 20
-1.195946847202458
 30
0.0
  0
VERTEX
  5
F3
  8
FRAME
 10
-3.62688749000653
 20
-1.202499420619454
 30
0.0
  0
VERTEX
  5
F4
  8
FRAME
 10
-3.640669093525138
 20
-1.208690543017706
 30
0.0
  0
VERTEX
  5
F5
  8
FRAME
 10
-3.654753416768719
 20
-1.214520214397214
 30
0.0
  0
VERTEX
  5
F6
  8
FRAME
 10
-3.677499928234266
 20
-1.223016660029684
 30
0.0
  0
VERTEX
  5
F7
  8
FRAME
 10
-3.700062378707845
 20
-1.230380602264643
 30
0.0
  0
VERTEX
  5
F8
  8
FRAME
 10
-3.722440768189454
 20
-1.236612041102092
 30
0.0
  0
VERTEX
  5
F9
  8
FRAME
 10
-3.744635096679094
 20
-1.241710976542029
 30
0.0
  0
VERTEX
  5
FA
  8
FRAME
 10
-3.766645364176766
 20
-1.245677408584455
 30
0.0
  0
VERTEX
  5
FB
  8
FRAME
 10
-3.788471570682467
 20
-1.248511337229371
 30
0.0
  0
VERTEX
  5
FC
  8
FRAME
 10
-3.8101137161962
 20
-1.250212762476776
 30
0.0
  0
VERTEX
  5
FD
  8
FRAME
 10
-3.831571800717964
 20
-1.25078168432667
 30
0.0
  0
VERTEX
  5
FE
  8
FRAME
 10
-3.852845824247758
 20
-1.250218102779053
 30
0.0
  0
VERTEX
  5
FF
  8
FRAME
 10
-3.873935786785584
 20
-1.248522017833925
 30
0.0
  0
VERTEX
  5
100
  8
FRAME
 10
-3.894841688331441
 20
-1.245693429491286
 30
0.0
  0
VERTEX
  5
101
  8
FRAME
 10
-3.915563528885328
 20
-1.241732337751137
 30
0.0
  0
VERTEX
  5
102
  8
FRAME
 10
-3.936101308447247
 20
-1.236638742613476
 30
0.0
  0
VERTEX
  5
103
  8
FRAME
 10
-3.956455027017196
 20
-1.230412644078305
 30
0.0
  0
VERTEX
  5
104
  8
FRAME
 10
-3.976624684595176
 20
-1.223054042145622
 30
0.0
  0
VERTEX
  5
105
  8
FRAME
 10
-3.996610281181187
 20
-1.214562936815429
 30
0.0
  0
VERTEX
  5
106
  8
FRAME
 10
-4.00648705302749
 20
-1.20988978740794
 30
0.0
  0
VERTEX
  5
107
  8
FRAME
 10
-4.016223802476373
 20
-1.204927696214424
 30
0.0
  0
VERTEX
  5
108
  8
FRAME
 10
-4.025820529527838
 20
-1.199676663234878
 30
0.0
  0
VERTEX
  5
109
  8
FRAME
 10
-4.035277234181882
 20
-1.194136688469305
 30
0.0
  0
VERTEX
  5
10A
  8
FRAME
 10
-4.044593916438505
 20
-1.188307771917703
 30
0.0
  0
VERTEX
  5
10B
  8
FRAME
 10
-4.053770576297709
 20
-1.182189913580073
 30
0.0
  0
VERTEX
  5
10C
  8
FRAME
 10
-4.062807213759493
 20
-1.175783113456414
 30
0.0
  0
VERTEX
  5
10D
  8
FRAME
 10
-4.071703828823858
 20
-1.169087371546727
 30
0.0
  0
VERTEX
  5
10E
  8
FRAME
 10
-4.080460421490802
 20
-1.162102687851012
 30
0.0
  0
VERTEX
  5
10F
  8
FRAME
 10
-4.089076991760327
 20
-1.154829062369268
 30
0.0
  0
VERTEX
  5
110
  8
FRAME
 10
-4.097553539632431
 20
-1.147266495101496
 30
0.0
  0
VERTEX
  5
111
  8
FRAME
 10
-4.105890065107117
 20
-1.139414986047696
 30
0.0
  0
VERTEX
  5
112
  8
FRAME
 10
-4.114086568184382
 20
-1.131274535207867
 30
0.0
  0
VERTEX
  5
113
  8
FRAME
 10
-4.122143048864227
 20
-1.12284514258201
 30
0.0
  0
VERTEX
  5
114
  8
FRAME
 10
-4.137835943031657
 20
-1.105119531972211
 30
0.0
  0
VERTEX
  5
115
  8
FRAME
 10
-4.152968747609409
 20
-1.086238154218298
 30
0.0
  0
VERTEX
  5
116
  8
FRAME
 10
-4.16754146259748
 20
-1.066201009320273
 30
0.0
  0
VERTEX
  5
117
  8
FRAME
 10
-4.181554087995873
 20
-1.045008097278133
 30
0.0
  0
VERTEX
  5
118
  8
FRAME
 10
-4.195006623804586
 20
-1.022659418091881
 30
0.0
  0
VERTEX
  5
119
  8
FRAME
 10
-4.20789907002362
 20
-0.9991549717615145
 30
0.0
  0
VERTEX
  5
11A
  8
FRAME
 10
-4.220231426652974
 20
-0.9744947582870351
 30
0.0
  0
VERTEX
  5
11B
  8
FRAME
 10
-4.232003693692649
 20
-0.9486787776684423
 30
0.0
  0
SEQEND
  5
699
  8
FRAME
  0
POLYLINE
  5
61
  8
FRAME
 66
     1
 10
0.0
 20
0.0
 30
0.0
 70
     1
  0
VERTEX
  5
11C
  8
FRAME
 10
-4.091641691308261
 20
-0.8615599803532075
 30
0.0
  0
VERTEX
  5
11D
  8
FRAME
 10
-4.083196485039151
 20
-0.8820115598531157
 30
0.0
  0
VERTEX
  5
11E
  8
FRAME
 10
-4.074441944757115
 20
-0.9015809839120105
 30
0.0
  0
VERTEX
  5
11F
  8
FRAME
 10
-4.06537807046215
 20
-0.9202682525298918
 30
0.0
  0
VERTEX
  5
120
  8
FRAME
 10
-4.056004862154257
 20
-0.9380733657067595
 30
0.0
  0
VERTEX
  5
121
  8
FRAME
 10
-4.046322319833437
 20
-0.9549963234426138
 30
0.0
  0
VERTEX
  5
122
  8
FRAME
 10
-4.03633044349969
 20
-0.9710371257374546
 30
0.0
  0
VERTEX
  5
123
  8
FRAME
 10
-4.026029233153015
 20
-0.9861957725912819
 30
0.0
  0
VERTEX
  5
124
  8
FRAME
 10
-4.015418688793411
 20
-1.000472264004096
 30
0.0
  0
VERTEX
  5
125
  8
FRAME
 10
-4.004498810420881
 20
-1.013866599975896
 30
0.0
  0
VERTEX
  5
126
  8
FRAME
 10
-3.993269598035422
 20
-1.026378780506683
 30
0.0
  0
VERTEX
  5
127
  8
FRAME
 10
-3.981731051637036
 20
-1.038008805596457
 30
0.0
  0
VERTEX
  5
128
  8
FRAME
 10
-3.969883171225723
 20
-1.048756675245216
 30
0.0
  0
VERTEX
  5
129
  8
FRAME
 10
-3.957725956801482
 20
-1.058622389452963
 30
0.0
  0
VERTEX
  5
12A
  8
FRAME
 10
-3.945259408364313
 20
-1.067605948219696
 30
0.0
  0
VERTEX
  5
12B
  8
FRAME
 10
-3.932483525914217
 20
-1.075707351545415
 30
0.0
  0
VERTEX
  5
12C
  8
FRAME
 10
-3.919398309451193
 20
-1.082926599430121
 30
0.0
  0
VERTEX
  5
12D
  8
FRAME
 10
-3.906140109116358
 20
-1.08932150220554
 30
0.0
  0
VERTEX
  5
12E
  8
FRAME
 10
-3.892845275050832
 20
-1.0949498702034
 30
0.0
  0
VERTEX
  5
12F
  8
FRAME
 10
-3.879513807254613
 20
-1.099811703423701
 30
0.0
  0
VERTEX
  5
130
  8
FRAME
 10
-3.866145705727702
 20
-1.103907001866443
 30
0.0
  0
VERTEX
  5
131
  8
FRAME
 10
-3.852740970470097
 20
-1.107235765531625
 30
0.0
  0
VERTEX
  5
132
  8
FRAME
 10
-3.8392996014818
 20
-1.109797994419247
 30
0.0
  0
VERTEX
  5
133
  8
FRAME
 10
-3.82582159876281
 20
-1.111593688529311
 30
0.0
  0
VERTEX
  5
134
  8
FRAME
 10
-3.812306962313129
 20
-1.112622847861814
 30
0.0
  0
VERTEX
  5
135
  8
FRAME
 10
-3.798755692132755
 20
-1.112885472416759
 30
0.0
  0
VERTEX
  5
136
  8
FRAME
 10
-3.785167788221687
 20
-1.112381562194144
 30
0.0
  0
VERTEX
  5
137
  8
FRAME
 10
-3.771543250579928
 20
-1.111111117193969
 30
0.0
  0
VERTEX
  5
138
  8
FRAME
 10
-3.757882079207476
 20
-1.109074137416236
 30
0.0
  0
VERTEX
  5
139
  8
FRAME
 10
-3.744184274104331
 20
-1.106270622860943
 30
0.0
  0
VERTEX
  5
13A
  8
FRAME
 10
-3.730449835270493
 20
-1.10270057352809
 30
0.0
  0
VERTEX
  5
13B
  8
FRAME
 10
-3.716678762705964
 20
-1.098363989417678
 30
0.0
  0
VERTEX
  5
13C
  8
FRAME
 10
-3.702871056410741
 20
-1.093260870529707
 30
0.0
  0
VERTEX
  5
13D
  8
FRAME
 10
-3.689421008987115
 20
-1.087545826239283
 30
0.0
  0
VERTEX
  5
13E
  8
FRAME
 10
-3.676518083064625
 20
-1.08129218612482
 30
0.0
  0
VERTEX
  5
13F
  8
FRAME
 10
-3.664162278643272
 20
-1.074499950186318
 30
0.0
  0
VERTEX
  5
140
  8
FRAME
 10
-3.652353595723054
 20
-1.067169118423777
 30
0.0
  0
VERTEX
  5
141
  8
FRAME
 10
-3.641092034303973
 20
-1.059299690837197
 30
0.0
  0
VERTEX
  5
142
  8
FRAME
 10
-3.630377594386028
 20
-1.050891667426578
 30
0.0
  0
VERTEX
  5
143
  8
FRAME
 10
-3.620210275969219
 20
-1.04194504819192
 30
0.0
  0
VERTEX
  5
144
  8
FRAME
 10
-3.610590079053547
 20
-1.032459833133223
 30
0.0
  0
VERTEX
  5
145
  8
FRAME
 10
-3.60151700363901
 20
-1.022436022250487
 30
0.0
  0
VERTEX
  5
146
  8
FRAME
 10
-3.59299104972561
 20
-1.011873615543712
 30
0.0
  0
VERTEX
  5
147
  8
FRAME
 10
-3.585012217313346
 20
-1.000772613012897
 30
0.0
  0
VERTEX
  5
148
  8
FRAME
 10
-3.577580506402218
 20
-0.9891330146580444
 30
0.0
  0
VERTEX
  5
149
  8
FRAME
 10
-3.570695916992226
 20
-0.9769548204791525
 30
0.0
  0
VERTEX
  5
14A
  8
FRAME
 10
-3.564358449083371
 20
-0.9642380304762215
 30
0.0
  0
VERTEX
  5
14B
  8
FRAME
 10
-3.558568102675652
 20
-0.9509826446492515
 30
0.0
  0
VERTEX
  5
14C
  8
FRAME
 10
-3.553324877769068
 20
-0.9371886629982424
 30
0.0
  0
VERTEX
  5
14D
  8
FRAME
 10
-3.548775944954004
 20
-0.9228959630417997
 30
0.0
  0
VERTEX
  5
14E
  8
FRAME
 10
-3.545068474820838
 20
-0.9081444222985281
 30
0.0
  0
VERTEX
  5
14F
  8
FRAME
 10
-3.542202467369572
 20
-0.8929340407684279
 30
0.0
  0
VERTEX
  5
150
  8
FRAME
 10
-3.540177922600205
 20
-0.8772648184514988
 30
0.0
  0
VERTEX
  5
151
  8
FRAME
 10
-3.538994840512738
 20
-0.8611367553477411
 30
0.0
  0
VERTEX
  5
152
  8
FRAME
 10
-3.53865322110717
 20
-0.8445498514571548
 30
0.0
  0
VERTEX
  5
153
  8
FRAME
 10
-3.539153064383502
 20
-0.8275041067797397
 30
0.0
  0
VERTEX
  5
154
  8
FRAME
 10
-3.540494370341733
 20
-0.8099995213154958
 30
0.0
  0
VERTEX
  5
155
  8
FRAME
 10
-3.542677138981864
 20
-0.7920360950644233
 30
0.0
  0
VERTEX
  5
156
  8
FRAME
 10
-3.545701370303894
 20
-0.773613828026522
 30
0.0
  0
VERTEX
  5
157
  8
FRAME
 10
-3.549567064307825
 20
-0.754732720201792
 30
0.0
  0
VERTEX
  5
158
  8
FRAME
 10
-3.554274220993654
 20
-0.7353927715902333
 30
0.0
  0
VERTEX
  5
159
  8
FRAME
 10
-3.559822840361384
 20
-0.715593982191846
 30
0.0
  0
VERTEX
  5
15A
  8
FRAME
 10
-3.566212922411012
 20
-0.6953363520066299
 30
0.0
  0
VERTEX
  5
15B
  8
FRAME
 10
-3.57344446714254
 20
-0.6746198810345851
 30
0.0
  0
VERTEX
  5
15C
  8
FRAME
 10
-3.581517474555968
 20
-0.6534445692757116
 30
0.0
  0
VERTEX
  5
15D
  8
FRAME
 10
-3.589688691748579
 20
-0.6336881264005677
 30
0.0
  0
VERTEX
  5
15E
  8
FRAME
 10
-3.598190223377968
 20
-0.6147703024067217
 30
0.0
  0
VERTEX
  5
15F
  8
FRAME
 10
-3.607022069444136
 20
-0.5966910972941737
 30
0.0
  0
VERTEX
  5
160
  8
FRAME
 10
-3.616184229947081
 20
-0.5794505110629236
 30
0.0
  0
VERTEX
  5
161
  8
FRAME
 10
-3.625676704886806
 20
-0.5630485437129713
 30
0.0
  0
VERTEX
  5
162
  8
FRAME
 10
-3.635499494263308
 20
-0.547485195244317
 30
0.0
  0
VERTEX
  5
163
  8
FRAME
 10
-3.645652598076589
 20
-0.5327604656569607
 30
0.0
  0
VERTEX
  5
164
  8
FRAME
 10
-3.656136016326648
 20
-0.5188743549509022
 30
0.0
  0
VERTEX
  5
165
  8
FRAME
 10
-3.666949749013486
 20
-0.5058268631261416
 30
0.0
  0
VERTEX
  5
166
  8
FRAME
 10
-3.678093796137102
 20
-0.493617990182679
 30
0.0
  0
VERTEX
  5
167
  8
FRAME
 10
-3.689568157697495
 20
-0.4822477361205144
 30
0.0
  0
VERTEX
  5
168
  8
FRAME
 10
-3.701372833694668
 20
-0.4717161009396477
 30
0.0
  0
VERTEX
  5
169
  8
FRAME
 10
-3.713507824128619
 20
-0.4620230846400789
 30
0.0
  0
VERTEX
  5
16A
  8
FRAME
 10
-3.725973128999348
 20
-0.453168687221808
 30
0.0
  0
VERTEX
  5
16B
  8
FRAME
 10
-3.738768748306856
 20
-0.445152908684835
 30
0.0
  0
VERTEX
  5
16C
  8
FRAME
 10
-3.751894682051141
 20
-0.43797574902916
 30
0.0
  0
VERTEX
  5
16D
  8
FRAME
 10
-3.765196088708352
 20
-0.4315979912108553
 30
0.0
  0
VERTEX
  5
16E
  8
FRAME
 10
-3.778518126754634
 20
-0.4259804181859934
 30
0.0
  0
VERTEX
  5
16F
  8
FRAME
 10
-3.791860796189988
 20
-0.4211230299545743
 30
0.0
  0
VERTEX
  5
170
  8
FRAME
 10
-3.805224097014413
 20
-0.417025826516598
 30
0.0
  0
VERTEX
  5
171
  8
FRAME
 10
-3.81860802922791
 20
-0.4136888078720644
 30
0.0
  0
VERTEX
  5
172
  8
FRAME
 10
-3.832012592830479
 20
-0.4111119740209736
 30
0.0
  0
VERTEX
  5
173
  8
FRAME
 10
-3.845437787822118
 20
-0.4092953249633255
 30
0.0
  0
VERTEX
  5
174
  8
FRAME
 10
-3.85888361420283
 20
-0.4082388606991203
 30
0.0
  0
VERTEX
  5
175
  8
FRAME
 10
-3.872350071972613
 20
-0.4079425812283578
 30
0.0
  0
VERTEX
  5
176
  8
FRAME
 10
-3.885837161131468
 20
-0.4084064865510381
 30
0.0
  0
VERTEX
  5
177
  8
FRAME
 10
-3.899344881679394
 20
-0.4096305766671612
 30
0.0
  0
VERTEX
  5
178
  8
FRAME
 10
-3.912873233616391
 20
-0.4116148515767271
 30
0.0
  0
VERTEX
  5
179
  8
FRAME
 10
-3.926422216942461
 20
-0.4143593112797357
 30
0.0
  0
VERTEX
  5
17A
  8
FRAME
 10
-3.939991831657601
 20
-0.417863955776187
 30
0.0
  0
VERTEX
  5
17B
  8
FRAME
 10
-3.953582077761814
 20
-0.4221287850660812
 30
0.0
  0
VERTEX
  5
17C
  8
FRAME
 10
-3.967192955255098
 20
-0.4271537991494181
 30
0.0
  0
VERTEX
  5
17D
  8
FRAME
 10
-3.980743487193597
 20
-0.432905012873041
 30
0.0
  0
VERTEX
  5
17E
  8
FRAME
 10
-3.993743036687959
 20
-0.4391858814904078
 30
0.0
  0
VERTEX
  5
17F
  8
FRAME
 10
-4.006191603738182
 20
-0.4459964050015186
 30
0.0
  0
VERTEX
  5
180
  8
FRAME
 10
-4.018089188344269
 20
-0.4533365834063733
 30
0.0
  0
VERTEX
  5
181
  8
FRAME
 10
-4.029435790506216
 20
-0.4612064167049719
 30
0.0
  0
VERTEX
  5
182
  8
FRAME
 10
-4.040231410224027
 20
-0.4696059048973144
 30
0.0
  0
VERTEX
  5
183
  8
FRAME
 10
-4.050476047497698
 20
-0.4785350479834009
 30
0.0
  0
VERTEX
  5
184
  8
FRAME
 10
-4.060169702327233
 20
-0.4879938459632314
 30
0.0
  0
VERTEX
  5
185
  8
FRAME
 10
-4.069312374712629
 20
-0.4979822988368057
 30
0.0
  0
VERTEX
  5
186
  8
FRAME
 10
-4.077904064653887
 20
-0.5085004066041241
 30
0.0
  0
VERTEX
  5
187
  8
FRAME
 10
-4.085944772151008
 20
-0.5195481692651862
 30
0.0
  0
VERTEX
  5
188
  8
FRAME
 10
-4.093434497203989
 20
-0.5311255868199924
 30
0.0
  0
VERTEX
  5
189
  8
FRAME
 10
-4.100373239812834
 20
-0.5432326592685426
 30
0.0
  0
VERTEX
  5
18A
  8
FRAME
 10
-4.106760999977539
 20
-0.5558693866108366
 30
0.0
  0
VERTEX
  5
18B
  8
FRAME
 10
-4.112597777698108
 20
-0.5690357688468748
 30
0.0
  0
VERTEX
  5
18C
  8
FRAME
 10
-4.117883572974538
 20
-0.5827318059766566
 30
0.0
  0
VERTEX
  5
18D
  8
FRAME
 10
-4.122478225675243
 20
-0.596909289073428
 30
0.0
  0
VERTEX
  5
18E
  8
FRAME
 10
-4.126241575668635
 20
-0.6115200092104345
 30
0.0
  0
VERTEX
  5
18F
  8
FRAME
 10
-4.129173622954713
 20
-0.6265639663876761
 30
0.0
  0
VERTEX
  5
190
  8
FRAME
 10
-4.13127436753348
 20
-0.6420411606051528
 30
0.0
  0
VERTEX
  5
191
  8
FRAME
 10
-4.132543809404932
 20
-0.6579515918628644
 30
0.0
  0
VERTEX
  5
192
  8
FRAME
 10
-4.132981948569072
 20
-0.6742952601608112
 30
0.0
  0
VERTEX
  5
193
  8
FRAME
 10
-4.132588785025899
 20
-0.6910721654989929
 30
0.0
  0
VERTEX
  5
194
  8
FRAME
 10
-4.131364318775413
 20
-0.7082823078774099
 30
0.0
  0
VERTEX
  5
195
  8
FRAME
 10
-4.129308549817614
 20
-0.7259256872960618
 30
0.0
  0
VERTEX
  5
196
  8
FRAME
 10
-4.126421478152502
 20
-0.7440023037549488
 30
0.0
  0
VERTEX
  5
197
  8
FRAME
 10
-4.122703103780077
 20
-0.7625121572540708
 30
0.0
  0
VERTEX
  5
198
  8
FRAME
 10
-4.11815342670034
 20
-0.7814552477934281
 30
0.0
  0
VERTEX
  5
199
  8
FRAME
 10
-4.11277244691329
 20
-0.8008315753730203
 30
0.0
  0
VERTEX
  5
19A
  8
FRAME
 10
-4.106560164418926
 20
-0.8206411399928476
 30
0.0
  0
VERTEX
  5
19B
  8
FRAME
 10
-4.099516579217251
 20
-0.8408839416529099
 30
0.0
  0
SEQEND
  5
69A
  8
FRAME
  0
POLYLINE
  5
62
  8
FRAME
 66
     1
 10
0.0
 20
0.0
 30
0.0
 70
     1
  0
VERTEX
  5
19C
  8
FRAME
 10
-3.077371678490493
 20
-0.9767670430952644
 30
0.0
  0
VERTEX
  5
19D
  8
FRAME
 10
-3.32905266351567
 20
-0.075114421523752
 30
0.0
  0
VERTEX
  5
19E
  8
FRAME
 10
-3.191512433106457
 20
-0.0367224068588945
 30
0.0
  0
VERTEX
  5
19F
  8
FRAME
 10
-3.155727283634892
 20
-0.164923485820569
 30
0.0
  0
VERTEX
  5
1A0
  8
FRAME
 10
-3.151984195119829
 20
-0.1540254509078738
 30
0.0
  0
VERTEX
  5
1A1
  8
FRAME
 10
-3.147987649012549
 20
-0.1433694681122271
 30
0.0
  0
VERTEX
  5
1A2
  8
FRAME
 10
-3.143737645313051
 20
-0.1329555374336288
 30
0.0
  0
VERTEX
  5
1A3
  8
FRAME
 10
-3.139234184021335
 20
-0.122783658872079
 30
0.0
  0
VERTEX
  5
1A4
  8
FRAME
 10
-3.134477265137402
 20
-0.1128538324275776
 30
0.0
  0
VERTEX
  5
1A5
  8
FRAME
 10
-3.12946688866125
 20
-0.1031660581001247
 30
0.0
  0
VERTEX
  5
1A6
  8
FRAME
 10
-3.124203054592881
 20
-0.0937203358897203
 30
0.0
  0
VERTEX
  5
1A7
  8
FRAME
 10
-3.118685762932294
 20
-0.0845166657963643
 30
0.0
  0
VERTEX
  5
1A8
  8
FRAME
 10
-3.11291501367949
 20
-0.0755550478200567
 30
0.0
  0
VERTEX
  5
1A9
  8
FRAME
 10
-3.106890806834468
 20
-0.0668354819607976
 30
0.0
  0
VERTEX
  5
1AA
  8
FRAME
 10
-3.100613142397228
 20
-0.058357968218587
 30
0.0
  0
VERTEX
  5
1AB
  8
FRAME
 10
-3.09408202036777
 20
-0.0501225065934249
 30
0.0
  0
VERTEX
  5
1AC
  8
FRAME
 10
-3.087297440746095
 20
-0.0421290970853111
 30
0.0
  0
VERTEX
  5
1AD
  8
FRAME
 10
-3.080259403532201
 20
-0.0343777396942459
 30
0.0
  0
VERTEX
  5
1AE
  8
FRAME
 10
-3.072967908726091
 20
-0.0268684344202291
 30
0.0
  0
VERTEX
  5
1AF
  8
FRAME
 10
-3.065422956327762
 20
-0.0196011812632608
 30
0.0
  0
VERTEX
  5
1B0
  8
FRAME
 10
-3.057624546337216
 20
-0.0125759802233409
 30
0.0
  0
VERTEX
  5
1B1
  8
FRAME
 10
-3.049572678754451
 20
-0.0057928313004694
 30
0.0
  0
VERTEX
  5
1B2
  8
FRAME
 10
-3.04126735357947
 20
0.0007482655053535
 30
0.0
  0
VERTEX
  5
1B3
  8
FRAME
 10
-3.03270857081227
 20
0.007047310194128
 30
0.0
  0
VERTEX
  5
1B4
  8
FRAME
 10
-3.023896330452853
 20
0.0131043027658541
 30
0.0
  0
VERTEX
  5
1B5
  8
FRAME
 10
-3.014830632501218
 20
0.0189192432205317
 30
0.0
  0
VERTEX
  5
1B6
  8
FRAME
 10
-3.005511476957365
 20
0.0244921315581608
 30
0.0
  0
VERTEX
  5
1B7
  8
FRAME
 10
-2.995938863821294
 20
0.0298229677787415
 30
0.0
  0
VERTEX
  5
1B8
  8
FRAME
 10
-2.986112793093005
 20
0.0349117518822737
 30
0.0
  0
VERTEX
  5
1B9
  8
FRAME
 10
-2.976033264772499
 20
0.0397584838687575
 30
0.0
  0
VERTEX
  5
1BA
  8
FRAME
 10
-2.965700278859775
 20
0.0443631637381928
 30
0.0
  0
VERTEX
  5
1BB
  8
FRAME
 10
-2.955113835354834
 20
0.0487257914905797
 30
0.0
  0
VERTEX
  5
1BC
  8
FRAME
 10
-2.944273934257675
 20
0.0528463671259181
 30
0.0
  0
VERTEX
  5
1BD
  8
FRAME
 10
-2.933180575568298
 20
0.056724890644208
 30
0.0
  0
VERTEX
  5
1BE
  8
FRAME
 10
-2.921833759286703
 20
0.0603613620454495
 30
0.0
  0
VERTEX
  5
1BF
  8
FRAME
 10
-2.910233485412891
 20
0.0637557813296425
 30
0.0
  0
VERTEX
  5
1C0
  8
FRAME
 10
-2.889935024297618
 20
0.0689284202521732
 30
0.0
  0
VERTEX
  5
1C1
  8
FRAME
 10
-2.869792301813789
 20
0.0730709252672148
 30
0.0
  0
VERTEX
  5
1C2
  8
FRAME
 10
-2.849805317961404
 20
0.0761832963747674
 30
0.0
  0
VERTEX
  5
1C3
  8
FRAME
 10
-2.829974072740463
 20
0.078265533574831
 30
0.0
  0
VERTEX
  5
1C4
  8
FRAME
 10
-2.810298566150966
 20
0.0793176368674055
 30
0.0
  0
VERTEX
  5
1C5
  8
FRAME
 10
-2.790778798192913
 20
0.079339606252491
 30
0.0
  0
VERTEX
  5
1C6
  8
FRAME
 10
-2.771414768866304
 20
0.0783314417300875
 30
0.0
  0
VERTEX
  5
1C7
  8
FRAME
 10
-2.752206478171139
 20
0.076293143300195
 30
0.0
  0
VERTEX
  5
1C8
  8
FRAME
 10
-2.733533710246197
 20
0.0733045935465998
 30
0.0
  0
VERTEX
  5
1C9
  8
FRAME
 10
-2.715776249230261
 20
0.0694456750530886
 30
0.0
  0
VERTEX
  5
1CA
  8
FRAME
 10
-2.698934095123328
 20
0.0647163878196614
 30
0.0
  0
VERTEX
  5
1CB
  8
FRAME
 10
-2.6830072479254
 20
0.0591167318463181
 30
0.0
  0
VERTEX
  5
1CC
  8
FRAME
 10
-2.667995707636477
 20
0.0526467071330587
 30
0.0
  0
VERTEX
  5
1CD
  8
FRAME
 10
-2.653899474256558
 20
0.0453063136798833
 30
0.0
  0
VERTEX
  5
1CE
  8
FRAME
 10
-2.647194597657474
 20
0.0413097286758271
 30
0.0
  0
VERTEX
  5
1CF
  8
FRAME
 10
-2.640718547785642
 20
0.0370955514867918
 30
0.0
  0
VERTEX
  5
1D0
  8
FRAME
 10
-2.634471324641062
 20
0.0326637821127775
 30
0.0
  0
VERTEX
  5
1D1
  8
FRAME
 10
-2.628452928223732
 20
0.0280144205537842
 30
0.0
  0
VERTEX
  5
1D2
  8
FRAME
 10
-2.616885580675532
 20
0.0181306522038907
 30
0.0
  0
VERTEX
  5
1D3
  8
FRAME
 10
-2.605799470245744
 20
0.0075119777601411
 30
0.0
  0
VERTEX
  5
1D4
  8
FRAME
 10
-2.595194596934371
 20
-0.0038416027774647
 30
0.0
  0
VERTEX
  5
1D5
  8
FRAME
 10
-2.585070960741413
 20
-0.0159300894089266
 30
0.0
  0
VERTEX
  5
1D6
  8
FRAME
 10
-2.575428561666868
 20
-0.0287534821342446
 30
0.0
  0
VERTEX
  5
1D7
  8
FRAME
 10
-2.566267399710738
 20
-0.0423117809534187
 30
0.0
  0
VERTEX
  5
1D8
  8
FRAME
 10
-2.557587474873022
 20
-0.056604985866449
 30
0.0
  0
VERTEX
  5
1D9
  8
FRAME
 10
-2.54938878715372
 20
-0.0716330968733354
 30
0.0
  0
VERTEX
  5
1DA
  8
FRAME
 10
-2.544158844311018
 20
-0.0826852669551577
 30
0.0
  0
VERTEX
  5
1DB
  8
FRAME
 10
-2.538638778243823
 20
-0.0958013717258958
 30
0.0
  0
VERTEX
  5
1DC
  8
FRAME
 10
-2.532828588952135
 20
-0.1109814111855497
 30
0.0
  0
VERTEX
  5
1DD
  8
FRAME
 10
-2.526728276435954
 20
-0.1282253853341194
 30
0.0
  0
VERTEX
  5
1DE
  8
FRAME
 10
-2.520337840695279
 20
-0.147533294171605
 30
0.0
  0
VERTEX
  5
1DF
  8
FRAME
 10
-2.513657281730112
 20
-0.1689051376980064
 30
0.0
  0
VERTEX
  5
1E0
  8
FRAME
 10
-2.499425794126299
 20
-0.2178406288175566
 30
0.0
  0
VERTEX
  5
1E1
  8
FRAME
 10
-2.344672796742644
 20
-0.7722466192942021
 30
0.0
  0
VERTEX
  5
1E2
  8
FRAME
 10
-2.497495274975104
 20
-0.8149044133662661
 30
0.0
  0
VERTEX
  5
1E3
  8
FRAME
 10
-2.650589358144845
 20
-0.2664415192653273
 30
0.0
  0
VERTEX
  5
1E4
  8
FRAME
 10
-2.657179590960705
 20
-0.2439076563771577
 30
0.0
  0
VERTEX
  5
1E5
  8
FRAME
 10
-2.663915963441823
 20
-0.2230018249503447
 30
0.0
  0
VERTEX
  5
1E6
  8
FRAME
 10
-2.670798475588199
 20
-0.2037240249848886
 30
0.0
  0
VERTEX
  5
1E7
  8
FRAME
 10
-2.677827127399831
 20
-0.1860742564807892
 30
0.0
  0
VERTEX
  5
1E8
  8
FRAME
 10
-2.685001918876721
 20
-0.1700525194380465
 30
0.0
  0
VERTEX
  5
1E9
  8
FRAME
 10
-2.692322850018869
 20
-0.1556588138566606
 30
0.0
  0
VERTEX
  5
1EA
  8
FRAME
 10
-2.699789920826273
 20
-0.1428931397366315
 30
0.0
  0
VERTEX
  5
1EB
  8
FRAME
 10
-2.707403131298935
 20
-0.1317554970779591
 30
0.0
  0
VERTEX
  5
1EC
  8
FRAME
 10
-2.715439086870975
 20
-0.1218440639718796
 30
0.0
  0
VERTEX
  5
1ED
  8
FRAME
 10
-2.724174392976519
 20
-0.1127570185096294
 30
0.0
  0
VERTEX
  5
1EE
  8
FRAME
 10
-2.733609049615563
 20
-0.1044943606912083
 30
0.0
  0
VERTEX
  5
1EF
  8
FRAME
 10
-2.74374305678811
 20
-0.0970560905166165
 30
0.0
  0
VERTEX
  5
1F0
  8
FRAME
 10
-2.754576414494157
 20
-0.0904422079858538
 30
0.0
  0
VERTEX
  5
1F1
  8
FRAME
 10
-2.766109122733707
 20
-0.0846527130989204
 30
0.0
  0
VERTEX
  5
1F2
  8
FRAME
 10
-2.778341181506758
 20
-0.0796876058558162
 30
0.0
  0
VERTEX
  5
1F3
  8
FRAME
 10
-2.791272590813311
 20
-0.0755468862565412
 30
0.0
  0
VERTEX
  5
1F4
  8
FRAME
 10
-2.804678748089737
 20
-0.0723180045532161
 30
0.0
  0
VERTEX
  5
1F5
  8
FRAME
 10
-2.818335050772404
 20
-0.070088410997962
 30
0.0
  0
VERTEX
  5
1F6
  8
FRAME
 10
-2.832241498861315
 20
-0.0688581055907786
 30
0.0
  0
VERTEX
  5
1F7
  8
FRAME
 10
-2.846398092356468
 20
-0.0686270883316662
 30
0.0
  0
VERTEX
  5
1F8
  8
FRAME
 10
-2.860804831257865
 20
-0.0693953592206246
 30
0.0
  0
VERTEX
  5
1F9
  8
FRAME
 10
-2.875461715565504
 20
-0.0711629182576538
 30
0.0
  0
VERTEX
  5
1FA
  8
FRAME
 10
-2.890368745279386
 20
-0.0739297654427539
 30
0.0
  0
VERTEX
  5
1FB
  8
FRAME
 10
-2.90552592039951
 20
-0.0776959007759249
 30
0.0
  0
VERTEX
  5
1FC
  8
FRAME
 10
-2.917558446286313
 20
-0.0813155405889218
 30
0.0
  0
VERTEX
  5
1FD
  8
FRAME
 10
-2.929246878117925
 20
-0.0853610623636243
 30
0.0
  0
VERTEX
  5
1FE
  8
FRAME
 10
-2.940591215894347
 20
-0.0898324661000326
 30
0.0
  0
VERTEX
  5
1FF
  8
FRAME
 10
-2.951591459615579
 20
-0.0947297517981466
 30
0.0
  0
VERTEX
  5
200
  8
FRAME
 10
-2.962247609281621
 20
-0.1000529194579663
 30
0.0
  0
VERTEX
  5
201
  8
FRAME
 10
-2.972559664892472
 20
-0.1058019690794917
 30
0.0
  0
VERTEX
  5
202
  8
FRAME
 10
-2.982527626448134
 20
-0.1119769006627228
 30
0.0
  0
VERTEX
  5
203
  8
FRAME
 10
-2.992151493948605
 20
-0.1185777142076597
 30
0.0
  0
VERTEX
  5
204
  8
FRAME
 10
-3.001431267393886
 20
-0.1256044097143022
 30
0.0
  0
VERTEX
  5
205
  8
FRAME
 10
-3.010366946783976
 20
-0.1330569871826505
 30
0.0
  0
VERTEX
  5
206
  8
FRAME
 10
-3.018958532118877
 20
-0.1409354466127044
 30
0.0
  0
VERTEX
  5
207
  8
FRAME
 10
-3.027206023398587
 20
-0.1492397880044641
 30
0.0
  0
VERTEX
  5
208
  8
FRAME
 10
-3.035109420623106
 20
-0.1579700113579295
 30
0.0
  0
VERTEX
  5
209
  8
FRAME
 10
-3.042668723792436
 20
-0.1671261166731005
 30
0.0
  0
VERTEX
  5
20A
  8
FRAME
 10
-3.049883932906575
 20
-0.1767081039499773
 30
0.0
  0
VERTEX
  5
20B
  8
FRAME
 10
-3.056755047965524
 20
-0.1867159731885598
 30
0.0
  0
VERTEX
  5
20C
  8
FRAME
 10
-3.063055920511725
 20
-0.1972939409349794
 30
0.0
  0
VERTEX
  5
20D
  8
FRAME
 10
-3.06856040208762
 20
-0.2085862237353676
 30
0.0
  0
VERTEX
  5
20E
  8
FRAME
 10
-3.073268492693209
 20
-0.2205928215897242
 30
0.0
  0
VERTEX
  5
20F
  8
FRAME
 10
-3.077180192328492
 20
-0.2333137344980494
 30
0.0
  0
VERTEX
  5
210
  8
FRAME
 10
-3.080295500993469
 20
-0.2467489624603431
 30
0.0
  0
VERTEX
  5
211
  8
FRAME
 10
-3.08261441868814
 20
-0.2608985054766053
 30
0.0
  0
VERTEX
  5
212
  8
FRAME
 10
-3.084136945412505
 20
-0.2757623635468361
 30
0.0
  0
VERTEX
  5
213
  8
FRAME
 10
-3.084863081166564
 20
-0.2913405366710354
 30
0.0
  0
VERTEX
  5
214
  8
FRAME
 10
-3.084792825950316
 20
-0.3076330248492033
 30
0.0
  0
VERTEX
  5
215
  8
FRAME
 10
-3.083926179763763
 20
-0.3246398280813396
 30
0.0
  0
VERTEX
  5
216
  8
FRAME
 10
-3.082263142606903
 20
-0.3423609463674445
 30
0.0
  0
VERTEX
  5
217
  8
FRAME
 10
-3.079803714479738
 20
-0.3607963797075179
 30
0.0
  0
VERTEX
  5
218
  8
FRAME
 10
-3.076547895382267
 20
-0.3799461281015599
 30
0.0
  0
VERTEX
  5
219
  8
FRAME
 10
-3.07249568531449
 20
-0.3998101915495703
 30
0.0
  0
VERTEX
  5
21A
  8
FRAME
 10
-3.067647084276406
 20
-0.4203885700515493
 30
0.0
  0
VERTEX
  5
21B
  8
FRAME
 10
-3.062002092268017
 20
-0.4416812636074969
 30
0.0
  0
VERTEX
  5
21C
  8
FRAME
 10
-2.924549200258033
 20
-0.9341092490232005
 30
0.0
  0
SEQEND
  5
69B
  8
FRAME
  0
POLYLINE
  5
63
  8
FRAME
 66
     1
 10
0.0
 20
0.0
 30
0.0
 70
     1
  0
VERTEX
  5
21D
  8
FRAME
 10
-1.022398229965476
 20
-0.4334020032406248
 30
0.0
  0
VERTEX
  5
21E
  8
FRAME
 10
-1.041903394433803
 20
-0.454045599540256
 30
0.0
  0
VERTEX
  5
21F
  8
FRAME
 10
-1.061375808431552
 20
-0.4732968772999377
 30
0.0
  0
VERTEX
  5
220
  8
FRAME
 10
-1.080815471958723
 20
-0.4911558365196699
 30
0.0
  0
VERTEX
  5
221
  8
FRAME
 10
-1.100222385015316
 20
-0.5076224771994523
 30
0.0
  0
VERTEX
  5
222
  8
FRAME
 10
-1.11959654760133
 20
-0.5226967993392851
 30
0.0
  0
VERTEX
  5
223
  8
FRAME
 10
-1.138937959716766
 20
-0.5363788029391684
 30
0.0
  0
VERTEX
  5
224
  8
FRAME
 10
-1.158246621361624
 20
-0.5486684879991021
 30
0.0
  0
VERTEX
  5
225
  8
FRAME
 10
-1.177522532535904
 20
-0.5595658545190861
 30
0.0
  0
VERTEX
  5
226
  8
FRAME
 10
-1.197026821784007
 20
-0.5693120419629518
 30
0.0
  0
VERTEX
  5
227
  8
FRAME
 10
-1.217020617650335
 20
-0.5781481897945304
 30
0.0
  0
VERTEX
  5
228
  8
FRAME
 10
-1.237503920134887
 20
-0.5860742980138218
 30
0.0
  0
VERTEX
  5
229
  8
FRAME
 10
-1.258476729237665
 20
-0.593090366620826
 30
0.0
  0
VERTEX
  5
22A
  8
FRAME
 10
-1.279939044958667
 20
-0.5991963956155433
 30
0.0
  0
VERTEX
  5
22B
  8
FRAME
 10
-1.301890867297893
 20
-0.6043923849979733
 30
0.0
  0
VERTEX
  5
22C
  8
FRAME
 10
-1.324332196255345
 20
-0.6086783347681161
 30
0.0
  0
VERTEX
  5
22D
  8
FRAME
 10
-1.347263031831021
 20
-0.6120542449259719
 30
0.0
  0
VERTEX
  5
22E
  8
FRAME
 10
-1.366153923809237
 20
-0.6141383960169877
 30
0.0
  0
VERTEX
  5
22F
  8
FRAME
 10
-1.384565014320887
 20
-0.615568624652774
 30
0.0
  0
VERTEX
  5
230
  8
FRAME
 10
-1.402496303365968
 20
-0.6163449308333309
 30
0.0
  0
VERTEX
  5
231
  8
FRAME
 10
-1.419947790944482
 20
-0.6164673145586583
 30
0.0
  0
VERTEX
  5
232
  8
FRAME
 10
-1.436919477056429
 20
-0.6159357758287565
 30
0.0
  0
VERTEX
  5
233
  8
FRAME
 10
-1.453411361701809
 20
-0.6147503146436251
 30
0.0
  0
VERTEX
  5
234
  8
FRAME
 10
-1.469423444880621
 20
-0.6129109310032643
 30
0.0
  0
VERTEX
  5
235
  8
FRAME
 10
-1.484955726592866
 20
-0.6104176249076742
 30
0.0
  0
VERTEX
  5
236
  8
FRAME
 10
-1.500008206838543
 20
-0.6072703963568546
 30
0.0
  0
VERTEX
  5
237
  8
FRAME
 10
-1.514580885617653
 20
-0.6034692453508057
 30
0.0
  0
VERTEX
  5
238
  8
FRAME
 10
-1.528673762930196
 20
-0.5990141718895274
 30
0.0
  0
VERTEX
  5
239
  8
FRAME
 10
-1.542286838776171
 20
-0.5939051759730198
 30
0.0
  0
VERTEX
  5
23A
  8
FRAME
 10
-1.555420113155579
 20
-0.5881422576012827
 30
0.0
  0
VERTEX
  5
23B
  8
FRAME
 10
-1.56807358606842
 20
-0.5817254167743162
 30
0.0
  0
VERTEX
  5
23C
  8
FRAME
 10
-1.580247257514693
 20
-0.5746546534921203
 30
0.0
  0
VERTEX
  5
23D
  8
FRAME
 10
-1.591941127494399
 20
-0.566929967754695
 30
0.0
  0
VERTEX
  5
23E
  8
FRAME
 10
-1.603094424119438
 20
-0.5586755784304143
 30
0.0
  0
VERTEX
  5
23F
  8
FRAME
 10
-1.613646375501711
 20
-0.5500157043876523
 30
0.0
  0
VERTEX
  5
240
  8
FRAME
 10
-1.623596981641217
 20
-0.5409503456264093
 30
0.0
  0
VERTEX
  5
241
  8
FRAME
 10
-1.632946242537957
 20
-0.5314795021466849
 30
0.0
  0
VERTEX
  5
242
  8
FRAME
 10
-1.64169415819193
 20
-0.5216031739484793
 30
0.0
  0
VERTEX
  5
243
  8
FRAME
 10
-1.649840728603137
 20
-0.5113213610317924
 30
0.0
  0
VERTEX
  5
244
  8
FRAME
 10
-1.657385953771577
 20
-0.5006340633966243
 30
0.0
  0
VERTEX
  5
245
  8
FRAME
 10
-1.664329833697251
 20
-0.489541281042975
 30
0.0
  0
VERTEX
  5
246
  8
FRAME
 10
-1.670672368380158
 20
-0.4780430139708444
 30
0.0
  0
VERTEX
  5
247
  8
FRAME
 10
-1.676413557820299
 20
-0.4661392621802325
 30
0.0
  0
VERTEX
  5
248
  8
FRAME
 10
-1.681553402017674
 20
-0.4538300256711394
 30
0.0
  0
VERTEX
  5
249
  8
FRAME
 10
-1.686091900972282
 20
-0.4411153044435651
 30
0.0
  0
VERTEX
  5
24A
  8
FRAME
 10
-1.690029054684123
 20
-0.4279950984975095
 30
0.0
  0
VERTEX
  5
24B
  8
FRAME
 10
-1.693364863153199
 20
-0.4144694078329726
 30
0.0
  0
VERTEX
  5
24C
  8
FRAME
 10
-1.696099326379508
 20
-0.4005382324499545
 30
0.0
  0
VERTEX
  5
24D
  8
FRAME
 10
-1.69823244436305
 20
-0.3862015723484551
 30
0.0
  0
VERTEX
  5
24E
  8
FRAME
 10
-1.6998734265174
 20
-0.369271173712985
 30
0.0
  0
VERTEX
  5
24F
  8
FRAME
 10
-1.700497704160951
 20
-0.3525874482407919
 30
0.0
  0
VERTEX
  5
250
  8
FRAME
 10
-1.700105277293703
 20
-0.3361503959318757
 30
0.0
  0
VERTEX
  5
251
  8
FRAME
 10
-1.698696145915655
 20
-0.3199600167862365
 30
0.0
  0
VERTEX
  5
252
  8
FRAME
 10
-1.696270310026807
 20
-0.3040163108038743
 30
0.0
  0
VERTEX
  5
253
  8
FRAME
 10
-1.692827769627159
 20
-0.288319277984789
 30
0.0
  0
VERTEX
  5
254
  8
FRAME
 10
-1.688368524716712
 20
-0.2728689183289806
 30
0.0
  0
VERTEX
  5
255
  8
FRAME
 10
-1.682892575295465
 20
-0.2576652318364492
 30
0.0
  0
VERTEX
  5
256
  8
FRAME
 10
-1.676563730187548
 20
-0.2428954467420802
 30
0.0
  0
VERTEX
  5
257
  8
FRAME
 10
-1.669545798217091
 20
-0.2287467912807588
 30
0.0
  0
VERTEX
  5
258
  8
FRAME
 10
-1.661838779384094
 20
-0.2152192654524852
 30
0.0
  0
VERTEX
  5
259
  8
FRAME
 10
-1.653442673688557
 20
-0.2023128692572592
 30
0.0
  0
VERTEX
  5
25A
  8
FRAME
 10
-1.64435748113048
 20
-0.190027602695081
 30
0.0
  0
VERTEX
  5
25B
  8
FRAME
 10
-1.634583201709862
 20
-0.1783634657659504
 30
0.0
  0
VERTEX
  5
25C
  8
FRAME
 10
-1.624119835426705
 20
-0.1673204584698675
 30
0.0
  0
VERTEX
  5
25D
  8
FRAME
 10
-1.612967382281007
 20
-0.1568985808068323
 30
0.0
  0
VERTEX
  5
25E
  8
FRAME
 10
-1.601239523112346
 20
-0.1470219279123912
 30
0.0
  0
VERTEX
  5
25F
  8
FRAME
 10
-1.589049938760298
 20
-0.1376145949220905
 30
0.0
  0
VERTEX
  5
260
  8
FRAME
 10
-1.576398629224864
 20
-0.1286765818359304
 30
0.0
  0
VERTEX
  5
261
  8
FRAME
 10
-1.563285594506043
 20
-0.1202078886539109
 30
0.0
  0
VERTEX
  5
262
  8
FRAME
 10
-1.549710834603835
 20
-0.1122085153760318
 30
0.0
  0
VERTEX
  5
263
  8
FRAME
 10
-1.53567434951824
 20
-0.1046784620022933
 30
0.0
  0
VERTEX
  5
264
  8
FRAME
 10
-1.521176139249258
 20
-0.0976177285326952
 30
0.0
  0
VERTEX
  5
265
  8
FRAME
 10
-1.50621620379689
 20
-0.0910263149672377
 30
0.0
  0
VERTEX
  5
266
  8
FRAME
 10
-1.494274563097806
 20
-0.0864256077629026
 30
0.0
  0
VERTEX
  5
267
  8
FRAME
 10
-1.480853673943379
 20
-0.0816662301692897
 30
0.0
  0
VERTEX
  5
268
  8
FRAME
 10
-1.449574150268498
 20
-0.07167146381423
 30
0.0
  0
VERTEX
  5
269
  8
FRAME
 10
-1.412377632772248
 20
-0.0610420159020586
 30
0.0
  0
VERTEX
  5
26A
  8
FRAME
 10
-1.369264121454628
 20
-0.0497778864327756
 30
0.0
  0
VERTEX
  5
26B
  8
FRAME
 10
-1.323906242905948
 20
-0.0381476010428905
 30
0.0
  0
VERTEX
  5
26C
  8
FRAME
 10
-1.281725724764422
 20
-0.0266401299237589
 30
0.0
  0
VERTEX
  5
26D
  8
FRAME
 10
-1.242722567030053
 20
-0.0152554730753809
 30
0.0
  0
VERTEX
  5
26E
  8
FRAME
 10
-1.206896769702838
 20
-0.0039936304977565
 30
0.0
  0
VERTEX
  5
26F
  8
FRAME
 10
-1.174248332782779
 20
0.0071453978091144
 30
0.0
  0
VERTEX
  5
270
  8
FRAME
 10
-1.144777256269875
 20
0.0181616118452318
 30
0.0
  0
VERTEX
  5
271
  8
FRAME
 10
-1.118483540164128
 20
0.0290550116105956
 30
0.0
  0
VERTEX
  5
272
  8
FRAME
 10
-1.106528192263937
 20
0.0344556561417449
 30
0.0
  0
VERTEX
  5
273
  8
FRAME
 10
-1.095367184465535
 20
0.0398255971052058
 30
0.0
  0
VERTEX
  5
274
  8
FRAME
 10
-1.099673080980466
 20
0.0810396940084803
 30
0.0
  0
VERTEX
  5
275
  8
FRAME
 10
-1.101334878032101
 20
0.0928207515245486
 30
0.0
  0
VERTEX
  5
276
  8
FRAME
 10
-1.10328915655787
 20
0.1041137846640106
 30
0.0
  0
VERTEX
  5
277
  8
FRAME
 10
-1.105535916557773
 20
0.1149187934268662
 30
0.0
  0
VERTEX
  5
278
  8
FRAME
 10
-1.10807515803181
 20
0.1252357778131156
 30
0.0
  0
VERTEX
  5
279
  8
FRAME
 10
-1.110906880979981
 20
0.1350647378227587
 30
0.0
  0
VERTEX
  5
27A
  8
FRAME
 10
-1.114031085402286
 20
0.1444056734557954
 30
0.0
  0
VERTEX
  5
27B
  8
FRAME
 10
-1.117447771298726
 20
0.1532585847122259
 30
0.0
  0
VERTEX
  5
27C
  8
FRAME
 10
-1.121156938669299
 20
0.16162347159205
 30
0.0
  0
VERTEX
  5
27D
  8
FRAME
 10
-1.125158587514007
 20
0.1695003340952679
 30
0.0
  0
VERTEX
  5
27E
  8
FRAME
 10
-1.129452717832849
 20
0.1768891722218794
 30
0.0
  0
VERTEX
  5
27F
  8
FRAME
 10
-1.134039329625824
 20
0.1837899859718847
 30
0.0
  0
VERTEX
  5
280
  8
FRAME
 10
-1.138918422892935
 20
0.1902027753452836
 30
0.0
  0
VERTEX
  5
281
  8
FRAME
 10
-1.144089997634179
 20
0.1961275403420762
 30
0.0
  0
VERTEX
  5
282
  8
FRAME
 10
-1.149554053849557
 20
0.2015642809622626
 30
0.0
  0
VERTEX
  5
283
  8
FRAME
 10
-1.155310591539069
 20
0.2065129972058426
 30
0.0
  0
VERTEX
  5
284
  8
FRAME
 10
-1.161359610702716
 20
0.2109736890728163
 30
0.0
  0
VERTEX
  5
285
  8
FRAME
 10
-1.169945676205072
 20
0.2164542334464882
 30
0.0
  0
VERTEX
  5
286
  8
FRAME
 10
-1.178936986443225
 20
0.2214603053627495
 30
0.0
  0
VERTEX
  5
287
  8
FRAME
 10
-1.188333541417177
 20
0.2259919048216001
 30
0.0
  0
VERTEX
  5
288
  8
FRAME
 10
-1.198135341126926
 20
0.2300490318230401
 30
0.0
  0
VERTEX
  5
289
  8
FRAME
 10
-1.208342385572474
 20
0.2336316863670695
 30
0.0
  0
VERTEX
  5
28A
  8
FRAME
 10
-1.218954674753819
 20
0.2367398684536883
 30
0.0
  0
VERTEX
  5
28B
  8
FRAME
 10
-1.229972208670962
 20
0.2393735780828965
 30
0.0
  0
VERTEX
  5
28C
  8
FRAME
 10
-1.241394987323903
 20
0.241532815254694
 30
0.0
  0
VERTEX
  5
28D
  8
FRAME
 10
-1.253223010712642
 20
0.2432175799690809
 30
0.0
  0
VERTEX
  5
28E
  8
FRAME
 10
-1.265456278837178
 20
0.2444278722260572
 30
0.0
  0
VERTEX
  5
28F
  8
FRAME
 10
-1.278094791697513
 20
0.2451636920256229
 30
0.0
  0
VERTEX
  5
290
  8
FRAME
 10
-1.291138549293645
 20
0.2454250393677779
 30
0.0
  0
VERTEX
  5
291
  8
FRAME
 10
-1.304587551625576
 20
0.2452119142525224
 30
0.0
  0
VERTEX
  5
292
  8
FRAME
 10
-1.318441798693304
 20
0.2445243166798562
 30
0.0
  0
VERTEX
  5
293
  8
FRAME
 10
-1.33270129049683
 20
0.2433622466497794
 30
0.0
  0
VERTEX
  5
294
  8
FRAME
 10
-1.347366027036154
 20
0.241725704162292
 30
0.0
  0
VERTEX
  5
295
  8
FRAME
 10
-1.361003178708661
 20
0.2398525359891872
 30
0.0
  0
VERTEX
  5
296
  8
FRAME
 10
-1.374147654590635
 20
0.2377325887780565
 30
0.0
  0
VERTEX
  5
297
  8
FRAME
 10
-1.386799454682076
 20
0.2353658625288997
 30
0.0
  0
VERTEX
  5
298
  8
FRAME
 10
-1.398958578982983
 20
0.2327523572417169
 30
0.0
  0
VERTEX
  5
299
  8
FRAME
 10
-1.410625027493356
 20
0.2298920729165081
 30
0.0
  0
VERTEX
  5
29A
  8
FRAME
 10
-1.421798800213196
 20
0.2267850095532733
 30
0.0
  0
VERTEX
  5
29B
  8
FRAME
 10
-1.432479897142503
 20
0.2234311671520124
 30
0.0
  0
VERTEX
  5
29C
  8
FRAME
 10
-1.442668318281276
 20
0.2198305457127256
 30
0.0
  0
VERTEX
  5
29D
  8
FRAME
 10
-1.452364063629515
 20
0.2159831452354127
 30
0.0
  0
VERTEX
  5
29E
  8
FRAME
 10
-1.461567133187221
 20
0.2118889657200739
 30
0.0
  0
VERTEX
  5
29F
  8
FRAME
 10
-1.470277526954394
 20
0.207548007166709
 30
0.0
  0
VERTEX
  5
2A0
  8
FRAME
 10
-1.478495244931033
 20
0.2029602695753181
 30
0.0
  0
VERTEX
  5
2A1
  8
FRAME
 10
-1.486220287117138
 20
0.1981257529459012
 30
0.0
  0
VERTEX
  5
2A2
  8
FRAME
 10
-1.49345265351271
 20
0.1930444572784583
 30
0.0
  0
VERTEX
  5
2A3
  8
FRAME
 10
-1.500192344117749
 20
0.1877163825729893
 30
0.0
  0
VERTEX
  5
2A4
  8
FRAME
 10
-1.506439358932254
 20
0.1821415288294944
 30
0.0
  0
VERTEX
  5
2A5
  8
FRAME
 10
-1.512302932072164
 20
0.1762228374843614
 30
0.0
  0
VERTEX
  5
2A6
  8
FRAME
 10
-1.517892297653417
 20
0.169863249973978
 30
0.0
  0
VERTEX
  5
2A7
  8
FRAME
 10
-1.523207455676014
 20
0.1630627662983443
 30
0.0
  0
VERTEX
  5
2A8
  8
FRAME
 10
-1.528248406139955
 20
0.1558213864574603
 30
0.0
  0
VERTEX
  5
2A9
  8
FRAME
 10
-1.533015149045238
 20
0.148139110451326
 30
0.0
  0
VERTEX
  5
2AA
  8
FRAME
 10
-1.537507684391865
 20
0.1400159382799413
 30
0.0
  0
VERTEX
  5
2AB
  8
FRAME
 10
-1.541726012179836
 20
0.1314518699433063
 30
0.0
  0
VERTEX
  5
2AC
  8
FRAME
 10
-1.54567013240915
 20
0.122446905441421
 30
0.0
  0
VERTEX
  5
2AD
  8
FRAME
 10
-1.549340045079807
 20
0.1130010447742854
 30
0.0
  0
VERTEX
  5
2AE
  8
FRAME
 10
-1.552735750191808
 20
0.1031142879418994
 30
0.0
  0
VERTEX
  5
2AF
  8
FRAME
 10
-1.555857247745152
 20
0.0927866349442631
 30
0.0
  0
VERTEX
  5
2B0
  8
FRAME
 10
-1.558704537739839
 20
0.0820180857813765
 30
0.0
  0
VERTEX
  5
2B1
  8
FRAME
 10
-1.561277620175871
 20
0.0708086404532396
 30
0.0
  0
VERTEX
  5
2B2
  8
FRAME
 10
-1.563576495053245
 20
0.0591582989598524
 30
0.0
  0
VERTEX
  5
2B3
  8
FRAME
 10
-1.565601162371963
 20
0.0470670613012149
 30
0.0
  0
VERTEX
  5
2B4
  8
FRAME
 10
-1.567351622132024
 20
0.034534927477327
 30
0.0
  0
VERTEX
  5
2B5
  8
FRAME
 10
-1.723917849006133
 20
0.0361250192257639
 30
0.0
  0
VERTEX
  5
2B6
  8
FRAME
 10
-1.721285798085384
 20
0.0609513730483878
 30
0.0
  0
VERTEX
  5
2B7
  8
FRAME
 10
-1.717656692936181
 20
0.0846956625837648
 30
0.0
  0
VERTEX
  5
2B8
  8
FRAME
 10
-1.713030533558527
 20
0.1073578878318952
 30
0.0
  0
VERTEX
  5
2B9
  8
FRAME
 10
-1.710343558534029
 20
0.1182832263482428
 30
0.0
  0
VERTEX
  5
2BA
  8
FRAME
 10
-1.707407319952419
 20
0.1289380487927788
 30
0.0
  0
VERTEX
  5
2BB
  8
FRAME
 10
-1.704221817813695
 20
0.1393223551655031
 30
0.0
  0
VERTEX
  5
2BC
  8
FRAME
 10
-1.700787052117859
 20
0.1494361454664157
 30
0.0
  0
VERTEX
  5
2BD
  8
FRAME
 10
-1.697103022864908
 20
0.1592794196955166
 30
0.0
  0
VERTEX
  5
2BE
  8
FRAME
 10
-1.693169730054845
 20
0.1688521778528059
 30
0.0
  0
VERTEX
  5
2BF
  8
FRAME
 10
-1.688987173687669
 20
0.1781544199382834
 30
0.0
  0
VERTEX
  5
2C0
  8
FRAME
 10
-1.684555353763379
 20
0.1871861459519493
 30
0.0
  0
VERTEX
  5
2C1
  8
FRAME
 10
-1.679874270281976
 20
0.1959473558938035
 30
0.0
  0
VERTEX
  5
2C2
  8
FRAME
 10
-1.67494392324346
 20
0.2044380497638459
 30
0.0
  0
VERTEX
  5
2C3
  8
FRAME
 10
-1.669707772205484
 20
0.2127052640152764
 30
0.0
  0
VERTEX
  5
2C4
  8
FRAME
 10
-1.664109276725701
 20
0.2207960351012943
 30
0.0
  0
VERTEX
  5
2C5
  8
FRAME
 10
-1.658148436804111
 20
0.2287103630218996
 30
0.0
  0
VERTEX
  5
2C6
  8
FRAME
 10
-1.651825252440714
 20
0.2364482477770924
 30
0.0
  0
VERTEX
  5
2C7
  8
FRAME
 10
-1.64513972363551
 20
0.2440096893668727
 30
0.0
  0
VERTEX
  5
2C8
  8
FRAME
 10
-1.638091850388499
 20
0.2513946877912404
 30
0.0
  0
VERTEX
  5
2C9
  8
FRAME
 10
-1.630681632699681
 20
0.2586032430501957
 30
0.0
  0
VERTEX
  5
2CA
  8
FRAME
 10
-1.622909070569055
 20
0.2656353551437383
 30
0.0
  0
VERTEX
  5
2CB
  8
FRAME
 10
-1.614774163996623
 20
0.2724910240718684
 30
0.0
  0
VERTEX
  5
2CC
  8
FRAME
 10
-1.606276912982384
 20
0.2791702498345859
 30
0.0
  0
VERTEX
  5
2CD
  8
FRAME
 10
-1.597417317526338
 20
0.285673032431891
 30
0.0
  0
VERTEX
  5
2CE
  8
FRAME
 10
-1.588195377628484
 20
0.2919993718637834
 30
0.0
  0
VERTEX
  5
2CF
  8
FRAME
 10
-1.578611093288824
 20
0.2981492681302633
 30
0.0
  0
VERTEX
  5
2D0
  8
FRAME
 10
-1.568664464507357
 20
0.3041227212313307
 30
0.0
  0
VERTEX
  5
2D1
  8
FRAME
 10
-1.558355491284082
 20
0.3099197311669855
 30
0.0
  0
VERTEX
  5
2D2
  8
FRAME
 10
-1.547684173619001
 20
0.3155402979372277
 30
0.0
  0
VERTEX
  5
2D3
  8
FRAME
 10
-1.536702802863118
 20
0.3209587434783055
 30
0.0
  0
VERTEX
  5
2D4
  8
FRAME
 10
-1.52546367036744
 20
0.3261493897264667
 30
0.0
  0
VERTEX
  5
2D5
  8
FRAME
 10
-1.513966776131965
 20
0.3311122366817112
 30
0.0
  0
VERTEX
  5
2D6
  8
FRAME
 10
-1.502212120156695
 20
0.3358472843440392
 30
0.0
  0
VERTEX
  5
2D7
  8
FRAME
 10
-1.490199702441629
 20
0.3403545327134506
 30
0.0
  0
VERTEX
  5
2D8
  8
FRAME
 10
-1.477929522986768
 20
0.3446339817899454
 30
0.0
  0
VERTEX
  5
2D9
  8
FRAME
 10
-1.452615878857657
 20
0.3525094820641853
 30
0.0
  0
VERTEX
  5
2DA
  8
FRAME
 10
-1.426271187769363
 20
0.3594737851667589
 30
0.0
  0
VERTEX
  5
2DB
  8
FRAME
 10
-1.398895449721887
 20
0.3655268910976661
 30
0.0
  0
VERTEX
  5
2DC
  8
FRAME
 10
-1.370488664715227
 20
0.3706687998569069
 30
0.0
  0
VERTEX
  5
2DD
  8
FRAME
 10
-1.341050832749384
 20
0.3748995114444813
 30
0.0
  0
VERTEX
  5
2DE
  8
FRAME
 10
-1.311957911245003
 20
0.3781219602375681
 30
0.0
  0
VERTEX
  5
2DF
  8
FRAME
 10
-1.284148582360751
 20
0.3802941917520575
 30
0.0
  0
VERTEX
  5
2E0
  8
FRAME
 10
-1.257622846096628
 20
0.3814162059879496
 30
0.0
  0
VERTEX
  5
2E1
  8
FRAME
 10
-1.232380702452634
 20
0.3814880029452442
 30
0.0
  0
VERTEX
  5
2E2
  8
FRAME
 10
-1.208422151428769
 20
0.3805095826239415
 30
0.0
  0
VERTEX
  5
2E3
  8
FRAME
 10
-1.185747193025033
 20
0.3784809450240415
 30
0.0
  0
VERTEX
  5
2E4
  8
FRAME
 10
-1.174891061055714
 20
0.3770727947446175
 30
0.0
  0
VERTEX
  5
2E5
  8
FRAME
 10
-1.164355827241426
 20
0.3754020901455442
 30
0.0
  0
VERTEX
  5
2E6
  8
FRAME
 10
-1.154141491582171
 20
0.3734688312268215
 30
0.0
  0
VERTEX
  5
2E7
  8
FRAME
 10
-1.144248054077948
 20
0.3712730179884496
 30
0.0
  0
VERTEX
  5
2E8
  8
FRAME
 10
-1.125368578880792
 20
0.3663158670962862
 30
0.0
  0
VERTEX
  5
2E9
  8
FRAME
 10
-1.10766210699615
 20
0.3607527760125825
 30
0.0
  0
VERTEX
  5
2EA
  8
FRAME
 10
-1.091128638424023
 20
0.3545837447373387
 30
0.0
  0
VERTEX
  5
2EB
  8
FRAME
 10
-1.07576817316441
 20
0.3478087732705547
 30
0.0
  0
VERTEX
  5
2EC
  8
FRAME
 10
-1.061580711217311
 20
0.3404278616122306
 30
0.0
  0
VERTEX
  5
2ED
  8
FRAME
 10
-1.048566252582727
 20
0.3324410097623663
 30
0.0
  0
VERTEX
  5
2EE
  8
FRAME
 10
-1.036724797260657
 20
0.3238482177209619
 30
0.0
  0
VERTEX
  5
2EF
  8
FRAME
 10
-1.031243945841816
 20
0.3193245941284321
 30
0.0
  0
VERTEX
  5
2F0
  8
FRAME
 10
-1.026056345251102
 20
0.3146494854880173
 30
0.0
  0
VERTEX
  5
2F1
  8
FRAME
 10
-1.016258434655627
 20
0.3047579960808809
 30
0.0
  0
VERTEX
  5
2F2
  8
FRAME
 10
-1.007028603575795
 20
0.2940869325169011
 30
0.0
  0
VERTEX
  5
2F3
  8
FRAME
 10
-0.9983668520116075
 20
0.2826362947960779
 30
0.0
  0
VERTEX
  5
2F4
  8
FRAME
 10
-0.9902731799630641
 20
0.2704060829184113
 30
0.0
  0
VERTEX
  5
2F5
  8
FRAME
 10
-0.9827475874301649
 20
0.2573962968839013
 30
0.0
  0
VERTEX
  5
2F6
  8
FRAME
 10
-0.97579007441291
 20
0.243606936692548
 30
0.0
  0
VERTEX
  5
2F7
  8
FRAME
 10
-0.9694006409112992
 20
0.2290380023443512
 30
0.0
  0
VERTEX
  5
2F8
  8
FRAME
 10
-0.9635792869253326
 20
0.213689493839311
 30
0.0
  0
VERTEX
  5
2F9
  8
FRAME
 10
-0.9603395312152303
 20
0.202853463886954
 30
0.0
  0
VERTEX
  5
2FA
  8
FRAME
 10
-0.9570908538234495
 20
0.1899640358324274
 30
0.0
  0
VERTEX
  5
2FB
  8
FRAME
 10
-0.9538332547499897
 20
0.1750212096757313
 30
0.0
  0
VERTEX
  5
2FC
  8
FRAME
 10
-0.9505667339948511
 20
0.1580249854168656
 30
0.0
  0
VERTEX
  5
2FD
  8
FRAME
 10
-0.9472912915580338
 20
0.1389753630558304
 30
0.0
  0
VERTEX
  5
2FE
  8
FRAME
 10
-0.9440069274395377
 20
0.1178723425926257
 30
0.0
  0
VERTEX
  5
2FF
  8
FRAME
 10
-0.937411434157509
 20
0.0695061073597076
 30
0.0
  0
VERTEX
  5
300
  8
FRAME
 10
-0.9109580875759646
 20
-0.1403860183893211
 30
0.0
  0
VERTEX
  5
301
  8
FRAME
 10
-0.9042022440295259
 20
-0.1927230930196411
 30
0.0
  0
VERTEX
  5
302
  8
FRAME
 10
-0.8977676092068083
 20
-0.2399782261543382
 30
0.0
  0
VERTEX
  5
303
  8
FRAME
 10
-0.8916541831078124
 20
-0.2821514177934125
 30
0.0
  0
VERTEX
  5
304
  8
FRAME
 10
-0.885861965732538
 20
-0.3192426679368638
 30
0.0
  0
VERTEX
  5
305
  8
FRAME
 10
-0.8803909570809851
 20
-0.3512519765846924
 30
0.0
  0
VERTEX
  5
306
  8
FRAME
 10
-0.8752411571531538
 20
-0.3781793437368981
 30
0.0
  0
VERTEX
  5
307
  8
FRAME
 10
-0.8704125659490439
 20
-0.400024769393481
 30
0.0
  0
VERTEX
  5
308
  8
FRAME
 10
-0.8659051834686555
 20
-0.416788253554441
 30
0.0
  0
VERTEX
  5
309
  8
FRAME
 10
-0.8612604184085163
 20
-0.4308968602625307
 30
0.0
  0
VERTEX
  5
30A
  8
FRAME
 10
-0.8560196794651538
 20
-0.4447776535605027
 30
0.0
  0
VERTEX
  5
30B
  8
FRAME
 10
-0.850182966638568
 20
-0.4584306334483569
 30
0.0
  0
VERTEX
  5
30C
  8
FRAME
 10
-0.8437502799287588
 20
-0.4718557999260933
 30
0.0
  0
VERTEX
  5
30D
  8
FRAME
 10
-0.8367216193357265
 20
-0.485053152993712
 30
0.0
  0
VERTEX
  5
30E
  8
FRAME
 10
-0.8290969848594709
 20
-0.4980226926512129
 30
0.0
  0
VERTEX
  5
30F
  8
FRAME
 10
-0.8208763764999921
 20
-0.510764418898596
 30
0.0
  0
VERTEX
  5
310
  8
FRAME
 10
-0.81205979425729
 20
-0.5232783317358614
 30
0.0
  0
VERTEX
  5
311
  8
FRAME
 10
-0.9764752927606957
 20
-0.5440001198914045
 30
0.0
  0
VERTEX
  5
312
  8
FRAME
 10
-0.9838996835121734
 20
-0.5322338918495126
 30
0.0
  0
VERTEX
  5
313
  8
FRAME
 10
-0.9908429246633996
 20
-0.5198795105106334
 30
0.0
  0
VERTEX
  5
314
  8
FRAME
 10
-0.9973050162143744
 20
-0.5069369758747669
 30
0.0
  0
VERTEX
  5
315
  8
FRAME
 10
-1.003285958165098
 20
-0.4934062879419131
 30
0.0
  0
VERTEX
  5
316
  8
FRAME
 10
-1.00878575051557
 20
-0.4792874467120719
 30
0.0
  0
VERTEX
  5
317
  8
FRAME
 10
-1.01380439326579
 20
-0.4645804521852435
 30
0.0
  0
VERTEX
  5
318
  8
FRAME
 10
-1.018341886415759
 20
-0.4492853043614278
 30
0.0
  0
SEQEND
  5
69C
  8
FRAME
  0
POLYLINE
  5
64
  8
FRAME
 66
     1
 10
0.0
 20
0.0
 30
0.0
 70
     1
  0
VERTEX
  5
319
  8
FRAME
 10
-1.079825843348877
 20
-0.0834860267723485
 30
0.0
  0
VERTEX
  5
31A
  8
FRAME
 10
-1.090327931421907
 20
-0.0892102022003186
 30
0.0
  0
VERTEX
  5
31B
  8
FRAME
 10
-1.101509930578348
 20
-0.09493677744782
 30
0.0
  0
VERTEX
  5
31C
  8
FRAME
 10
-1.125913662141463
 20
-0.106397127401417
 30
0.0
  0
VERTEX
  5
31D
  8
FRAME
 10
-1.153037038038221
 20
-0.1178670766331393
 30
0.0
  0
VERTEX
  5
31E
  8
FRAME
 10
-1.182880058268623
 20
-0.1293466251429871
 30
0.0
  0
VERTEX
  5
31F
  8
FRAME
 10
-1.215442722832668
 20
-0.1408357729309602
 30
0.0
  0
VERTEX
  5
320
  8
FRAME
 10
-1.250725031730357
 20
-0.1523345199970586
 30
0.0
  0
VERTEX
  5
321
  8
FRAME
 10
-1.28872698496169
 20
-0.1638428663412825
 30
0.0
  0
VERTEX
  5
322
  8
FRAME
 10
-1.329448582526667
 20
-0.1753608119636318
 30
0.0
  0
VERTEX
  5
323
  8
FRAME
 10
-1.352381366188476
 20
-0.1818603971651794
 30
0.0
  0
VERTEX
  5
324
  8
FRAME
 10
-1.373523941313825
 20
-0.1882454121812055
 30
0.0
  0
VERTEX
  5
325
  8
FRAME
 10
-1.392876307902714
 20
-0.1945158570117103
 30
0.0
  0
VERTEX
  5
326
  8
FRAME
 10
-1.410438465955143
 20
-0.2006717316566937
 30
0.0
  0
VERTEX
  5
327
  8
FRAME
 10
-1.426210415471111
 20
-0.2067130361161556
 30
0.0
  0
VERTEX
  5
328
  8
FRAME
 10
-1.44019215645062
 20
-0.2126397703900962
 30
0.0
  0
VERTEX
  5
329
  8
FRAME
 10
-1.452383688893669
 20
-0.2184519344785154
 30
0.0
  0
VERTEX
  5
32A
  8
FRAME
 10
-1.462785012800258
 20
-0.2241495283814132
 30
0.0
  0
VERTEX
  5
32B
  8
FRAME
 10
-1.471972409420877
 20
-0.2300064702676014
 30
0.0
  0
VERTEX
  5
32C
  8
FRAME
 10
-1.480522160006015
 20
-0.2362966783058917
 30
0.0
  0
VERTEX
  5
32D
  8
FRAME
 10
-1.488434264555673
 20
-0.2430201524962842
 30
0.0
  0
VERTEX
  5
32E
  8
FRAME
 10
-1.495708723069851
 20
-0.2501768928387789
 30
0.0
  0
VERTEX
  5
32F
  8
FRAME
 10
-1.502345535548549
 20
-0.2577668993333757
 30
0.0
  0
VERTEX
  5
330
  8
FRAME
 10
-1.508344701991766
 20
-0.2657901719800747
 30
0.0
  0
VERTEX
  5
331
  8
FRAME
 10
-1.513706222399503
 20
-0.2742467107788759
 30
0.0
  0
VERTEX
  5
332
  8
FRAME
 10
-1.518430096771761
 20
-0.2831365157297791
 30
0.0
  0
VERTEX
  5
333
  8
FRAME
 10
-1.522478887931638
 20
-0.2923160494210778
 30
0.0
  0
VERTEX
  5
334
  8
FRAME
 10
-1.525815158702235
 20
-0.301641774441065
 30
0.0
  0
VERTEX
  5
335
  8
FRAME
 10
-1.528438909083552
 20
-0.3111136907897408
 30
0.0
  0
VERTEX
  5
336
  8
FRAME
 10
-1.53035013907559
 20
-0.3207317984671052
 30
0.0
  0
VERTEX
  5
337
  8
FRAME
 10
-1.531548848678348
 20
-0.3304960974731581
 30
0.0
  0
VERTEX
  5
338
  8
FRAME
 10
-1.532035037891826
 20
-0.3404065878078995
 30
0.0
  0
VERTEX
  5
339
  8
FRAME
 10
-1.531808706716024
 20
-0.3504632694713296
 30
0.0
  0
VERTEX
  5
33A
  8
FRAME
 10
-1.530869855150943
 20
-0.3606661424634481
 30
0.0
  0
VERTEX
  5
33B
  8
FRAME
 10
-1.529702004385004
 20
-0.3684316427778864
 30
0.0
  0
VERTEX
  5
33C
  8
FRAME
 10
-1.528182453080805
 20
-0.3759862342900242
 30
0.0
  0
VERTEX
  5
33D
  8
FRAME
 10
-1.526311201238346
 20
-0.3833299169998616
 30
0.0
  0
VERTEX
  5
33E
  8
FRAME
 10
-1.524088248857626
 20
-0.3904626909073985
 30
0.0
  0
VERTEX
  5
33F
  8
FRAME
 10
-1.521513595938646
 20
-0.3973845560126349
 30
0.0
  0
VERTEX
  5
340
  8
FRAME
 10
-1.518587242481405
 20
-0.4040955123155708
 30
0.0
  0
VERTEX
  5
341
  8
FRAME
 10
-1.515309188485903
 20
-0.4105955598162062
 30
0.0
  0
VERTEX
  5
342
  8
FRAME
 10
-1.51167943395214
 20
-0.4168846985145411
 30
0.0
  0
VERTEX
  5
343
  8
FRAME
 10
-1.507697978880118
 20
-0.4229629284105756
 30
0.0
  0
VERTEX
  5
344
  8
FRAME
 10
-1.503364823269834
 20
-0.4288302495043096
 30
0.0
  0
VERTEX
  5
345
  8
FRAME
 10
-1.49867996712129
 20
-0.4344866617957431
 30
0.0
  0
VERTEX
  5
346
  8
FRAME
 10
-1.493643410434486
 20
-0.4399321652848761
 30
0.0
  0
VERTEX
  5
347
  8
FRAME
 10
-1.488255153209421
 20
-0.4451667599717086
 30
0.0
  0
VERTEX
  5
348
  8
FRAME
 10
-1.482515195446095
 20
-0.4501904458562407
 30
0.0
  0
VERTEX
  5
349
  8
FRAME
 10
-1.476423537144508
 20
-0.4550032229384722
 30
0.0
  0
VERTEX
  5
34A
  8
FRAME
 10
-1.469980178304662
 20
-0.4596050912184033
 30
0.0
  0
VERTEX
  5
34B
  8
FRAME
 10
-1.463209117117
 20
-0.463915783807498
 30
0.0
  0
VERTEX
  5
34C
  8
FRAME
 10
-1.456134351771967
 20
-0.4678550338172202
 30
0.0
  0
VERTEX
  5
34D
  8
FRAME
 10
-1.448755882269565
 20
-0.4714228412475698
 30
0.0
  0
VERTEX
  5
34E
  8
FRAME
 10
-1.441073708609792
 20
-0.4746192060985471
 30
0.0
  0
VERTEX
  5
34F
  8
FRAME
 10
-1.433087830792649
 20
-0.4774441283701519
 30
0.0
  0
VERTEX
  5
350
  8
FRAME
 10
-1.424798248818135
 20
-0.4798976080623844
 30
0.0
  0
VERTEX
  5
351
  8
FRAME
 10
-1.416204962686252
 20
-0.4819796451752443
 30
0.0
  0
VERTEX
  5
352
  8
FRAME
 10
-1.407307972396999
 20
-0.4836902397087319
 30
0.0
  0
VERTEX
  5
353
  8
FRAME
 10
-1.398107277950375
 20
-0.485029391662847
 30
0.0
  0
VERTEX
  5
354
  8
FRAME
 10
-1.388602879346381
 20
-0.4859971010375896
 30
0.0
  0
VERTEX
  5
355
  8
FRAME
 10
-1.378794776585017
 20
-0.4865933678329598
 30
0.0
  0
VERTEX
  5
356
  8
FRAME
 10
-1.368682969666283
 20
-0.4868181920489576
 30
0.0
  0
VERTEX
  5
357
  8
FRAME
 10
-1.358267458590179
 20
-0.4866715736855829
 30
0.0
  0
VERTEX
  5
358
  8
FRAME
 10
-1.347548243356704
 20
-0.4861535127428358
 30
0.0
  0
VERTEX
  5
359
  8
FRAME
 10
-1.336525323965859
 20
-0.4852640092207162
 30
0.0
  0
VERTEX
  5
35A
  8
FRAME
 10
-1.325198700417644
 20
-0.4840030631192243
 30
0.0
  0
VERTEX
  5
35B
  8
FRAME
 10
-1.313927706792464
 20
-0.4824246386046802
 30
0.0
  0
VERTEX
  5
35C
  8
FRAME
 10
-1.302853039539734
 20
-0.4805551442740488
 30
0.0
  0
VERTEX
  5
35D
  8
FRAME
 10
-1.291974698659456
 20
-0.4783945801273299
 30
0.0
  0
VERTEX
  5
35E
  8
FRAME
 10
-1.281292684151628
 20
-0.4759429461645237
 30
0.0
  0
VERTEX
  5
35F
  8
FRAME
 10
-1.270806996016251
 20
-0.4732002423856299
 30
0.0
  0
VERTEX
  5
360
  8
FRAME
 10
-1.260517634253324
 20
-0.4701664687906488
 30
0.0
  0
VERTEX
  5
361
  8
FRAME
 10
-1.250424598862848
 20
-0.4668416253795803
 30
0.0
  0
VERTEX
  5
362
  8
FRAME
 10
-1.240527889844824
 20
-0.4632257121524245
 30
0.0
  0
VERTEX
  5
363
  8
FRAME
 10
-1.230827507199249
 20
-0.4593187291091811
 30
0.0
  0
VERTEX
  5
364
  8
FRAME
 10
-1.221323450926126
 20
-0.4551206762498504
 30
0.0
  0
VERTEX
  5
365
  8
FRAME
 10
-1.212015721025454
 20
-0.4506315535744323
 30
0.0
  0
VERTEX
  5
366
  8
FRAME
 10
-1.202904317497232
 20
-0.4458513610829267
 30
0.0
  0
VERTEX
  5
367
  8
FRAME
 10
-1.193989240341461
 20
-0.4407800987753337
 30
0.0
  0
VERTEX
  5
368
  8
FRAME
 10
-1.185270489558141
 20
-0.4354177666516533
 30
0.0
  0
VERTEX
  5
369
  8
FRAME
 10
-1.176748065147271
 20
-0.4297643647118855
 30
0.0
  0
VERTEX
  5
36A
  8
FRAME
 10
-1.168421967108852
 20
-0.4238198929560304
 30
0.0
  0
VERTEX
  5
36B
  8
FRAME
 10
-1.160355353033314
 20
-0.4176339570553218
 30
0.0
  0
VERTEX
  5
36C
  8
FRAME
 10
-1.152611380511086
 20
-0.4112561626809939
 30
0.0
  0
VERTEX
  5
36D
  8
FRAME
 10
-1.145190049542169
 20
-0.4046865098330467
 30
0.0
  0
VERTEX
  5
36E
  8
FRAME
 10
-1.138091360126561
 20
-0.3979249985114801
 30
0.0
  0
VERTEX
  5
36F
  8
FRAME
 10
-1.131315312264264
 20
-0.3909716287162942
 30
0.0
  0
VERTEX
  5
370
  8
FRAME
 10
-1.124861905955277
 20
-0.3838264004474889
 30
0.0
  0
VERTEX
  5
371
  8
FRAME
 10
-1.1187311411996
 20
-0.3764893137050643
 30
0.0
  0
VERTEX
  5
372
  8
FRAME
 10
-1.112923017997234
 20
-0.3689603684890204
 30
0.0
  0
VERTEX
  5
373
  8
FRAME
 10
-1.107437536348177
 20
-0.361239564799357
 30
0.0
  0
VERTEX
  5
374
  8
FRAME
 10
-1.102274696252431
 20
-0.3533269026360745
 30
0.0
  0
VERTEX
  5
375
  8
FRAME
 10
-1.097434497709995
 20
-0.3452223819991725
 30
0.0
  0
VERTEX
  5
376
  8
FRAME
 10
-1.092916940720869
 20
-0.3369260028886513
 30
0.0
  0
VERTEX
  5
377
  8
FRAME
 10
-1.088722025285054
 20
-0.3284377653045106
 30
0.0
  0
VERTEX
  5
378
  8
FRAME
 10
-1.084849751402549
 20
-0.3197576692467506
 30
0.0
  0
VERTEX
  5
379
  8
FRAME
 10
-1.081300119073354
 20
-0.3108857147153713
 30
0.0
  0
VERTEX
  5
37A
  8
FRAME
 10
-1.078073128297469
 20
-0.3018219017103727
 30
0.0
  0
VERTEX
  5
37B
  8
FRAME
 10
-1.075867369924756
 20
-0.2945682439738434
 30
0.0
  0
VERTEX
  5
37C
  8
FRAME
 10
-1.073909696374584
 20
-0.2869432777658761
 30
0.0
  0
VERTEX
  5
37D
  8
FRAME
 10
-1.072200107646953
 20
-0.2789470030864706
 30
0.0
  0
VERTEX
  5
37E
  8
FRAME
 10
-1.070738603741862
 20
-0.2705794199356271
 30
0.0
  0
VERTEX
  5
37F
  8
FRAME
 10
-1.068559850399303
 20
-0.2527303282196256
 30
0.0
  0
VERTEX
  5
380
  8
FRAME
 10
-1.067373436346907
 20
-0.2333960026178717
 30
0.0
  0
VERTEX
  5
381
  8
FRAME
 10
-1.067179361584674
 20
-0.2125764431303653
 30
0.0
  0
VERTEX
  5
382
  8
FRAME
 10
-1.067977626112604
 20
-0.1902716497571064
 30
0.0
  0
VERTEX
  5
383
  8
FRAME
 10
-1.069768229930697
 20
-0.1664816224980951
 30
0.0
  0
VERTEX
  5
384
  8
FRAME
 10
-1.072551173038953
 20
-0.1412063613533313
 30
0.0
  0
SEQEND
  5
69D
  8
FRAME
  0
POLYLINE
  5
65
  8
FRAME
 66
     1
 10
0.0
 20
0.0
 30
0.0
 70
     1
  0
VERTEX
  5
385
  8
FRAME
 10
0.5039581485268986
 20
-0.1659589870553708
 30
0.0
  0
VERTEX
  5
386
  8
FRAME
 10
0.6594748376398096
 20
-0.1897881581058827
 30
0.0
  0
VERTEX
  5
387
  8
FRAME
 10
0.6555148894389796
 20
-0.2095928085064889
 30
0.0
  0
VERTEX
  5
388
  8
FRAME
 10
0.6509443718291456
 20
-0.228835903450508
 30
0.0
  0
VERTEX
  5
389
  8
FRAME
 10
0.6457632848103074
 20
-0.2475174429379398
 30
0.0
  0
VERTEX
  5
38A
  8
FRAME
 10
0.6399716283824652
 20
-0.2656374269687845
 30
0.0
  0
VERTEX
  5
38B
  8
FRAME
 10
0.6335694025456191
 20
-0.2831958555430419
 30
0.0
  0
VERTEX
  5
38C
  8
FRAME
 10
0.6265566072997688
 20
-0.3001927286607121
 30
0.0
  0
VERTEX
  5
38D
  8
FRAME
 10
0.6189332426449144
 20
-0.3166280463217951
 30
0.0
  0
VERTEX
  5
38E
  8
FRAME
 10
0.6106993085810561
 20
-0.332501808526291
 30
0.0
  0
VERTEX
  5
38F
  8
FRAME
 10
0.6018548051081938
 20
-0.3478140152741995
 30
0.0
  0
VERTEX
  5
390
  8
FRAME
 10
0.5923997322263275
 20
-0.3625646665655209
 30
0.0
  0
VERTEX
  5
391
  8
FRAME
 10
0.582334089935457
 20
-0.3767537624002551
 30
0.0
  0
VERTEX
  5
392
  8
FRAME
 10
0.5716578782355823
 20
-0.3903813027784021
 30
0.0
  0
VERTEX
  5
393
  8
FRAME
 10
0.560371097126704
 20
-0.4034472876999618
 30
0.0
  0
VERTEX
  5
394
  8
FRAME
 10
0.5484737466088214
 20
-0.4159517171649343
 30
0.0
  0
VERTEX
  5
395
  8
FRAME
 10
0.5359658266819347
 20
-0.4278945911733197
 30
0.0
  0
VERTEX
  5
396
  8
FRAME
 10
0.522847337346044
 20
-0.4392759097251178
 30
0.0
  0
VERTEX
  5
397
  8
FRAME
 10
0.5092440888375511
 20
-0.4500158855442689
 30
0.0
  0
VERTEX
  5
398
  8
FRAME
 10
0.4952818913928577
 20
-0.4600347313547128
 30
0.0
  0
VERTEX
  5
399
  8
FRAME
 10
0.4809607450119637
 20
-0.46933244715645
 30
0.0
  0
VERTEX
  5
39A
  8
FRAME
 10
0.4662806496948693
 20
-0.4779090329494802
 30
0.0
  0
VERTEX
  5
39B
  8
FRAME
 10
0.4512416054415743
 20
-0.4857644887338034
 30
0.0
  0
VERTEX
  5
39C
  8
FRAME
 10
0.4358436122520788
 20
-0.4928988145094196
 30
0.0
  0
VERTEX
  5
39D
  8
FRAME
 10
0.4200866701263828
 20
-0.499312010276329
 30
0.0
  0
VERTEX
  5
39E
  8
FRAME
 10
0.4039707790644862
 20
-0.5050040760345312
 30
0.0
  0
VERTEX
  5
39F
  8
FRAME
 10
0.3874959390663891
 20
-0.5099750117840266
 30
0.0
  0
VERTEX
  5
3A0
  8
FRAME
 10
0.3706621501320915
 20
-0.514224817524815
 30
0.0
  0
VERTEX
  5
3A1
  8
FRAME
 10
0.3534694122615934
 20
-0.5177534932568963
 30
0.0
  0
VERTEX
  5
3A2
  8
FRAME
 10
0.3359177254548947
 20
-0.520561038980271
 30
0.0
  0
VERTEX
  5
3A3
  8
FRAME
 10
0.3180070897119956
 20
-0.5226474546949385
 30
0.0
  0
VERTEX
  5
3A4
  8
FRAME
 10
0.299737505032896
 20
-0.524012740400899
 30
0.0
  0
VERTEX
  5
3A5
  8
FRAME
 10
0.2811089714175958
 20
-0.5246568960981526
 30
0.0
  0
VERTEX
  5
3A6
  8
FRAME
 10
0.262121488866095
 20
-0.5245799217866993
 30
0.0
  0
VERTEX
  5
3A7
  8
FRAME
 10
0.2384132331205746
 20
-0.5235479253731109
 30
0.0
  0
VERTEX
  5
3A8
  8
FRAME
 10
0.2153160133584155
 20
-0.5215482990156319
 30
0.0
  0
VERTEX
  5
3A9
  8
FRAME
 10
0.192829829579618
 20
-0.5185810427142622
 30
0.0
  0
VERTEX
  5
3AA
  8
FRAME
 10
0.170954681784182
 20
-0.5146461564690018
 30
0.0
  0
VERTEX
  5
3AB
  8
FRAME
 10
0.1496905699721074
 20
-0.5097436402798506
 30
0.0
  0
VERTEX
  5
3AC
  8
FRAME
 10
0.1290374941433943
 20
-0.5038734941468089
 30
0.0
  0
VERTEX
  5
3AD
  8
FRAME
 10
0.1089954542980427
 20
-0.4970357180698764
 30
0.0
  0
VERTEX
  5
3AE
  8
FRAME
 10
0.0895644504360526
 20
-0.4892303120490533
 30
0.0
  0
VERTEX
  5
3AF
  8
FRAME
 10
0.0707444825574239
 20
-0.4804572760843394
 30
0.0
  0
VERTEX
  5
3B0
  8
FRAME
 10
0.0525355506621568
 20
-0.4707166101757349
 30
0.0
  0
VERTEX
  5
3B1
  8
FRAME
 10
0.0349376547502511
 20
-0.4600083143232397
 30
0.0
  0
VERTEX
  5
3B2
  8
FRAME
 10
0.0179507948217069
 20
-0.4483323885268539
 30
0.0
  0
VERTEX
  5
3B3
  8
FRAME
 10
0.0015749708765241
 20
-0.4356888327865773
 30
0.0
  0
VERTEX
  5
3B4
  8
FRAME
 10
-0.0141898170852971
 20
-0.42207764710241
 30
0.0
  0
VERTEX
  5
3B5
  8
FRAME
 10
-0.0293435690637569
 20
-0.4074988314743521
 30
0.0
  0
VERTEX
  5
3B6
  8
FRAME
 10
-0.0438862850588552
 20
-0.3919523859024036
 30
0.0
  0
VERTEX
  5
3B7
  8
FRAME
 10
-0.0508884303109861
 20
-0.3838335763366089
 30
0.0
  0
VERTEX
  5
3B8
  8
FRAME
 10
-0.0576576680639611
 20
-0.3755074081831188
 30
0.0
  0
VERTEX
  5
3B9
  8
FRAME
 10
-0.0641939983177803
 20
-0.3669738814419333
 30
0.0
  0
VERTEX
  5
3BA
  8
FRAME
 10
-0.0704974210724437
 20
-0.3582329961130523
 30
0.0
  0
VERTEX
  5
3BB
  8
FRAME
 10
-0.0765679363279513
 20
-0.3492847521964759
 30
0.0
  0
VERTEX
  5
3BC
  8
FRAME
 10
-0.082405544084303
 20
-0.340129149692204
 30
0.0
  0
VERTEX
  5
3BD
  8
FRAME
 10
-0.088010244341499
 20
-0.3307661886002368
 30
0.0
  0
VERTEX
  5
3BE
  8
FRAME
 10
-0.0933820370995391
 20
-0.3211958689205741
 30
0.0
  0
VERTEX
  5
3BF
  8
FRAME
 10
-0.0985209223584233
 20
-0.311418190653216
 30
0.0
  0
VERTEX
  5
3C0
  8
FRAME
 10
-0.1034269001181518
 20
-0.3014331537981624
 30
0.0
  0
VERTEX
  5
3C1
  8
FRAME
 10
-0.1125401331401412
 20
-0.280841004324969
 30
0.0
  0
VERTEX
  5
3C2
  8
FRAME
 10
-0.1207217361655073
 20
-0.2594194205009939
 30
0.0
  0
VERTEX
  5
3C3
  8
FRAME
 10
-0.1279717091942501
 20
-0.237168402326237
 30
0.0
  0
VERTEX
  5
3C4
  8
FRAME
 10
-0.1342900522263696
 20
-0.2140879498006985
 30
0.0
  0
VERTEX
  5
3C5
  8
FRAME
 10
-0.1396767652618658
 20
-0.1901780629243782
 30
0.0
  0
VERTEX
  5
3C6
  8
FRAME
 10
-0.1441318483007387
 20
-0.1654387416972762
 30
0.0
  0
VERTEX
  5
3C7
  8
FRAME
 10
-0.1476553013429883
 20
-0.1398699861193924
 30
0.0
  0
VERTEX
  5
3C8
  8
FRAME
 10
-0.1502471243886145
 20
-0.1134717961907269
 30
0.0
  0
VERTEX
  5
3C9
  8
FRAME
 10
-0.1519073174376175
 20
-0.0862441719112798
 30
0.0
  0
VERTEX
  5
3CA
  8
FRAME
 10
-0.1526358804899972
 20
-0.0581871132810508
 30
0.0
  0
VERTEX
  5
3CB
  8
FRAME
 10
-0.1524328135457536
 20
-0.0293006203000402
 30
0.0
  0
VERTEX
  5
3CC
  8
FRAME
 10
-0.1518074689419932
 20
-0.0105064729323966
 30
0.0
  0
VERTEX
  5
3CD
  8
FRAME
 10
-0.1507964553872494
 20
0.0079826748329325
 30
0.0
  0
VERTEX
  5
3CE
  8
FRAME
 10
-0.1493997728815223
 20
0.026166822995947
 30
0.0
  0
VERTEX
  5
3CF
  8
FRAME
 10
-0.1476174214248118
 20
0.0440459715566468
 30
0.0
  0
VERTEX
  5
3D0
  8
FRAME
 10
-0.1454494010171181
 20
0.0616201205150321
 30
0.0
  0
VERTEX
  5
3D1
  8
FRAME
 10
-0.142895711658441
 20
0.0788892698711028
 30
0.0
  0
VERTEX
  5
3D2
  8
FRAME
 10
-0.1399563533487806
 20
0.0958534196248589
 30
0.0
  0
VERTEX
  5
3D3
  8
FRAME
 10
-0.1366313260881369
 20
0.1125125697763004
 30
0.0
  0
VERTEX
  5
3D4
  8
FRAME
 10
-0.1329206298765098
 20
0.1288667203254273
 30
0.0
  0
VERTEX
  5
3D5
  8
FRAME
 10
-0.1288242647138995
 20
0.1449158712722396
 30
0.0
  0
VERTEX
  5
3D6
  8
FRAME
 10
-0.1243422306003058
 20
0.1606600226167374
 30
0.0
  0
VERTEX
  5
3D7
  8
FRAME
 10
-0.1194745275357288
 20
0.1760991743589205
 30
0.0
  0
VERTEX
  5
3D8
  8
FRAME
 10
-0.1142211555201685
 20
0.191233326498789
 30
0.0
  0
VERTEX
  5
3D9
  8
FRAME
 10
-0.1085821145536249
 20
0.2060624790363429
 30
0.0
  0
VERTEX
  5
3DA
  8
FRAME
 10
-0.1025574046360979
 20
0.2205866319715823
 30
0.0
  0
VERTEX
  5
3DB
  8
FRAME
 10
-0.0961470257675877
 20
0.234805785304507
 30
0.0
  0
VERTEX
  5
3DC
  8
FRAME
 10
-0.0893440615872357
 20
0.2486457322419759
 30
0.0
  0
VERTEX
  5
3DD
  8
FRAME
 10
-0.0821415957341839
 20
0.2620322659908475
 30
0.0
  0
VERTEX
  5
3DE
  8
FRAME
 10
-0.074539628208432
 20
0.2749653865511218
 30
0.0
  0
VERTEX
  5
3DF
  8
FRAME
 10
-0.0665381590099802
 20
0.2874450939227988
 30
0.0
  0
VERTEX
  5
3E0
  8
FRAME
 10
-0.0581371881388284
 20
0.2994713881058786
 30
0.0
  0
VERTEX
  5
3E1
  8
FRAME
 10
-0.0493367155949766
 20
0.3110442691003611
 30
0.0
  0
VERTEX
  5
3E2
  8
FRAME
 10
-0.0401367413784249
 20
0.3221637369062464
 30
0.0
  0
VERTEX
  5
3E3
  8
FRAME
 10
-0.0305372654891732
 20
0.3328297915235344
 30
0.0
  0
VERTEX
  5
3E4
  8
FRAME
 10
-0.0205382879272215
 20
0.3430424329522251
 30
0.0
  0
VERTEX
  5
3E5
  8
FRAME
 10
-0.0101398086925698
 20
0.3528016611923187
 30
0.0
  0
VERTEX
  5
3E6
  8
FRAME
 10
0.0006581722147818
 20
0.3621074762438149
 30
0.0
  0
VERTEX
  5
3E7
  8
FRAME
 10
0.0118556547948334
 20
0.3709598781067139
 30
0.0
  0
VERTEX
  5
3E8
  8
FRAME
 10
0.0234526390475849
 20
0.3793588667810156
 30
0.0
  0
VERTEX
  5
3E9
  8
FRAME
 10
0.0354491249730365
 20
0.3873044422667201
 30
0.0
  0
VERTEX
  5
3EA
  8
FRAME
 10
0.047845112571188
 20
0.3947966045638273
 30
0.0
  0
VERTEX
  5
3EB
  8
FRAME
 10
0.0606406018420395
 20
0.4018353536723371
 30
0.0
  0
VERTEX
  5
3EC
  8
FRAME
 10
0.0737013414702596
 20
0.4084237542534058
 30
0.0
  0
VERTEX
  5
3ED
  8
FRAME
 10
0.0868930801405173
 20
0.4145648709681892
 30
0.0
  0
VERTEX
  5
3EE
  8
FRAME
 10
0.1002158178528124
 20
0.4202587038166872
 30
0.0
  0
VERTEX
  5
3EF
  8
FRAME
 10
0.113669554607145
 20
0.4255052527988999
 30
0.0
  0
VERTEX
  5
3F0
  8
FRAME
 10
0.127254290403515
 20
0.4303045179148273
 30
0.0
  0
VERTEX
  5
3F1
  8
FRAME
 10
0.1409700252419224
 20
0.4346564991644694
 30
0.0
  0
VERTEX
  5
3F2
  8
FRAME
 10
0.1548167591223674
 20
0.4385611965478262
 30
0.0
  0
VERTEX
  5
3F3
  8
FRAME
 10
0.1687944920448498
 20
0.4420186100648977
 30
0.0
  0
VERTEX
  5
3F4
  8
FRAME
 10
0.1829032240093696
 20
0.4450287397156839
 30
0.0
  0
VERTEX
  5
3F5
  8
FRAME
 10
0.1971429550159269
 20
0.4475915855001847
 30
0.0
  0
VERTEX
  5
3F6
  8
FRAME
 10
0.2115136850645217
 20
0.4497071474184003
 30
0.0
  0
VERTEX
  5
3F7
  8
FRAME
 10
0.2260154141551539
 20
0.4513754254703306
 30
0.0
  0
VERTEX
  5
3F8
  8
FRAME
 10
0.2406481422878235
 20
0.4525964196559755
 30
0.0
  0
VERTEX
  5
3F9
  8
FRAME
 10
0.2554118694625306
 20
0.4533701299753351
 30
0.0
  0
VERTEX
  5
3FA
  8
FRAME
 10
0.2703065956792752
 20
0.4536965564284094
 30
0.0
  0
VERTEX
  5
3FB
  8
FRAME
 10
0.2853323209380573
 20
0.4535756990151985
 30
0.0
  0
VERTEX
  5
3FC
  8
FRAME
 10
0.3041653796805399
 20
0.4528444200255027
 30
0.0
  0
VERTEX
  5
3FD
  8
FRAME
 10
0.3225509517195857
 20
0.4515206325004911
 30
0.0
  0
VERTEX
  5
3FE
  8
FRAME
 10
0.3404890370551947
 20
0.4496043364401637
 30
0.0
  0
VERTEX
  5
3FF
  8
FRAME
 10
0.357979635687367
 20
0.4470955318445206
 30
0.0
  0
VERTEX
  5
400
  8
FRAME
 10
0.3750227476161025
 20
0.4439942187135615
 30
0.0
  0
VERTEX
  5
401
  8
FRAME
 10
0.3916183728414013
 20
0.4403003970472866
 30
0.0
  0
VERTEX
  5
402
  8
FRAME
 10
0.4077665113632633
 20
0.436014066845696
 30
0.0
  0
VERTEX
  5
403
  8
FRAME
 10
0.4234671631816885
 20
0.4311352281087895
 30
0.0
  0
VERTEX
  5
404
  8
FRAME
 10
0.438720328296677
 20
0.425663880836567
 30
0.0
  0
VERTEX
  5
405
  8
FRAME
 10
0.4535260067082286
 20
0.4196000250290289
 30
0.0
  0
VERTEX
  5
406
  8
FRAME
 10
0.4678841984163435
 20
0.4129436606861749
 30
0.0
  0
VERTEX
  5
407
  8
FRAME
 10
0.4817949034210217
 20
0.4056947878080052
 30
0.0
  0
VERTEX
  5
408
  8
FRAME
 10
0.495258121722263
 20
0.3978534063945195
 30
0.0
  0
VERTEX
  5
409
  8
FRAME
 10
0.5082738533200677
 20
0.3894195164457182
 30
0.0
  0
VERTEX
  5
40A
  8
FRAME
 10
0.5208420982144355
 20
0.3803931179616009
 30
0.0
  0
VERTEX
  5
40B
  8
FRAME
 10
0.5329628564053666
 20
0.3707742109421678
 30
0.0
  0
VERTEX
  5
40C
  8
FRAME
 10
0.5445821505649349
 20
0.3606122454641658
 30
0.0
  0
VERTEX
  5
40D
  8
FRAME
 10
0.5556460033652142
 20
0.3499566716043421
 30
0.0
  0
VERTEX
  5
40E
  8
FRAME
 10
0.5661544148062045
 20
0.3388074893626965
 30
0.0
  0
VERTEX
  5
40F
  8
FRAME
 10
0.5761073848879061
 20
0.3271646987392292
 30
0.0
  0
VERTEX
  5
410
  8
FRAME
 10
0.5855049136103189
 20
0.31502829973394
 30
0.0
  0
VERTEX
  5
411
  8
FRAME
 10
0.5943470009734427
 20
0.3023982923468289
 30
0.0
  0
VERTEX
  5
412
  8
FRAME
 10
0.6026336469772776
 20
0.2892746765778961
 30
0.0
  0
VERTEX
  5
413
  8
FRAME
 10
0.6103648516218236
 20
0.2756574524271415
 30
0.0
  0
VERTEX
  5
414
  8
FRAME
 10
0.6175406149070808
 20
0.2615466198945651
 30
0.0
  0
VERTEX
  5
415
  8
FRAME
 10
0.624160936833049
 20
0.2469421789801668
 30
0.0
  0
VERTEX
  5
416
  8
FRAME
 10
0.6302258173997283
 20
0.2318441296839467
 30
0.0
  0
VERTEX
  5
417
  8
FRAME
 10
0.6357352566071187
 20
0.2162524720059048
 30
0.0
  0
VERTEX
  5
418
  8
FRAME
 10
0.6406892544552203
 20
0.2001672059460411
 30
0.0
  0
VERTEX
  5
419
  8
FRAME
 10
0.6450878109440329
 20
0.1835883315043557
 30
0.0
  0
VERTEX
  5
41A
  8
FRAME
 10
0.6489309260735566
 20
0.1665158486808483
 30
0.0
  0
VERTEX
  5
41B
  8
FRAME
 10
0.6522185998437915
 20
0.1489497574755192
 30
0.0
  0
VERTEX
  5
41C
  8
FRAME
 10
0.4974585520296786
 20
0.1286767248657247
 30
0.0
  0
VERTEX
  5
41D
  8
FRAME
 10
0.4948370454874103
 20
0.140346748003185
 30
0.0
  0
VERTEX
  5
41E
  8
FRAME
 10
0.4919421490640382
 20
0.1516579336915144
 30
0.0
  0
VERTEX
  5
41F
  8
FRAME
 10
0.4887738627595626
 20
0.162610281930713
 30
0.0
  0
VERTEX
  5
420
  8
FRAME
 10
0.4853321865739834
 20
0.1732037927207808
 30
0.0
  0
VERTEX
  5
421
  8
FRAME
 10
0.4816171205073005
 20
0.1834384660617177
 30
0.0
  0
VERTEX
  5
422
  8
FRAME
 10
0.4776286645595142
 20
0.1933143019535237
 30
0.0
  0
VERTEX
  5
423
  8
FRAME
 10
0.4733668187306243
 20
0.2028313003961989
 30
0.0
  0
VERTEX
  5
424
  8
FRAME
 10
0.4688315830206307
 20
0.2119894613897432
 30
0.0
  0
VERTEX
  5
425
  8
FRAME
 10
0.4640229574295335
 20
0.2207887849341567
 30
0.0
  0
VERTEX
  5
426
  8
FRAME
 10
0.4589409419573327
 20
0.2292292710294394
 30
0.0
  0
VERTEX
  5
427
  8
FRAME
 10
0.4535855366040284
 20
0.2373109196755911
 30
0.0
  0
VERTEX
  5
428
  8
FRAME
 10
0.4479567413696205
 20
0.245033730872612
 30
0.0
  0
VERTEX
  5
429
  8
FRAME
 10
0.4420545562541089
 20
0.2523977046205022
 30
0.0
  0
VERTEX
  5
42A
  8
FRAME
 10
0.4358789812574938
 20
0.2594028409192614
 30
0.0
  0
VERTEX
  5
42B
  8
FRAME
 10
0.4294300163797751
 20
0.2660491397688898
 30
0.0
  0
VERTEX
  5
42C
  8
FRAME
 10
0.4227076616209528
 20
0.2723366011693873
 30
0.0
  0
VERTEX
  5
42D
  8
FRAME
 10
0.4157531464969966
 20
0.2782608398066718
 30
0.0
  0
VERTEX
  5
42E
  8
FRAME
 10
0.4086077005238763
 20
0.2838174703666613
 30
0.0
  0
VERTEX
  5
42F
  8
FRAME
 10
0.4012713237015918
 20
0.2890064928493556
 30
0.0
  0
VERTEX
  5
430
  8
FRAME
 10
0.3937440160301432
 20
0.2938279072547548
 30
0.0
  0
VERTEX
  5
431
  8
FRAME
 10
0.3860257775095304
 20
0.2982817135828589
 30
0.0
  0
VERTEX
  5
432
  8
FRAME
 10
0.3781166081397535
 20
0.302367911833668
 30
0.0
  0
VERTEX
  5
433
  8
FRAME
 10
0.3700165079208124
 20
0.3060865020071819
 30
0.0
  0
VERTEX
  5
434
  8
FRAME
 10
0.3617254768527072
 20
0.3094374841034008
 30
0.0
  0
VERTEX
  5
435
  8
FRAME
 10
0.3532435149354378
 20
0.3124208581223245
 30
0.0
  0
VERTEX
  5
436
  8
FRAME
 10
0.3445706221690042
 20
0.3150366240639531
 30
0.0
  0
VERTEX
  5
437
  8
FRAME
 10
0.3357067985534066
 20
0.3172847819282866
 30
0.0
  0
VERTEX
  5
438
  8
FRAME
 10
0.3266520440886448
 20
0.319165331715325
 30
0.0
  0
VERTEX
  5
439
  8
FRAME
 10
0.3174063587747188
 20
0.3206782734250683
 30
0.0
  0
VERTEX
  5
43A
  8
FRAME
 10
0.3079697426116287
 20
0.3218236070575164
 30
0.0
  0
VERTEX
  5
43B
  8
FRAME
 10
0.2983421955993744
 20
0.3226013326126695
 30
0.0
  0
VERTEX
  5
43C
  8
FRAME
 10
0.288523717737956
 20
0.3230114500905275
 30
0.0
  0
VERTEX
  5
43D
  8
FRAME
 10
0.2737105456430216
 20
0.3230137989209647
 30
0.0
  0
VERTEX
  5
43E
  8
FRAME
 10
0.2592331690670198
 20
0.3223368759071068
 30
0.0
  0
VERTEX
  5
43F
  8
FRAME
 10
0.2450915880099506
 20
0.3209806810489541
 30
0.0
  0
VERTEX
  5
440
  8
FRAME
 10
0.2312858024718141
 20
0.3189452143465062
 30
0.0
  0
VERTEX
  5
441
  8
FRAME
 10
0.2178158124526102
 20
0.3162304757997634
 30
0.0
  0
VERTEX
  5
442
  8
FRAME
 10
0.204681617952339
 20
0.3128364654087256
 30
0.0
  0
VERTEX
  5
443
  8
FRAME
 10
0.1918832189710004
 20
0.3087631831733929
 30
0.0
  0
VERTEX
  5
444
  8
FRAME
 10
0.1794206155085945
 20
0.3040106290937651
 30
0.0
  0
VERTEX
  5
445
  8
FRAME
 10
0.1672938075651212
 20
0.2985788031698423
 30
0.0
  0
VERTEX
  5
446
  8
FRAME
 10
0.1555027951405806
 20
0.2924677054016246
 30
0.0
  0
VERTEX
  5
447
  8
FRAME
 10
0.1440475782349726
 20
0.2856773357891119
 30
0.0
  0
VERTEX
  5
448
  8
FRAME
 10
0.1329281568482973
 20
0.2782076943323042
 30
0.0
  0
VERTEX
  5
449
  8
FRAME
 10
0.1221445309805546
 20
0.2700587810312015
 30
0.0
  0
VERTEX
  5
44A
  8
FRAME
 10
0.1116967006317445
 20
0.2612305958858038
 30
0.0
  0
VERTEX
  5
44B
  8
FRAME
 10
0.1015846658018671
 20
0.2517231388961112
 30
0.0
  0
VERTEX
  5
44C
  8
FRAME
 10
0.0918084264909223
 20
0.2415364100621236
 30
0.0
  0
VERTEX
  5
44D
  8
FRAME
 10
0.0824837650102632
 20
0.2306126601652614
 30
0.0
  0
VERTEX
  5
44E
  8
FRAME
 10
0.0737264636712428
 20
0.218894139986945
 30
0.0
  0
VERTEX
  5
44F
  8
FRAME
 10
0.065536522473861
 20
0.2063808495271746
 30
0.0
  0
VERTEX
  5
450
  8
FRAME
 10
0.0579139414181178
 20
0.1930727887859499
 30
0.0
  0
VERTEX
  5
451
  8
FRAME
 10
0.0508587205040133
 20
0.1789699577632712
 30
0.0
  0
VERTEX
  5
452
  8
FRAME
 10
0.0443708597315475
 20
0.1640723564591384
 30
0.0
  0
VERTEX
  5
453
  8
FRAME
 10
0.0384503591007203
 20
0.1483799848735514
 30
0.0
  0
VERTEX
  5
454
  8
FRAME
 10
0.0330972186115317
 20
0.1318928430065103
 30
0.0
  0
VERTEX
  5
455
  8
FRAME
 10
0.0283114382639818
 20
0.114610930858015
 30
0.0
  0
VERTEX
  5
456
  8
FRAME
 10
0.0240930180580706
 20
0.0965342484280657
 30
0.0
  0
VERTEX
  5
457
  8
FRAME
 10
0.020441957993798
 20
0.0776627957166622
 30
0.0
  0
VERTEX
  5
458
  8
FRAME
 10
0.0173582580711641
 20
0.0579965727238046
 30
0.0
  0
VERTEX
  5
459
  8
FRAME
 10
0.0148419182901688
 20
0.0375355794494929
 30
0.0
  0
VERTEX
  5
45A
  8
FRAME
 10
0.0128929386508122
 20
0.016279815893727
 30
0.0
  0
VERTEX
  5
45B
  8
FRAME
 10
0.0115113191530942
 20
-0.005770717943493
 30
0.0
  0
VERTEX
  5
45C
  8
FRAME
 10
0.0106970597970149
 20
-0.0286160220621671
 30
0.0
  0
VERTEX
  5
45D
  8
FRAME
 10
0.0104504027102533
 20
-0.0517928657983076
 30
0.0
  0
VERTEX
  5
45E
  8
FRAME
 10
0.0107866775831026
 20
-0.0741770889355267
 30
0.0
  0
VERTEX
  5
45F
  8
FRAME
 10
0.0117058844155627
 20
-0.0957686914738244
 30
0.0
  0
VERTEX
  5
460
  8
FRAME
 10
0.0132080232076338
 20
-0.1165676734132007
 30
0.0
  0
VERTEX
  5
461
  8
FRAME
 10
0.0152930939593157
 20
-0.1365740347536557
 30
0.0
  0
VERTEX
  5
462
  8
FRAME
 10
0.0179610966706085
 20
-0.1557877754951892
 30
0.0
  0
VERTEX
  5
463
  8
FRAME
 10
0.0212120313415122
 20
-0.1742088956378014
 30
0.0
  0
VERTEX
  5
464
  8
FRAME
 10
0.0250458979720267
 20
-0.1918373951814921
 30
0.0
  0
VERTEX
  5
465
  8
FRAME
 10
0.0294626965621522
 20
-0.2086732741262615
 30
0.0
  0
VERTEX
  5
466
  8
FRAME
 10
0.0344624271118885
 20
-0.2247165324721094
 30
0.0
  0
VERTEX
  5
467
  8
FRAME
 10
0.0400450896212356
 20
-0.239967170219036
 30
0.0
  0
VERTEX
  5
468
  8
FRAME
 10
0.0462106840901937
 20
-0.2544251873670412
 30
0.0
  0
VERTEX
  5
469
  8
FRAME
 10
0.0529592105187626
 20
-0.268090583916125
 30
0.0
  0
VERTEX
  5
46A
  8
FRAME
 10
0.0602906689069425
 20
-0.2809633598662874
 30
0.0
  0
VERTEX
  5
46B
  8
FRAME
 10
0.0682050592547331
 20
-0.2930435152175285
 30
0.0
  0
VERTEX
  5
46C
  8
FRAME
 10
0.0767023815621347
 20
-0.3043310499698481
 30
0.0
  0
VERTEX
  5
46D
  8
FRAME
 10
0.0856709092826415
 20
-0.3148922963578523
 30
0.0
  0
VERTEX
  5
46E
  8
FRAME
 10
0.0949989158697479
 20
-0.3247935866161472
 30
0.0
  0
VERTEX
  5
46F
  8
FRAME
 10
0.1046864013234539
 20
-0.3340349207447326
 30
0.0
  0
VERTEX
  5
470
  8
FRAME
 10
0.1147333656437596
 20
-0.3426162987436087
 30
0.0
  0
VERTEX
  5
471
  8
FRAME
 10
0.1251398088306648
 20
-0.3505377206127753
 30
0.0
  0
VERTEX
  5
472
  8
FRAME
 10
0.1359057308841696
 20
-0.3577991863522326
 30
0.0
  0
VERTEX
  5
473
  8
FRAME
 10
0.1470311318042741
 20
-0.3644006959619804
 30
0.0
  0
VERTEX
  5
474
  8
FRAME
 10
0.1585160115909782
 20
-0.3703422494420189
 30
0.0
  0
VERTEX
  5
475
  8
FRAME
 10
0.1703603702442818
 20
-0.375623846792348
 30
0.0
  0
VERTEX
  5
476
  8
FRAME
 10
0.1825642077641851
 20
-0.3802454880129677
 30
0.0
  0
VERTEX
  5
477
  8
FRAME
 10
0.195127524150688
 20
-0.384207173103878
 30
0.0
  0
VERTEX
  5
478
  8
FRAME
 10
0.2080503194037905
 20
-0.3875089020650789
 30
0.0
  0
VERTEX
  5
479
  8
FRAME
 10
0.2213325935234927
 20
-0.3901506748965704
 30
0.0
  0
VERTEX
  5
47A
  8
FRAME
 10
0.2349743465097944
 20
-0.3921324915983525
 30
0.0
  0
VERTEX
  5
47B
  8
FRAME
 10
0.2489755783626957
 20
-0.3934543521704252
 30
0.0
  0
VERTEX
  5
47C
  8
FRAME
 10
0.2633362890821966
 20
-0.3941162566127886
 30
0.0
  0
VERTEX
  5
47D
  8
FRAME
 10
0.2748973369935342
 20
-0.3941563010231495
 30
0.0
  0
VERTEX
  5
47E
  8
FRAME
 10
0.286227636542746
 20
-0.3937433403752032
 30
0.0
  0
VERTEX
  5
47F
  8
FRAME
 10
0.2973271877298317
 20
-0.3928773746689497
 30
0.0
  0
VERTEX
  5
480
  8
FRAME
 10
0.3081959905547915
 20
-0.3915584039043888
 30
0.0
  0
VERTEX
  5
481
  8
FRAME
 10
0.3188340450176255
 20
-0.3897864280815209
 30
0.0
  0
VERTEX
  5
482
  8
FRAME
 10
0.3292413511183334
 20
-0.3875614472003456
 30
0.0
  0
VERTEX
  5
483
  8
FRAME
 10
0.3394179088569155
 20
-0.3848834612608633
 30
0.0
  0
VERTEX
  5
484
  8
FRAME
 10
0.3493637182333715
 20
-0.3817524702630736
 30
0.0
  0
VERTEX
  5
485
  8
FRAME
 10
0.3590787792477018
 20
-0.3781684742069767
 30
0.0
  0
VERTEX
  5
486
  8
FRAME
 10
0.368563091899906
 20
-0.3741314730925726
 30
0.0
  0
VERTEX
  5
487
  8
FRAME
 10
0.3778166561899843
 20
-0.3696414669198613
 30
0.0
  0
VERTEX
  5
488
  8
FRAME
 10
0.3868394721179367
 20
-0.3646984556888427
 30
0.0
  0
VERTEX
  5
489
  8
FRAME
 10
0.3956315396837632
 20
-0.359302439399517
 30
0.0
  0
VERTEX
  5
48A
  8
FRAME
 10
0.4041928588874637
 20
-0.353453418051884
 30
0.0
  0
VERTEX
  5
48B
  8
FRAME
 10
0.4125234297290383
 20
-0.3471513916459438
 30
0.0
  0
VERTEX
  5
48C
  8
FRAME
 10
0.420623252208487
 20
-0.3403963601816964
 30
0.0
  0
VERTEX
  5
48D
  8
FRAME
 10
0.4284341994269674
 20
-0.3331697760741082
 30
0.0
  0
VERTEX
  5
48E
  8
FRAME
 10
0.4358981444856371
 20
-0.3254530917381457
 30
0.0
  0
VERTEX
  5
48F
  8
FRAME
 10
0.4430150873844963
 20
-0.317246307173809
 30
0.0
  0
VERTEX
  5
490
  8
FRAME
 10
0.4497850281235448
 20
-0.3085494223810979
 30
0.0
  0
VERTEX
  5
491
  8
FRAME
 10
0.4562079667027827
 20
-0.2993624373600127
 30
0.0
  0
VERTEX
  5
492
  8
FRAME
 10
0.46228390312221
 20
-0.289685352110553
 30
0.0
  0
VERTEX
  5
493
  8
FRAME
 10
0.4680128373818267
 20
-0.2795181666327191
 30
0.0
  0
VERTEX
  5
494
  8
FRAME
 10
0.4733947694816327
 20
-0.2688608809265108
 30
0.0
  0
VERTEX
  5
495
  8
FRAME
 10
0.4784296994216282
 20
-0.2577134949919284
 30
0.0
  0
VERTEX
  5
496
  8
FRAME
 10
0.4831176272018129
 20
-0.2460760088289716
 30
0.0
  0
VERTEX
  5
497
  8
FRAME
 10
0.4874585528221871
 20
-0.2339484224376405
 30
0.0
  0
VERTEX
  5
498
  8
FRAME
 10
0.4914524762827507
 20
-0.2213307358179352
 30
0.0
  0
VERTEX
  5
499
  8
FRAME
 10
0.4950993975835036
 20
-0.2082229489698555
 30
0.0
  0
VERTEX
  5
49A
  8
FRAME
 10
0.4983993167244459
 20
-0.1946250618934016
 30
0.0
  0
VERTEX
  5
49B
  8
FRAME
 10
0.5013522337055776
 20
-0.1805370745885733
 30
0.0
  0
SEQEND
  5
69E
  8
FRAME
  0
POLYLINE
  5
66
  8
FRAME
 66
     1
 10
0.0
 20
0.0
 30
0.0
 70
     1
  0
VERTEX
  5
49C
  8
FRAME
 10
1.397323561045405
 20
-0.5946956473283921
 30
0.0
  0
VERTEX
  5
49D
  8
FRAME
 10
1.412965737778597
 20
-0.4580790605034405
 30
0.0
  0
VERTEX
  5
49E
  8
FRAME
 10
1.404992165103413
 20
-0.4669914680199112
 30
0.0
  0
VERTEX
  5
49F
  8
FRAME
 10
1.396901614207883
 20
-0.4755785657988298
 30
0.0
  0
VERTEX
  5
4A0
  8
FRAME
 10
1.388694085092008
 20
-0.4838403538401967
 30
0.0
  0
VERTEX
  5
4A1
  8
FRAME
 10
1.380369577755786
 20
-0.4917768321440116
 30
0.0
  0
VERTEX
  5
4A2
  8
FRAME
 10
1.37192809219922
 20
-0.4993880007102747
 30
0.0
  0
VERTEX
  5
4A3
  8
FRAME
 10
1.363369628422307
 20
-0.5066738595389858
 30
0.0
  0
VERTEX
  5
4A4
  8
FRAME
 10
1.354694186425049
 20
-0.513634408630145
 30
0.0
  0
VERTEX
  5
4A5
  8
FRAME
 10
1.345901766207446
 20
-0.5202696479837523
 30
0.0
  0
VERTEX
  5
4A6
  8
FRAME
 10
1.336992367769496
 20
-0.5265795775998077
 30
0.0
  0
VERTEX
  5
4A7
  8
FRAME
 10
1.327965991111201
 20
-0.5325641974783113
 30
0.0
  0
VERTEX
  5
4A8
  8
FRAME
 10
1.318822636232561
 20
-0.538223507619263
 30
0.0
  0
VERTEX
  5
4A9
  8
FRAME
 10
1.309562303133574
 20
-0.5435575080226627
 30
0.0
  0
VERTEX
  5
4AA
  8
FRAME
 10
1.300184991814243
 20
-0.5485661986885106
 30
0.0
  0
VERTEX
  5
4AB
  8
FRAME
 10
1.290690702274565
 20
-0.5532495796168065
 30
0.0
  0
VERTEX
  5
4AC
  8
FRAME
 10
1.281079434514542
 20
-0.5576076508075507
 30
0.0
  0
VERTEX
  5
4AD
  8
FRAME
 10
1.271351188534173
 20
-0.5616404122607428
 30
0.0
  0
VERTEX
  5
4AE
  8
FRAME
 10
1.261505964333459
 20
-0.5653478639763829
 30
0.0
  0
VERTEX
  5
4AF
  8
FRAME
 10
1.251543761912399
 20
-0.5687300059544713
 30
0.0
  0
VERTEX
  5
4B0
  8
FRAME
 10
1.241464581270994
 20
-0.5717868381950078
 30
0.0
  0
VERTEX
  5
4B1
  8
FRAME
 10
1.231268422409242
 20
-0.5745183606979922
 30
0.0
  0
VERTEX
  5
4B2
  8
FRAME
 10
1.220955285327146
 20
-0.576924573463425
 30
0.0
  0
VERTEX
  5
4B3
  8
FRAME
 10
1.210525170024703
 20
-0.5790054764913056
 30
0.0
  0
VERTEX
  5
4B4
  8
FRAME
 10
1.199978076501915
 20
-0.5807610697816346
 30
0.0
  0
VERTEX
  5
4B5
  8
FRAME
 10
1.189314004758781
 20
-0.5821913533344114
 30
0.0
  0
VERTEX
  5
4B6
  8
FRAME
 10
1.178532954795302
 20
-0.5832963271496365
 30
0.0
  0
VERTEX
  5
4B7
  8
FRAME
 10
1.167634926611477
 20
-0.5840759912273097
 30
0.0
  0
VERTEX
  5
4B8
  8
FRAME
 10
1.156619920207306
 20
-0.5845303455674309
 30
0.0
  0
VERTEX
  5
4B9
  8
FRAME
 10
1.14548793558279
 20
-0.5846593901700002
 30
0.0
  0
VERTEX
  5
4BA
  8
FRAME
 10
1.134238972737928
 20
-0.5844631250350176
 30
0.0
  0
VERTEX
  5
4BB
  8
FRAME
 10
1.12287303167272
 20
-0.5839415501624832
 30
0.0
  0
VERTEX
  5
4BC
  8
FRAME
 10
1.111390112387167
 20
-0.5830946655523969
 30
0.0
  0
VERTEX
  5
4BD
  8
FRAME
 10
1.099790214881269
 20
-0.5819224712047586
 30
0.0
  0
VERTEX
  5
4BE
  8
FRAME
 10
1.079437598606527
 20
-0.5790930938286314
 30
0.0
  0
VERTEX
  5
4BF
  8
FRAME
 10
1.059539875300076
 20
-0.5753176687929422
 30
0.0
  0
VERTEX
  5
4C0
  8
FRAME
 10
1.040097044961916
 20
-0.5705961960976911
 30
0.0
  0
VERTEX
  5
4C1
  8
FRAME
 10
1.021109107592046
 20
-0.564928675742878
 30
0.0
  0
VERTEX
  5
4C2
  8
FRAME
 10
1.002576063190467
 20
-0.5583151077285029
 30
0.0
  0
VERTEX
  5
4C3
  8
FRAME
 10
0.9844979117571783
 20
-0.5507554920545659
 30
0.0
  0
VERTEX
  5
4C4
  8
FRAME
 10
0.9668746532921804
 20
-0.5422498287210669
 30
0.0
  0
VERTEX
  5
4C5
  8
FRAME
 10
0.9497062877954732
 20
-0.5327981177280059
 30
0.0
  0
VERTEX
  5
4C6
  8
FRAME
 10
0.9333690623842947
 20
-0.5226860396125489
 30
0.0
  0
VERTEX
  5
4C7
  8
FRAME
 10
0.918239224175883
 20
-0.5121992749118621
 30
0.0
  0
VERTEX
  5
4C8
  8
FRAME
 10
0.9043167731702381
 20
-0.5013378236259455
 30
0.0
  0
VERTEX
  5
4C9
  8
FRAME
 10
0.89160170936736
 20
-0.490101685754799
 30
0.0
  0
VERTEX
  5
4CA
  8
FRAME
 10
0.8800940327672488
 20
-0.4784908612984226
 30
0.0
  0
VERTEX
  5
4CB
  8
FRAME
 10
0.8697937433699046
 20
-0.4665053502568163
 30
0.0
  0
VERTEX
  5
4CC
  8
FRAME
 10
0.860700841175327
 20
-0.4541451526299801
 30
0.0
  0
VERTEX
  5
4CD
  8
FRAME
 10
0.8566071602790757
 20
-0.4478245463471008
 30
0.0
  0
VERTEX
  5
4CE
  8
FRAME
 10
0.8528153261835163
 20
-0.441410268417914
 30
0.0
  0
VERTEX
  5
4CF
  8
FRAME
 10
0.8458934530222907
 20
-0.4281896119044207
 30
0.0
  0
VERTEX
  5
4D0
  8
FRAME
 10
0.8396914763194685
 20
-0.414372097373303
 30
0.0
  0
VERTEX
  5
4D1
  8
FRAME
 10
0.8342093960750495
 20
-0.3999577248245609
 30
0.0
  0
VERTEX
  5
4D2
  8
FRAME
 10
0.829447212289034
 20
-0.3849464942581943
 30
0.0
  0
VERTEX
  5
4D3
  8
FRAME
 10
0.8254049249614218
 20
-0.3693384056742033
 30
0.0
  0
VERTEX
  5
4D4
  8
FRAME
 10
0.822082534092213
 20
-0.3531334590725878
 30
0.0
  0
VERTEX
  5
4D5
  8
FRAME
 10
0.8194800396814075
 20
-0.3363316544533478
 30
0.0
  0
VERTEX
  5
4D6
  8
FRAME
 10
0.8175974417290054
 20
-0.3189329918164833
 30
0.0
  0
VERTEX
  5
4D7
  8
FRAME
 10
0.816765374822063
 20
-0.3062224496318196
 30
0.0
  0
VERTEX
  5
4D8
  8
FRAME
 10
0.8164286198967977
 20
-0.2918496148912501
 30
0.0
  0
VERTEX
  5
4D9
  8
FRAME
 10
0.8165871769532097
 20
-0.2758144875947747
 30
0.0
  0
VERTEX
  5
4DA
  8
FRAME
 10
0.8172410459912989
 20
-0.2581170677423935
 30
0.0
  0
VERTEX
  5
4DB
  8
FRAME
 10
0.8183902270110651
 20
-0.2387573553341065
 30
0.0
  0
VERTEX
  5
4DC
  8
FRAME
 10
0.8200347200125085
 20
-0.2177353503699136
 30
0.0
  0
VERTEX
  5
4DD
  8
FRAME
 10
0.8221745249956292
 20
-0.1950510528498149
 30
0.0
  0
VERTEX
  5
4DE
  8
FRAME
 10
0.8248096419604269
 20
-0.1707044627738104
 30
0.0
  0
VERTEX
  5
4DF
  8
FRAME
 10
0.8907875412581209
 20
0.4055372944750237
 30
0.0
  0
VERTEX
  5
4E0
  8
FRAME
 10
1.04842206451768
 20
0.3874886290136486
 30
0.0
  0
VERTEX
  5
4E1
  8
FRAME
 10
0.9893628203135136
 20
-0.1283265609856878
 30
0.0
  0
VERTEX
  5
4E2
  8
FRAME
 10
0.9861229477178052
 20
-0.1579550022750769
 30
0.0
  0
VERTEX
  5
4E3
  8
FRAME
 10
0.9834723905697186
 20
-0.1851001378665832
 30
0.0
  0
VERTEX
  5
4E4
  8
FRAME
 10
0.9814111488692538
 20
-0.2097619677602069
 30
0.0
  0
VERTEX
  5
4E5
  8
FRAME
 10
0.979939222616411
 20
-0.2319404919559479
 30
0.0
  0
VERTEX
  5
4E6
  8
FRAME
 10
0.9790566118111899
 20
-0.2516357104538062
 30
0.0
  0
VERTEX
  5
4E7
  8
FRAME
 10
0.9787633164535905
 20
-0.2688476232537818
 30
0.0
  0
VERTEX
  5
4E8
  8
FRAME
 10
0.979059336543613
 20
-0.2835762303558746
 30
0.0
  0
VERTEX
  5
4E9
  8
FRAME
 10
0.9799446720812572
 20
-0.2958215317600847
 30
0.0
  0
VERTEX
  5
4EA
  8
FRAME
 10
0.9810576757467387
 20
-0.3037174108222555
 30
0.0
  0
VERTEX
  5
4EB
  8
FRAME
 10
0.982454559454774
 20
-0.311434383475056
 30
0.0
  0
VERTEX
  5
4EC
  8
FRAME
 10
0.9841353232053627
 20
-0.3189724497184867
 30
0.0
  0
VERTEX
  5
4ED
  8
FRAME
 10
0.9860999669985051
 20
-0.3263316095525474
 30
0.0
  0
VERTEX
  5
4EE
  8
FRAME
 10
0.9883484908342012
 20
-0.3335118629772381
 30
0.0
  0
VERTEX
  5
4EF
  8
FRAME
 10
0.9908808947124509
 20
-0.3405132099925589
 30
0.0
  0
VERTEX
  5
4F0
  8
FRAME
 10
0.9936971786332541
 20
-0.3473356505985097
 30
0.0
  0
VERTEX
  5
4F1
  8
FRAME
 10
0.996797342596611
 20
-0.3539791847950904
 30
0.0
  0
VERTEX
  5
4F2
  8
FRAME
 10
1.000181386602522
 20
-0.3604438125823012
 30
0.0
  0
VERTEX
  5
4F3
  8
FRAME
 10
1.003849310650986
 20
-0.366729533960142
 30
0.0
  0
VERTEX
  5
4F4
  8
FRAME
 10
1.007801114742003
 20
-0.3728363489286129
 30
0.0
  0
VERTEX
  5
4F5
  8
FRAME
 10
1.012036798875575
 20
-0.3787642574877138
 30
0.0
  0
VERTEX
  5
4F6
  8
FRAME
 10
1.0165563630517
 20
-0.3845132596374447
 30
0.0
  0
VERTEX
  5
4F7
  8
FRAME
 10
1.021359807270378
 20
-0.3900833553778056
 30
0.0
  0
VERTEX
  5
4F8
  8
FRAME
 10
1.02644713153161
 20
-0.3954745447087966
 30
0.0
  0
VERTEX
  5
4F9
  8
FRAME
 10
1.031818335835396
 20
-0.4006868276304175
 30
0.0
  0
VERTEX
  5
4FA
  8
FRAME
 10
1.037436286335717
 20
-0.4056812950884555
 30
0.0
  0
VERTEX
  5
4FB
  8
FRAME
 10
1.043263849186557
 20
-0.4104190380286977
 30
0.0
  0
VERTEX
  5
4FC
  8
FRAME
 10
1.049301024387915
 20
-0.414900056451144
 30
0.0
  0
VERTEX
  5
4FD
  8
FRAME
 10
1.05554781193979
 20
-0.4191243503557945
 30
0.0
  0
VERTEX
  5
4FE
  8
FRAME
 10
1.062004211842184
 20
-0.4230919197426492
 30
0.0
  0
VERTEX
  5
4FF
  8
FRAME
 10
1.068670224095095
 20
-0.426802764611708
 30
0.0
  0
VERTEX
  5
500
  8
FRAME
 10
1.075545848698525
 20
-0.4302568849629709
 30
0.0
  0
VERTEX
  5
501
  8
FRAME
 10
1.082631085652472
 20
-0.433454280796438
 30
0.0
  0
VERTEX
  5
502
  8
FRAME
 10
1.089925934956937
 20
-0.4363949521121092
 30
0.0
  0
VERTEX
  5
503
  8
FRAME
 10
1.097430396611921
 20
-0.4390788989099845
 30
0.0
  0
VERTEX
  5
504
  8
FRAME
 10
1.105144470617422
 20
-0.4415061211900641
 30
0.0
  0
VERTEX
  5
505
  8
FRAME
 10
1.113068156973441
 20
-0.4436766189523478
 30
0.0
  0
VERTEX
  5
506
  8
FRAME
 10
1.129544366737034
 20
-0.4472474409235276
 30
0.0
  0
VERTEX
  5
507
  8
FRAME
 10
1.146859025902698
 20
-0.4497913648235241
 30
0.0
  0
VERTEX
  5
508
  8
FRAME
 10
1.164521093309681
 20
-0.451238305020404
 30
0.0
  0
VERTEX
  5
509
  8
FRAME
 10
1.182039527797228
 20
-0.4515181758822344
 30
0.0
  0
VERTEX
  5
50A
  8
FRAME
 10
1.199414329365339
 20
-0.4506309774090152
 30
0.0
  0
VERTEX
  5
50B
  8
FRAME
 10
1.216645498014016
 20
-0.4485767096007465
 30
0.0
  0
VERTEX
  5
50C
  8
FRAME
 10
1.233733033743256
 20
-0.4453553724574282
 30
0.0
  0
VERTEX
  5
50D
  8
FRAME
 10
1.250676936553062
 20
-0.4409669659790603
 30
0.0
  0
VERTEX
  5
50E
  8
FRAME
 10
1.267477206443431
 20
-0.4354114901656428
 30
0.0
  0
VERTEX
  5
50F
  8
FRAME
 10
1.284133843414365
 20
-0.4286889450171759
 30
0.0
  0
VERTEX
  5
510
  8
FRAME
 10
1.292296037247417
 20
-0.4249170237004466
 30
0.0
  0
VERTEX
  5
511
  8
FRAME
 10
1.300197798235354
 20
-0.4209073395662506
 30
0.0
  0
VERTEX
  5
512
  8
FRAME
 10
1.307839126378177
 20
-0.4166598926145878
 30
0.0
  0
VERTEX
  5
513
  8
FRAME
 10
1.315220021675885
 20
-0.4121746828454583
 30
0.0
  0
VERTEX
  5
514
  8
FRAME
 10
1.32234048412848
 20
-0.4074517102588621
 30
0.0
  0
VERTEX
  5
515
  8
FRAME
 10
1.32920051373596
 20
-0.4024909748547991
 30
0.0
  0
VERTEX
  5
516
  8
FRAME
 10
1.335800110498326
 20
-0.3972924766332693
 30
0.0
  0
VERTEX
  5
517
  8
FRAME
 10
1.342139274415578
 20
-0.3918562155942728
 30
0.0
  0
VERTEX
  5
518
  8
FRAME
 10
1.348218005487716
 20
-0.3861821917378095
 30
0.0
  0
VERTEX
  5
519
  8
FRAME
 10
1.354036303714739
 20
-0.3802704050638795
 30
0.0
  0
VERTEX
  5
51A
  8
FRAME
 10
1.359594169096649
 20
-0.3741208555724828
 30
0.0
  0
VERTEX
  5
51B
  8
FRAME
 10
1.364891601633444
 20
-0.3677335432636193
 30
0.0
  0
VERTEX
  5
51C
  8
FRAME
 10
1.369928601325125
 20
-0.3611084681372891
 30
0.0
  0
VERTEX
  5
51D
  8
FRAME
 10
1.374705168171692
 20
-0.3542456301934921
 30
0.0
  0
VERTEX
  5
51E
  8
FRAME
 10
1.379221302173145
 20
-0.3471450294322284
 30
0.0
  0
VERTEX
  5
51F
  8
FRAME
 10
1.383477003329483
 20
-0.3398066658534979
 30
0.0
  0
VERTEX
  5
520
  8
FRAME
 10
1.387526835296035
 20
-0.3321172189914388
 30
0.0
  0
VERTEX
  5
521
  8
FRAME
 10
1.391425361728131
 20
-0.323963368380189
 30
0.0
  0
VERTEX
  5
522
  8
FRAME
 10
1.395172582625769
 20
-0.3153451140197486
 30
0.0
  0
VERTEX
  5
523
  8
FRAME
 10
1.398768497988949
 20
-0.3062624559101176
 30
0.0
  0
VERTEX
  5
524
  8
FRAME
 10
1.405506412111938
 20
-0.2867039284432835
 30
0.0
  0
VERTEX
  5
525
  8
FRAME
 10
1.411639104097098
 20
-0.2652877859796871
 30
0.0
  0
VERTEX
  5
526
  8
FRAME
 10
1.417166573944428
 20
-0.242014028519328
 30
0.0
  0
VERTEX
  5
527
  8
FRAME
 10
1.422088821653928
 20
-0.2168826560622064
 30
0.0
  0
VERTEX
  5
528
  8
FRAME
 10
1.426405847225599
 20
-0.1898936686083223
 30
0.0
  0
VERTEX
  5
529
  8
FRAME
 10
1.43011765065944
 20
-0.1610470661576757
 30
0.0
  0
VERTEX
  5
52A
  8
FRAME
 10
1.487171487590121
 20
0.3372531768128209
 30
0.0
  0
VERTEX
  5
52B
  8
FRAME
 10
1.64480601084968
 20
0.3192045113514457
 30
0.0
  0
VERTEX
  5
52C
  8
FRAME
 10
1.538318884627567
 20
-0.6108391758799554
 30
0.0
  0
SEQEND
  5
69F
  8
FRAME
  0
POLYLINE
  5
67
  8
FRAME
 66
     1
 10
0.0
 20
0.0
 30
0.0
 70
     1
  0
VERTEX
  5
52D
  8
FRAME
 10
1.781309706428244
 20
-0.6566214198940414
 30
0.0
  0
VERTEX
  5
52E
  8
FRAME
 10
1.971603114370157
 20
0.2599532836101941
 30
0.0
  0
VERTEX
  5
52F
  8
FRAME
 10
2.111419594565718
 20
0.2309254756190549
 30
0.0
  0
VERTEX
  5
530
  8
FRAME
 10
2.082570970574524
 20
0.0919720601160586
 30
0.0
  0
VERTEX
  5
531
  8
FRAME
 10
2.100666729392503
 20
0.1125645085986225
 30
0.0
  0
VERTEX
  5
532
  8
FRAME
 10
2.118075104380007
 20
0.1311334029146852
 30
0.0
  0
VERTEX
  5
533
  8
FRAME
 10
2.134796095537038
 20
0.1476787430642466
 30
0.0
  0
VERTEX
  5
534
  8
FRAME
 10
2.150829702863596
 20
0.1622005290473068
 30
0.0
  0
VERTEX
  5
535
  8
FRAME
 10
2.16617592635968
 20
0.1746987608638657
 30
0.0
  0
VERTEX
  5
536
  8
FRAME
 10
2.173591269171294
 20
0.1801890439597073
 30
0.0
  0
VERTEX
  5
537
  8
FRAME
 10
2.18083476602529
 20
0.1851734385139234
 30
0.0
  0
VERTEX
  5
538
  8
FRAME
 10
2.187906416921667
 20
0.1896519445265143
 30
0.0
  0
VERTEX
  5
539
  8
FRAME
 10
2.194806221860426
 20
0.1936245619974799
 30
0.0
  0
VERTEX
  5
53A
  8
FRAME
 10
2.201534180841567
 20
0.1970912909268202
 30
0.0
  0
VERTEX
  5
53B
  8
FRAME
 10
2.208090293865089
 20
0.2000521313145351
 30
0.0
  0
VERTEX
  5
53C
  8
FRAME
 10
2.22107147950567
 20
0.2049530522837808
 30
0.0
  0
VERTEX
  5
53D
  8
FRAME
 10
2.23413427624856
 20
0.2088242307239086
 30
0.0
  0
VERTEX
  5
53E
  8
FRAME
 10
2.24727868409376
 20
0.2116656666349185
 30
0.0
  0
VERTEX
  5
53F
  8
FRAME
 10
2.260504703041269
 20
0.2134773600168106
 30
0.0
  0
VERTEX
  5
540
  8
FRAME
 10
2.273812333091087
 20
0.2142593108695847
 30
0.0
  0
VERTEX
  5
541
  8
FRAME
 10
2.287201574243215
 20
0.2140115191932409
 30
0.0
  0
VERTEX
  5
542
  8
FRAME
 10
2.300672426497653
 20
0.2127339849877792
 30
0.0
  0
VERTEX
  5
543
  8
FRAME
 10
2.3142248898544
 20
0.2104267082531996
 30
0.0
  0
VERTEX
  5
544
  8
FRAME
 10
2.324011768396708
 20
0.2081908523469131
 30
0.0
  0
VERTEX
  5
545
  8
FRAME
 10
2.333737682267771
 20
0.2055597206268093
 30
0.0
  0
VERTEX
  5
546
  8
FRAME
 10
2.343402631467593
 20
0.2025333130928882
 30
0.0
  0
VERTEX
  5
547
  8
FRAME
 10
2.35300661599617
 20
0.1991116297451497
 30
0.0
  0
VERTEX
  5
548
  8
FRAME
 10
2.362549635853505
 20
0.1952946705835939
 30
0.0
  0
VERTEX
  5
549
  8
FRAME
 10
2.372031691039596
 20
0.1910824356082208
 30
0.0
  0
VERTEX
  5
54A
  8
FRAME
 10
2.381452781554445
 20
0.1864749248190304
 30
0.0
  0
VERTEX
  5
54B
  8
FRAME
 10
2.39081290739805
 20
0.1814721382160226
 30
0.0
  0
VERTEX
  5
54C
  8
FRAME
 10
2.400112068570412
 20
0.1760740757991975
 30
0.0
  0
VERTEX
  5
54D
  8
FRAME
 10
2.409350265071529
 20
0.1702807375685552
 30
0.0
  0
VERTEX
  5
54E
  8
FRAME
 10
2.418527496901405
 20
0.1640921235240954
 30
0.0
  0
VERTEX
  5
54F
  8
FRAME
 10
2.427643764060037
 20
0.1575082336658183
 30
0.0
  0
VERTEX
  5
550
  8
FRAME
 10
2.436699066547426
 20
0.150529067993724
 30
0.0
  0
VERTEX
  5
551
  8
FRAME
 10
2.445693404363571
 20
0.1431546265078123
 30
0.0
  0
VERTEX
  5
552
  8
FRAME
 10
2.454626777508474
 20
0.1353849092080832
 30
0.0
  0
VERTEX
  5
553
  8
FRAME
 10
2.463499185982133
 20
0.1272199160945369
 30
0.0
  0
VERTEX
  5
554
  8
FRAME
 10
2.380065447052226
 20
-0.0058024795672414
 30
0.0
  0
VERTEX
  5
555
  8
FRAME
 10
2.3674627333744
 20
0.0050430071373348
 30
0.0
  0
VERTEX
  5
556
  8
FRAME
 10
2.354641639196641
 20
0.0148366337478472
 30
0.0
  0
VERTEX
  5
557
  8
FRAME
 10
2.341602164518949
 20
0.0235784002642958
 30
0.0
  0
VERTEX
  5
558
  8
FRAME
 10
2.328344309341323
 20
0.0312683066866805
 30
0.0
  0
VERTEX
  5
559
  8
FRAME
 10
2.314868073663764
 20
0.0379063530150014
 30
0.0
  0
VERTEX
  5
55A
  8
FRAME
 10
2.301173457486271
 20
0.0434925392492585
 30
0.0
  0
VERTEX
  5
55B
  8
FRAME
 10
2.287260460808846
 20
0.0480268653894517
 30
0.0
  0
VERTEX
  5
55C
  8
FRAME
 10
2.273129083631487
 20
0.0515093314355811
 30
0.0
  0
VERTEX
  5
55D
  8
FRAME
 10
2.260461312921036
 20
0.0536399672381274
 30
0.0
  0
VERTEX
  5
55E
  8
FRAME
 10
2.247918409220359
 20
0.0547459466473797
 30
0.0
  0
VERTEX
  5
55F
  8
FRAME
 10
2.235500372529454
 20
0.0548272696633379
 30
0.0
  0
VERTEX
  5
560
  8
FRAME
 10
2.223207202848322
 20
0.0538839362860022
 30
0.0
  0
VERTEX
  5
561
  8
FRAME
 10
2.211038900176962
 20
0.0519159465153725
 30
0.0
  0
VERTEX
  5
562
  8
FRAME
 10
2.198995464515375
 20
0.0489233003514487
 30
0.0
  0
VERTEX
  5
563
  8
FRAME
 10
2.18707689586356
 20
0.044905997794231
 30
0.0
  0
VERTEX
  5
564
  8
FRAME
 10
2.175283194221518
 20
0.0398640388437193
 30
0.0
  0
VERTEX
  5
565
  8
FRAME
 10
2.163839038376562
 20
0.0338633103364969
 30
0.0
  0
VERTEX
  5
566
  8
FRAME
 10
2.152969107116005
 20
0.0269696991091475
 30
0.0
  0
VERTEX
  5
567
  8
FRAME
 10
2.142673400439846
 20
0.0191832051616711
 30
0.0
  0
VERTEX
  5
568
  8
FRAME
 10
2.132951918348087
 20
0.0105038284940676
 30
0.0
  0
VERTEX
  5
569
  8
FRAME
 10
2.123804660840726
 20
0.000931569106337
 30
0.0
  0
VERTEX
  5
56A
  8
FRAME
 10
2.115231627917765
 20
-0.0095335730015206
 30
0.0
  0
VERTEX
  5
56B
  8
FRAME
 10
2.107232819579202
 20
-0.0208915978295052
 30
0.0
  0
VERTEX
  5
56C
  8
FRAME
 10
2.099808235825038
 20
-0.033142505377617
 30
0.0
  0
VERTEX
  5
56D
  8
FRAME
 10
2.089389000706767
 20
-0.0528389074443502
 30
0.0
  0
VERTEX
  5
56E
  8
FRAME
 10
2.079678097737807
 20
-0.0731887684006001
 30
0.0
  0
VERTEX
  5
56F
  8
FRAME
 10
2.070675526918157
 20
-0.0941920882463666
 30
0.0
  0
VERTEX
  5
570
  8
FRAME
 10
2.062381288247818
 20
-0.1158488669816497
 30
0.0
  0
VERTEX
  5
571
  8
FRAME
 10
2.054795381726789
 20
-0.1381591046064495
 30
0.0
  0
VERTEX
  5
572
  8
FRAME
 10
2.047917807355072
 20
-0.1611228011207659
 30
0.0
  0
VERTEX
  5
573
  8
FRAME
 10
2.041748565132664
 20
-0.184739956524599
 30
0.0
  0
VERTEX
  5
574
  8
FRAME
 10
2.036287655059568
 20
-0.2090105708179487
 30
0.0
  0
VERTEX
  5
575
  8
FRAME
 10
1.936661351089979
 20
-0.6888745398841961
 30
0.0
  0
SEQEND
  5
6A0
  8
FRAME
  0
POLYLINE
  5
68
  8
FRAME
 66
     1
 10
0.0
 20
0.0
 30
0.0
 70
     1
  0
VERTEX
  5
576
  8
FRAME
 10
2.622215397488153
 20
-0.8497179130839685
 30
0.0
  0
VERTEX
  5
577
  8
FRAME
 10
2.53089482025824
 20
0.1476777574048418
 30
0.0
  0
VERTEX
  5
578
  8
FRAME
 10
2.692207436170281
 20
0.1026500858843321
 30
0.0
  0
VERTEX
  5
579
  8
FRAME
 10
2.735058369543446
 20
-0.4913558763616394
 30
0.0
  0
VERTEX
  5
57A
  8
FRAME
 10
2.738123381355758
 20
-0.539799995170773
 30
0.0
  0
VERTEX
  5
57B
  8
FRAME
 10
2.740314645097257
 20
-0.5889153869392313
 30
0.0
  0
VERTEX
  5
57C
  8
FRAME
 10
2.741632160767942
 20
-0.638702051667014
 30
0.0
  0
VERTEX
  5
57D
  8
FRAME
 10
2.742075928367814
 20
-0.6891599893541211
 30
0.0
  0
VERTEX
  5
57E
  8
FRAME
 10
2.763729381674037
 20
-0.65482253272811
 30
0.0
  0
VERTEX
  5
57F
  8
FRAME
 10
2.788406440594752
 20
-0.6174396134822833
 30
0.0
  0
VERTEX
  5
580
  8
FRAME
 10
2.816107105129958
 20
-0.5770112316166409
 30
0.0
  0
VERTEX
  5
581
  8
FRAME
 10
2.846831375279654
 20
-0.533537387131183
 30
0.0
  0
VERTEX
  5
582
  8
FRAME
 10
3.200766683177191
 20
-0.0393055732776956
 30
0.0
  0
VERTEX
  5
583
  8
FRAME
 10
3.357834230249442
 20
-0.0831483060739813
 30
0.0
  0
VERTEX
  5
584
  8
FRAME
 10
2.764849710505116
 20
-0.8895318542178928
 30
0.0
  0
SEQEND
  5
6A1
  8
FRAME
  0
POLYLINE
  5
69
  8
FRAME
 66
     1
 10
0.0
 20
0.0
 30
0.0
 70
     1
  0
VERTEX
  5
585
  8
FRAME
 10
3.94512341658736
 20
-0.9801349319970434
 30
0.0
  0
VERTEX
  5
586
  8
FRAME
 10
4.090904548662801
 20
-1.05784947314343
 30
0.0
  0
VERTEX
  5
587
  8
FRAME
 10
4.079787999341975
 20
-1.072549488687468
 30
0.0
  0
VERTEX
  5
588
  8
FRAME
 10
4.068369567713098
 20
-1.086595023732826
 30
0.0
  0
VERTEX
  5
589
  8
FRAME
 10
4.056649253776169
 20
-1.099986078279503
 30
0.0
  0
VERTEX
  5
58A
  8
FRAME
 10
4.044627057531189
 20
-1.1127226523275
 30
0.0
  0
VERTEX
  5
58B
  8
FRAME
 10
4.032302978978158
 20
-1.124804745876817
 30
0.0
  0
VERTEX
  5
58C
  8
FRAME
 10
4.019677018117075
 20
-1.136232358927453
 30
0.0
  0
VERTEX
  5
58D
  8
FRAME
 10
4.006749174947941
 20
-1.147005491479409
 30
0.0
  0
VERTEX
  5
58E
  8
FRAME
 10
3.993519449470755
 20
-1.157124143532684
 30
0.0
  0
VERTEX
  5
58F
  8
FRAME
 10
3.979987841685519
 20
-1.166588315087279
 30
0.0
  0
VERTEX
  5
590
  8
FRAME
 10
3.96615435159223
 20
-1.175398006143194
 30
0.0
  0
VERTEX
  5
591
  8
FRAME
 10
3.95201897919089
 20
-1.183553216700428
 30
0.0
  0
VERTEX
  5
592
  8
FRAME
 10
3.9375817244815
 20
-1.191053946758982
 30
0.0
  0
VERTEX
  5
593
  8
FRAME
 10
3.922842587464058
 20
-1.197900196318855
 30
0.0
  0
VERTEX
  5
594
  8
FRAME
 10
3.907801568138564
 20
-1.204091965380048
 30
0.0
  0
VERTEX
  5
595
  8
FRAME
 10
3.892458666505019
 20
-1.209629253942561
 30
0.0
  0
VERTEX
  5
596
  8
FRAME
 10
3.876813882563423
 20
-1.214512062006393
 30
0.0
  0
VERTEX
  5
597
  8
FRAME
 10
3.860917133738327
 20
-1.218696858779989
 30
0.0
  0
VERTEX
  5
598
  8
FRAME
 10
3.844818337454285
 20
-1.222140113471793
 30
0.0
  0
VERTEX
  5
599
  8
FRAME
 10
3.828517493711296
 20
-1.224841826081804
 30
0.0
  0
VERTEX
  5
59A
  8
FRAME
 10
3.812014602509361
 20
-1.226801996610023
 30
0.0
  0
VERTEX
  5
59B
  8
FRAME
 10
3.79530966384848
 20
-1.228020625056449
 30
0.0
  0
VERTEX
  5
59C
  8
FRAME
 10
3.778402677728651
 20
-1.228497711421083
 30
0.0
  0
VERTEX
  5
59D
  8
FRAME
 10
3.761293644149876
 20
-1.228233255703925
 30
0.0
  0
VERTEX
  5
59E
  8
FRAME
 10
3.743982563112154
 20
-1.227227257904974
 30
0.0
  0
VERTEX
  5
59F
  8
FRAME
 10
3.726469434615487
 20
-1.225479718024232
 30
0.0
  0
VERTEX
  5
5A0
  8
FRAME
 10
3.708754258659871
 20
-1.222990636061696
 30
0.0
  0
VERTEX
  5
5A1
  8
FRAME
 10
3.690837035245309
 20
-1.219760012017369
 30
0.0
  0
VERTEX
  5
5A2
  8
FRAME
 10
3.672717764371801
 20
-1.215787845891249
 30
0.0
  0
VERTEX
  5
5A3
  8
FRAME
 10
3.654396446039347
 20
-1.211074137683336
 30
0.0
  0
VERTEX
  5
5A4
  8
FRAME
 10
3.635873080247945
 20
-1.205618887393632
 30
0.0
  0
VERTEX
  5
5A5
  8
FRAME
 10
3.617147666997598
 20
-1.199422095022135
 30
0.0
  0
VERTEX
  5
5A6
  8
FRAME
 10
3.598220206288303
 20
-1.192483760568845
 30
0.0
  0
VERTEX
  5
5A7
  8
FRAME
 10
3.574741950445618
 20
-1.182936133980767
 30
0.0
  0
VERTEX
  5
5A8
  8
FRAME
 10
3.552238392368729
 20
-1.172704298326211
 30
0.0
  0
VERTEX
  5
5A9
  8
FRAME
 10
3.530709532057635
 20
-1.161788253605178
 30
0.0
  0
VERTEX
  5
5AA
  8
FRAME
 10
3.510155369512339
 20
-1.150187999817666
 30
0.0
  0
VERTEX
  5
5AB
  8
FRAME
 10
3.490575904732838
 20
-1.137903536963677
 30
0.0
  0
VERTEX
  5
5AC
  8
FRAME
 10
3.471971137719134
 20
-1.12493486504321
 30
0.0
  0
VERTEX
  5
5AD
  8
FRAME
 10
3.454341068471225
 20
-1.111281984056265
 30
0.0
  0
VERTEX
  5
5AE
  8
FRAME
 10
3.437685696989114
 20
-1.096944894002843
 30
0.0
  0
VERTEX
  5
5AF
  8
FRAME
 10
3.422005023272798
 20
-1.081923594882942
 30
0.0
  0
VERTEX
  5
5B0
  8
FRAME
 10
3.407299047322279
 20
-1.066218086696564
 30
0.0
  0
VERTEX
  5
5B1
  8
FRAME
 10
3.393567769137555
 20
-1.049828369443708
 30
0.0
  0
VERTEX
  5
5B2
  8
FRAME
 10
3.380811188718628
 20
-1.032754443124374
 30
0.0
  0
VERTEX
  5
5B3
  8
FRAME
 10
3.369029306065497
 20
-1.014996307738562
 30
0.0
  0
VERTEX
  5
5B4
  8
FRAME
 10
3.358222121178162
 20
-0.9965539632862731
 30
0.0
  0
VERTEX
  5
5B5
  8
FRAME
 10
3.348389634056623
 20
-0.9774274097675059
 30
0.0
  0
VERTEX
  5
5B6
  8
FRAME
 10
3.339531844700881
 20
-0.9576166471822608
 30
0.0
  0
VERTEX
  5
5B7
  8
FRAME
 10
3.335491961871996
 20
-0.9474895338488329
 30
0.0
  0
VERTEX
  5
5B8
  8
FRAME
 10
3.331742753858184
 20
-0.9372610609670334
 30
0.0
  0
VERTEX
  5
5B9
  8
FRAME
 10
3.328284220659445
 20
-0.926931228536862
 30
0.0
  0
VERTEX
  5
5BA
  8
FRAME
 10
3.32511636227578
 20
-0.916500036558319
 30
0.0
  0
VERTEX
  5
5BB
  8
FRAME
 10
3.322239178707189
 20
-0.9059674850314041
 30
0.0
  0
VERTEX
  5
5BC
  8
FRAME
 10
3.319652669953672
 20
-0.8953335739561177
 30
0.0
  0
VERTEX
  5
5BD
  8
FRAME
 10
3.317356836015227
 20
-0.8845983033324594
 30
0.0
  0
VERTEX
  5
5BE
  8
FRAME
 10
3.315351676891856
 20
-0.8737616731604294
 30
0.0
  0
VERTEX
  5
5BF
  8
FRAME
 10
3.313637192583559
 20
-0.8628236834400276
 30
0.0
  0
VERTEX
  5
5C0
  8
FRAME
 10
3.312213383090335
 20
-0.8517843341712542
 30
0.0
  0
VERTEX
  5
5C1
  8
FRAME
 10
3.310237788549108
 20
-0.8294015569885922
 30
0.0
  0
VERTEX
  5
5C2
  8
FRAME
 10
3.309424893268175
 20
-0.806613341612443
 30
0.0
  0
VERTEX
  5
5C3
  8
FRAME
 10
3.309774697247535
 20
-0.783419688042807
 30
0.0
  0
VERTEX
  5
5C4
  8
FRAME
 10
3.31128720048719
 20
-0.759820596279684
 30
0.0
  0
VERTEX
  5
5C5
  8
FRAME
 10
3.313962402987139
 20
-0.7358160663230741
 30
0.0
  0
VERTEX
  5
5C6
  8
FRAME
 10
3.317800304747382
 20
-0.7114060981729772
 30
0.0
  0
VERTEX
  5
5C7
  8
FRAME
 10
3.322800905767918
 20
-0.6865906918293934
 30
0.0
  0
VERTEX
  5
5C8
  8
FRAME
 10
3.32896420604875
 20
-0.6613698472923226
 30
0.0
  0
VERTEX
  5
5C9
  8
FRAME
 10
3.336290205589874
 20
-0.6357435645617648
 30
0.0
  0
VERTEX
  5
5CA
  8
FRAME
 10
3.344778904391293
 20
-0.6097118436377202
 30
0.0
  0
VERTEX
  5
5CB
  8
FRAME
 10
3.354430302453006
 20
-0.5832746845201886
 30
0.0
  0
VERTEX
  5
5CC
  8
FRAME
 10
3.365314040106956
 20
-0.5562651899499143
 30
0.0
  0
VERTEX
  5
5CD
  8
FRAME
 10
3.37678860147484
 20
-0.5303678827751973
 30
0.0
  0
VERTEX
  5
5CE
  8
FRAME
 10
3.38885398655666
 20
-0.5055827629960377
 30
0.0
  0
VERTEX
  5
5CF
  8
FRAME
 10
3.401510195352415
 20
-0.4819098306124355
 30
0.0
  0
VERTEX
  5
5D0
  8
FRAME
 10
3.414757227862105
 20
-0.4593490856243906
 30
0.0
  0
VERTEX
  5
5D1
  8
FRAME
 10
3.42859508408573
 20
-0.437900528031903
 30
0.0
  0
VERTEX
  5
5D2
  8
FRAME
 10
3.44302376402329
 20
-0.4175641578349728
 30
0.0
  0
VERTEX
  5
5D3
  8
FRAME
 10
3.458043267674785
 20
-0.3983399750336
 30
0.0
  0
VERTEX
  5
5D4
  8
FRAME
 10
3.473653595040215
 20
-0.3802279796277845
 30
0.0
  0
VERTEX
  5
5D5
  8
FRAME
 10
3.489854746119581
 20
-0.3632281716175263
 30
0.0
  0
VERTEX
  5
5D6
  8
FRAME
 10
3.498176880551989
 20
-0.3551453378857312
 30
0.0
  0
VERTEX
  5
5D7
  8
FRAME
 10
3.506646720912881
 20
-0.3473405510028255
 30
0.0
  0
VERTEX
  5
5D8
  8
FRAME
 10
3.515264267202256
 20
-0.3398138109688091
 30
0.0
  0
VERTEX
  5
5D9
  8
FRAME
 10
3.524029519420116
 20
-0.332565117783682
 30
0.0
  0
VERTEX
  5
5DA
  8
FRAME
 10
3.532942477566459
 20
-0.3255944714474443
 30
0.0
  0
VERTEX
  5
5DB
  8
FRAME
 10
3.542003141641286
 20
-0.3189018719600959
 30
0.0
  0
VERTEX
  5
5DC
  8
FRAME
 10
3.551211511644597
 20
-0.3124873193216369
 30
0.0
  0
VERTEX
  5
5DD
  8
FRAME
 10
3.560567587576391
 20
-0.3063508135320672
 30
0.0
  0
VERTEX
  5
5DE
  8
FRAME
 10
3.57007136943667
 20
-0.3004923545913868
 30
0.0
  0
VERTEX
  5
5DF
  8
FRAME
 10
3.579722857225432
 20
-0.2949119424995958
 30
0.0
  0
VERTEX
  5
5E0
  8
FRAME
 10
3.589522050942678
 20
-0.2896095772566942
 30
0.0
  0
VERTEX
  5
5E1
  8
FRAME
 10
3.599468950588407
 20
-0.2845852588626818
 30
0.0
  0
VERTEX
  5
5E2
  8
FRAME
 10
3.619591298394641
 20
-0.2753916220227797
 30
0.0
  0
VERTEX
  5
5E3
  8
FRAME
 10
3.639875331373455
 20
-0.2673518913813441
 30
0.0
  0
VERTEX
  5
5E4
  8
FRAME
 10
3.66032104952485
 20
-0.2604660669383749
 30
0.0
  0
VERTEX
  5
5E5
  8
FRAME
 10
3.680928452848826
 20
-0.2547341486938723
 30
0.0
  0
VERTEX
  5
5E6
  8
FRAME
 10
3.701697541345383
 20
-0.2501561366478363
 30
0.0
  0
VERTEX
  5
5E7
  8
FRAME
 10
3.722628315014521
 20
-0.2467320308002666
 30
0.0
  0
VERTEX
  5
5E8
  8
FRAME
 10
3.74372077385624
 20
-0.2444618311511636
 30
0.0
  0
VERTEX
  5
5E9
  8
FRAME
 10
3.76497491787054
 20
-0.243345537700527
 30
0.0
  0
VERTEX
  5
5EA
  8
FRAME
 10
3.786390747057421
 20
-0.243383150448357
 30
0.0
  0
VERTEX
  5
5EB
  8
FRAME
 10
3.807968261416883
 20
-0.2445746693946534
 30
0.0
  0
VERTEX
  5
5EC
  8
FRAME
 10
3.829707460948925
 20
-0.2469200945394164
 30
0.0
  0
VERTEX
  5
5ED
  8
FRAME
 10
3.851608345653548
 20
-0.2504194258826459
 30
0.0
  0
VERTEX
  5
5EE
  8
FRAME
 10
3.873670915530752
 20
-0.2550726634243419
 30
0.0
  0
VERTEX
  5
5EF
  8
FRAME
 10
3.895895170580538
 20
-0.2608798071645044
 30
0.0
  0
VERTEX
  5
5F0
  8
FRAME
 10
3.918281110802904
 20
-0.2678408571031334
 30
0.0
  0
VERTEX
  5
5F1
  8
FRAME
 10
3.940828736197851
 20
-0.2759558132402289
 30
0.0
  0
VERTEX
  5
5F2
  8
FRAME
 10
3.96230747063227
 20
-0.2847409286225673
 30
0.0
  0
VERTEX
  5
5F3
  8
FRAME
 10
3.98292673139004
 20
-0.2942655777937824
 30
0.0
  0
VERTEX
  5
5F4
  8
FRAME
 10
4.002686518471162
 20
-0.3045297607538742
 30
0.0
  0
VERTEX
  5
5F5
  8
FRAME
 10
4.021586831875634
 20
-0.3155334775028426
 30
0.0
  0
VERTEX
  5
5F6
  8
FRAME
 10
4.039627671603458
 20
-0.3272767280406876
 30
0.0
  0
VERTEX
  5
5F7
  8
FRAME
 10
4.056809037654632
 20
-0.3397595123674093
 30
0.0
  0
VERTEX
  5
5F8
  8
FRAME
 10
4.073130930029158
 20
-0.3529818304830077
 30
0.0
  0
VERTEX
  5
5F9
  8
FRAME
 10
4.088593348727034
 20
-0.3669436823874827
 30
0.0
  0
VERTEX
  5
5FA
  8
FRAME
 10
4.103196293748262
 20
-0.3816450680808343
 30
0.0
  0
VERTEX
  5
5FB
  8
FRAME
 10
4.116939765092841
 20
-0.3970859875630626
 30
0.0
  0
VERTEX
  5
5FC
  8
FRAME
 10
4.129823762760772
 20
-0.4132664408341675
 30
0.0
  0
VERTEX
  5
5FD
  8
FRAME
 10
4.141848286752053
 20
-0.4301864278941491
 30
0.0
  0
VERTEX
  5
5FE
  8
FRAME
 10
4.153013337066685
 20
-0.4478459487430073
 30
0.0
  0
VERTEX
  5
5FF
  8
FRAME
 10
4.163318913704668
 20
-0.4662450033807423
 30
0.0
  0
VERTEX
  5
600
  8
FRAME
 10
4.172765016666002
 20
-0.4853835918073537
 30
0.0
  0
VERTEX
  5
601
  8
FRAME
 10
4.181351645950687
 20
-0.5052617140228419
 30
0.0
  0
VERTEX
  5
602
  8
FRAME
 10
4.185285188464089
 20
-0.5154388102637031
 30
0.0
  0
VERTEX
  5
603
  8
FRAME
 10
4.188928923557936
 20
-0.5257222098763596
 30
0.0
  0
VERTEX
  5
604
  8
FRAME
 10
4.192282851232226
 20
-0.5361119128608118
 30
0.0
  0
VERTEX
  5
605
  8
FRAME
 10
4.195346971486958
 20
-0.5466079192170596
 30
0.0
  0
VERTEX
  5
606
  8
FRAME
 10
4.198121284322134
 20
-0.5572102289451029
 30
0.0
  0
VERTEX
  5
607
  8
FRAME
 10
4.200605789737756
 20
-0.5679188420449417
 30
0.0
  0
VERTEX
  5
608
  8
FRAME
 10
4.202800487733819
 20
-0.5787337585165763
 30
0.0
  0
VERTEX
  5
609
  8
FRAME
 10
4.204705378310326
 20
-0.5896549783600062
 30
0.0
  0
VERTEX
  5
60A
  8
FRAME
 10
4.206320461467277
 20
-0.6006825015752318
 30
0.0
  0
VERTEX
  5
60B
  8
FRAME
 10
4.207645737204672
 20
-0.611816328162253
 30
0.0
  0
VERTEX
  5
60C
  8
FRAME
 10
4.209426866420792
 20
-0.634402891451682
 30
0.0
  0
VERTEX
  5
60D
  8
FRAME
 10
4.210048765958687
 20
-0.6574146682282933
 30
0.0
  0
VERTEX
  5
60E
  8
FRAME
 10
4.209511435818357
 20
-0.680851658492087
 30
0.0
  0
VERTEX
  5
60F
  8
FRAME
 10
4.207814875999802
 20
-0.7047138622430629
 30
0.0
  0
VERTEX
  5
610
  8
FRAME
 10
4.20495908650302
 20
-0.7290012794812212
 30
0.0
  0
VERTEX
  5
611
  8
FRAME
 10
4.200944067328013
 20
-0.7537139102065616
 30
0.0
  0
VERTEX
  5
612
  8
FRAME
 10
4.19576981847478
 20
-0.7788517544190844
 30
0.0
  0
VERTEX
  5
613
  8
FRAME
 10
4.189436339943322
 20
-0.8044148121187893
 30
0.0
  0
VERTEX
  5
614
  8
FRAME
 10
4.181943631733638
 20
-0.8304030833056768
 30
0.0
  0
VERTEX
  5
615
  8
FRAME
 10
4.173291693845729
 20
-0.8568165679797464
 30
0.0
  0
VERTEX
  5
616
  8
FRAME
 10
4.163480526279593
 20
-0.8836552661409982
 30
0.0
  0
VERTEX
  5
617
  8
FRAME
 10
4.147486340413229
 20
-0.9228361590087464
 30
0.0
  0
VERTEX
  5
618
  8
FRAME
 10
3.495786462553588
 20
-0.6725091730024775
 30
0.0
  0
VERTEX
  5
619
  8
FRAME
 10
3.49025617896814
 20
-0.6907381443243188
 30
0.0
  0
VERTEX
  5
61A
  8
FRAME
 10
3.485436232180391
 20
-0.7086350492982081
 30
0.0
  0
VERTEX
  5
61B
  8
FRAME
 10
3.48132662219034
 20
-0.7261998879241454
 30
0.0
  0
VERTEX
  5
61C
  8
FRAME
 10
3.477927348997987
 20
-0.7434326602021304
 30
0.0
  0
VERTEX
  5
61D
  8
FRAME
 10
3.475238412603331
 20
-0.7603333661321634
 30
0.0
  0
VERTEX
  5
61E
  8
FRAME
 10
3.473259813006374
 20
-0.7769020057142442
 30
0.0
  0
VERTEX
  5
61F
  8
FRAME
 10
3.471991550207114
 20
-0.7931385789483729
 30
0.0
  0
VERTEX
  5
620
  8
FRAME
 10
3.471433624205552
 20
-0.8090430858345494
 30
0.0
  0
VERTEX
  5
621
  8
FRAME
 10
3.471586035001688
 20
-0.8246155263727737
 30
0.0
  0
VERTEX
  5
622
  8
FRAME
 10
3.472448782595523
 20
-0.8398559005630459
 30
0.0
  0
VERTEX
  5
623
  8
FRAME
 10
3.474021866987055
 20
-0.8547642084053662
 30
0.0
  0
VERTEX
  5
624
  8
FRAME
 10
3.476305288176285
 20
-0.8693404498997341
 30
0.0
  0
VERTEX
  5
625
  8
FRAME
 10
3.479299046163213
 20
-0.8835846250461501
 30
0.0
  0
VERTEX
  5
626
  8
FRAME
 10
3.483003140947839
 20
-0.8974967338446138
 30
0.0
  0
VERTEX
  5
627
  8
FRAME
 10
3.487417572530163
 20
-0.9110767762951255
 30
0.0
  0
VERTEX
  5
628
  8
FRAME
 10
3.492542340910184
 20
-0.924324752397685
 30
0.0
  0
VERTEX
  5
629
  8
FRAME
 10
3.498278527710383
 20
-0.9371620925541296
 30
0.0
  0
VERTEX
  5
62A
  8
FRAME
 10
3.50452721455324
 20
-0.949510227166297
 30
0.0
  0
VERTEX
  5
62B
  8
FRAME
 10
3.511288401438754
 20
-0.9613691562341867
 30
0.0
  0
VERTEX
  5
62C
  8
FRAME
 10
3.518562088366924
 20
-0.972738879757799
 30
0.0
  0
VERTEX
  5
62D
  8
FRAME
 10
3.526348275337752
 20
-0.9836193977371339
 30
0.0
  0
VERTEX
  5
62E
  8
FRAME
 10
3.534646962351237
 20
-0.9940107101721913
 30
0.0
  0
VERTEX
  5
62F
  8
FRAME
 10
3.543458149407379
 20
-1.003912817062971
 30
0.0
  0
VERTEX
  5
630
  8
FRAME
 10
3.552781836506178
 20
-1.013325718409474
 30
0.0
  0
VERTEX
  5
631
  8
FRAME
 10
3.562618023647634
 20
-1.022249414211699
 30
0.0
  0
VERTEX
  5
632
  8
FRAME
 10
3.572966710831747
 20
-1.030683904469647
 30
0.0
  0
VERTEX
  5
633
  8
FRAME
 10
3.583827898058518
 20
-1.038629189183317
 30
0.0
  0
VERTEX
  5
634
  8
FRAME
 10
3.595201585327945
 20
-1.04608526835271
 30
0.0
  0
VERTEX
  5
635
  8
FRAME
 10
3.60708777264003
 20
-1.053052141977825
 30
0.0
  0
VERTEX
  5
636
  8
FRAME
 10
3.619486459994772
 20
-1.059529810058663
 30
0.0
  0
VERTEX
  5
637
  8
FRAME
 10
3.632397647392171
 20
-1.065518272595223
 30
0.0
  0
VERTEX
  5
638
  8
FRAME
 10
3.645821334832226
 20
-1.071017529587506
 30
0.0
  0
VERTEX
  5
639
  8
FRAME
 10
3.655975133166515
 20
-1.074725941911059
 30
0.0
  0
VERTEX
  5
63A
  8
FRAME
 10
3.666070906986268
 20
-1.078028460569021
 30
0.0
  0
VERTEX
  5
63B
  8
FRAME
 10
3.676108656291484
 20
-1.080925085561394
 30
0.0
  0
VERTEX
  5
63C
  8
FRAME
 10
3.686088381082166
 20
-1.083415816888175
 30
0.0
  0
VERTEX
  5
63D
  8
FRAME
 10
3.69601008135831
 20
-1.085500654549367
 30
0.0
  0
VERTEX
  5
63E
  8
FRAME
 10
3.705873757119919
 20
-1.087179598544968
 30
0.0
  0
VERTEX
  5
63F
  8
FRAME
 10
3.715679408366992
 20
-1.088452648874979
 30
0.0
  0
VERTEX
  5
640
  8
FRAME
 10
3.725427035099528
 20
-1.0893198055394
 30
0.0
  0
VERTEX
  5
641
  8
FRAME
 10
3.735116637317529
 20
-1.08978106853823
 30
0.0
  0
VERTEX
  5
642
  8
FRAME
 10
3.744748215020994
 20
-1.08983643787147
 30
0.0
  0
VERTEX
  5
643
  8
FRAME
 10
3.754321768209922
 20
-1.08948591353912
 30
0.0
  0
VERTEX
  5
644
  8
FRAME
 10
3.763837296884315
 20
-1.088729495541179
 30
0.0
  0
VERTEX
  5
645
  8
FRAME
 10
3.773294801044172
 20
-1.087567183877648
 30
0.0
  0
VERTEX
  5
646
  8
FRAME
 10
3.782694280689493
 20
-1.085998978548527
 30
0.0
  0
VERTEX
  5
647
  8
FRAME
 10
3.792035735820277
 20
-1.084024879553815
 30
0.0
  0
VERTEX
  5
648
  8
FRAME
 10
3.801319166436526
 20
-1.081644886893514
 30
0.0
  0
VERTEX
  5
649
  8
FRAME
 10
3.810556919000221
 20
-1.078826857857421
 30
0.0
  0
VERTEX
  5
64A
  8
FRAME
 10
3.819761339973348
 20
-1.075538649735337
 30
0.0
  0
VERTEX
  5
64B
  8
FRAME
 10
3.828932429355905
 20
-1.071780262527261
 30
0.0
  0
VERTEX
  5
64C
  8
FRAME
 10
3.838070187147894
 20
-1.067551696233193
 30
0.0
  0
VERTEX
  5
64D
  8
FRAME
 10
3.847174613349313
 20
-1.062852950853134
 30
0.0
  0
VERTEX
  5
64E
  8
FRAME
 10
3.856245707960164
 20
-1.057684026387084
 30
0.0
  0
VERTEX
  5
64F
  8
FRAME
 10
3.865283470980445
 20
-1.052044922835042
 30
0.0
  0
VERTEX
  5
650
  8
FRAME
 10
3.874287902410157
 20
-1.045935640197008
 30
0.0
  0
VERTEX
  5
651
  8
FRAME
 10
3.883259002249299
 20
-1.039356178472983
 30
0.0
  0
VERTEX
  5
652
  8
FRAME
 10
3.892196770497873
 20
-1.032306537662966
 30
0.0
  0
VERTEX
  5
653
  8
FRAME
 10
3.901101207155877
 20
-1.024786717766958
 30
0.0
  0
VERTEX
  5
654
  8
FRAME
 10
3.909972312223312
 20
-1.016796718784958
 30
0.0
  0
VERTEX
  5
655
  8
FRAME
 10
3.918810085700178
 20
-1.008336540716967
 30
0.0
  0
VERTEX
  5
656
  8
FRAME
 10
3.927614527586475
 20
-0.9994061835629839
 30
0.0
  0
VERTEX
  5
657
  8
FRAME
 10
3.936385637882202
 20
-0.9900056473230093
 30
0.0
  0
SEQEND
  5
6A2
  8
FRAME
  0
POLYLINE
  5
6A
  8
FRAME
 66
     1
 10
0.0
 20
0.0
 30
0.0
 70
     1
  0
VERTEX
  5
658
  8
FRAME
 10
3.550793271527735
 20
-0.5538875668621187
 30
0.0
  0
VERTEX
  5
659
  8
FRAME
 10
4.03874532654133
 20
-0.7413167369400449
 30
0.0
  0
VERTEX
  5
65A
  8
FRAME
 10
4.042581060147945
 20
-0.7272208703914721
 30
0.0
  0
VERTEX
  5
65B
  8
FRAME
 10
4.045968495314218
 20
-0.7134470672941335
 30
0.0
  0
VERTEX
  5
65C
  8
FRAME
 10
4.048907632040146
 20
-0.6999953276480293
 30
0.0
  0
VERTEX
  5
65D
  8
FRAME
 10
4.051398470325733
 20
-0.686865651453159
 30
0.0
  0
VERTEX
  5
65E
  8
FRAME
 10
4.053441010170975
 20
-0.6740580387095232
 30
0.0
  0
VERTEX
  5
65F
  8
FRAME
 10
4.055035251575873
 20
-0.6615724894171214
 30
0.0
  0
VERTEX
  5
660
  8
FRAME
 10
4.056181194540429
 20
-0.649409003575954
 30
0.0
  0
VERTEX
  5
661
  8
FRAME
 10
4.056878839064641
 20
-0.6375675811860207
 30
0.0
  0
VERTEX
  5
662
  8
FRAME
 10
4.05712818514851
 20
-0.6260482222473217
 30
0.0
  0
VERTEX
  5
663
  8
FRAME
 10
4.056929232792037
 20
-0.6148509267598569
 30
0.0
  0
VERTEX
  5
664
  8
FRAME
 10
4.056281981995219
 20
-0.6039756947236263
 30
0.0
  0
VERTEX
  5
665
  8
FRAME
 10
4.055186432758058
 20
-0.5934225261386299
 30
0.0
  0
VERTEX
  5
666
  8
FRAME
 10
4.053642585080554
 20
-0.5831914210048679
 30
0.0
  0
VERTEX
  5
667
  8
FRAME
 10
4.051650438962707
 20
-0.5732823793223399
 30
0.0
  0
VERTEX
  5
668
  8
FRAME
 10
4.049209994404515
 20
-0.5636954010910463
 30
0.0
  0
VERTEX
  5
669
  8
FRAME
 10
4.046321251405981
 20
-0.5544304863109867
 30
0.0
  0
VERTEX
  5
66A
  8
FRAME
 10
4.041292149080203
 20
-0.5406069632483531
 30
0.0
  0
VERTEX
  5
66B
  8
FRAME
 10
4.035678384701122
 20
-0.5273260746456618
 30
0.0
  0
VERTEX
  5
66C
  8
FRAME
 10
4.02947995826874
 20
-0.5145878205029124
 30
0.0
  0
VERTEX
  5
66D
  8
FRAME
 10
4.022696869783056
 20
-0.502392200820105
 30
0.0
  0
VERTEX
  5
66E
  8
FRAME
 10
4.015329119244071
 20
-0.4907392155972397
 30
0.0
  0
VERTEX
  5
66F
  8
FRAME
 10
4.007376706651784
 20
-0.4796288648343164
 30
0.0
  0
VERTEX
  5
670
  8
FRAME
 10
3.998839632006196
 20
-0.4690611485313351
 30
0.0
  0
VERTEX
  5
671
  8
FRAME
 10
3.989717895307306
 20
-0.4590360666882959
 30
0.0
  0
VERTEX
  5
672
  8
FRAME
 10
3.980011496555115
 20
-0.4495536193051987
 30
0.0
  0
VERTEX
  5
673
  8
FRAME
 10
3.969720435749623
 20
-0.4406138063820435
 30
0.0
  0
VERTEX
  5
674
  8
FRAME
 10
3.958844712890829
 20
-0.4322166279188303
 30
0.0
  0
VERTEX
  5
675
  8
FRAME
 10
3.947384327978733
 20
-0.4243620839155592
 30
0.0
  0
VERTEX
  5
676
  8
FRAME
 10
3.935339281013336
 20
-0.4170501743722301
 30
0.0
  0
VERTEX
  5
677
  8
FRAME
 10
3.922709571994637
 20
-0.410280899288843
 30
0.0
  0
VERTEX
  5
678
  8
FRAME
 10
3.909495200922637
 20
-0.404054258665398
 30
0.0
  0
VERTEX
  5
679
  8
FRAME
 10
3.895696167797335
 20
-0.398370252501895
 30
0.0
  0
VERTEX
  5
67A
  8
FRAME
 10
3.882966428460559
 20
-0.3937867294063729
 30
0.0
  0
VERTEX
  5
67B
  8
FRAME
 10
3.870285665265442
 20
-0.3898343123498503
 30
0.0
  0
VERTEX
  5
67C
  8
FRAME
 10
3.857653878211986
 20
-0.3865130013323269
 30
0.0
  0
VERTEX
  5
67D
  8
FRAME
 10
3.84507106730019
 20
-0.383822796353803
 30
0.0
  0
VERTEX
  5
67E
  8
FRAME
 10
3.832537232530054
 20
-0.3817636974142783
 30
0.0
  0
VERTEX
  5
67F
  8
FRAME
 10
3.820052373901578
 20
-0.3803357045137531
 30
0.0
  0
VERTEX
  5
680
  8
FRAME
 10
3.807616491414762
 20
-0.3795388176522271
 30
0.0
  0
VERTEX
  5
681
  8
FRAME
 10
3.795229585069606
 20
-0.3793730368297006
 30
0.0
  0
VERTEX
  5
682
  8
FRAME
 10
3.78289165486611
 20
-0.3798383620461733
 30
0.0
  0
VERTEX
  5
683
  8
FRAME
 10
3.770602700804275
 20
-0.3809347933016455
 30
0.0
  0
VERTEX
  5
684
  8
FRAME
 10
3.758362722884099
 20
-0.3826623305961169
 30
0.0
  0
VERTEX
  5
685
  8
FRAME
 10
3.746171721105584
 20
-0.3850209739295877
 30
0.0
  0
VERTEX
  5
686
  8
FRAME
 10
3.734029695468728
 20
-0.3880107233020579
 30
0.0
  0
VERTEX
  5
687
  8
FRAME
 10
3.721936645973534
 20
-0.3916315787135274
 30
0.0
  0
VERTEX
  5
688
  8
FRAME
 10
3.709892572619998
 20
-0.3958835401639963
 30
0.0
  0
VERTEX
  5
689
  8
FRAME
 10
3.697897475408124
 20
-0.4007666076534645
 30
0.0
  0
VERTEX
  5
68A
  8
FRAME
 10
3.686100403541986
 20
-0.4062384431275307
 30
0.0
  0
VERTEX
  5
68B
  8
FRAME
 10
3.674650406225664
 20
-0.4122567085317935
 30
0.0
  0
VERTEX
  5
68C
  8
FRAME
 10
3.663547483459157
 20
-0.4188214038662529
 30
0.0
  0
VERTEX
  5
68D
  8
FRAME
 10
3.652791635242465
 20
-0.425932529130909
 30
0.0
  0
VERTEX
  5
68E
  8
FRAME
 10
3.642382861575588
 20
-0.4335900843257616
 30
0.0
  0
VERTEX
  5
68F
  8
FRAME
 10
3.632321162458526
 20
-0.441794069450811
 30
0.0
  0
VERTEX
  5
690
  8
FRAME
 10
3.622606537891279
 20
-0.4505444845060569
 30
0.0
  0
VERTEX
  5
691
  8
FRAME
 10
3.613238987873847
 20
-0.4598413294914995
 30
0.0
  0
VERTEX
  5
692
  8
FRAME
 10
3.60421851240623
 20
-0.4696846044071387
 30
0.0
  0
VERTEX
  5
693
  8
FRAME
 10
3.595545111488429
 20
-0.4800743092529746
 30
0.0
  0
VERTEX
  5
694
  8
FRAME
 10
3.587218785120442
 20
-0.491010444029007
 30
0.0
  0
VERTEX
  5
695
  8
FRAME
 10
3.579239533302271
 20
-0.5024930087352361
 30
0.0
  0
VERTEX
  5
696
  8
FRAME
 10
3.571607356033914
 20
-0.5145220033716618
 30
0.0
  0
VERTEX
  5
697
  8
FRAME
 10
3.564322253315372
 20
-0.5270974279382841
 30
0.0
  0
VERTEX
  5
698
  8
FRAME
 10
3.557384225146646
 20
-0.5402192824351031
 30
0.0
  0
SEQEND
  5
6A3
  8
FRAME
  0
ENDSEC
  0
EOF
